<svg width="31" height="31" viewBox="0 0 31 31" fill="none" xmlns="http://www.w3.org/2000/svg">
<path d="M7.36892 4.792L5.54767 2.95784C1.29163 7.18546 1.29163 10.2493 1.29163 14.2083H2.58329L3.87496 14.1269C3.87496 10.3449 3.87496 8.26142 7.36892 4.792ZM25.451 2.95784L23.6323 4.792C27.125 8.26142 27.125 10.3449 27.125 14.2083L29.7083 14.1269C29.7083 10.2493 29.7083 7.18546 25.451 2.95784ZM15.5 28.4166C16.2999 28.4176 17.0803 28.1694 17.7326 27.7064C18.3849 27.2434 18.8768 26.5887 19.1399 25.8333H11.86C12.1231 26.5887 12.615 27.2434 13.2673 27.7064C13.9197 28.1694 14.7 28.4176 15.5 28.4166ZM24.5416 18.8402V12.9166C24.5416 8.76129 21.7193 5.26088 17.896 4.20817C17.5175 3.25492 16.5927 2.58325 15.5 2.58325C14.4072 2.58325 13.4824 3.25492 13.1039 4.20817C9.27929 5.26088 6.45829 8.76129 6.45829 12.9166V18.8402L4.25342 21.045C4.13324 21.1648 4.03793 21.3071 3.97298 21.4638C3.90802 21.6206 3.87471 21.7886 3.87496 21.9583V23.2499C3.87496 23.5925 4.01104 23.921 4.25328 24.1633C4.49551 24.4055 4.82405 24.5416 5.16663 24.5416H25.8333C26.1759 24.5416 26.5044 24.4055 26.7466 24.1633C26.9889 23.921 27.125 23.5925 27.125 23.2499V21.9583C27.1252 21.7886 27.0919 21.6206 27.0269 21.4638C26.962 21.3071 26.8667 21.1648 26.7465 21.045L24.5416 18.8402Z" fill="black"/>
</svg>
