<svg width="17" height="17" viewBox="0 0 17 17" fill="none" xmlns="http://www.w3.org/2000/svg">
<path d="M1.99279 10.9555L1.09557 14.8277C1.06462 14.9693 1.06568 15.1159 1.09868 15.257C1.13167 15.3981 1.19577 15.5301 1.28629 15.6432C1.3768 15.7563 1.49145 15.8478 1.62185 15.911C1.75226 15.9742 1.89512 16.0074 2.04002 16.0083C2.10753 16.0151 2.17556 16.0151 2.24307 16.0083L6.13891 15.1111L13.6189 7.65938L9.44446 3.49438L1.99279 10.9555Z" fill="black"/>
<path d="M15.9706 3.92882L13.1845 1.14271C13.0013 0.960462 12.7534 0.858154 12.495 0.858154C12.2367 0.858154 11.9888 0.960462 11.8056 1.14271L10.2567 2.6916L14.4264 6.86132L15.9753 5.31243C16.066 5.22133 16.1378 5.11325 16.1866 4.99437C16.2354 4.8755 16.2603 4.74816 16.2599 4.61965C16.2594 4.49114 16.2337 4.36397 16.184 4.24543C16.1344 4.12689 16.0619 4.0193 15.9706 3.92882Z" fill="black"/>
</svg>
