<svg width="16" height="16" viewBox="0 0 16 16" fill="none" xmlns="http://www.w3.org/2000/svg">
<path d="M7.74603 0.968246C3.96985 0.968246 0.968262 3.96983 0.968262 7.74602C0.968262 11.5222 3.96985 14.5238 7.74603 14.5238C11.5222 14.5238 14.5238 11.5222 14.5238 7.74602C14.5238 3.96983 11.5222 0.968246 7.74603 0.968246ZM7.74603 13.5555C4.5508 13.5555 1.93651 10.9413 1.93651 7.74602C1.93651 4.55078 4.5508 1.9365 7.74603 1.9365C10.9413 1.9365 13.5556 4.55078 13.5556 7.74602C13.5556 10.9413 10.9413 13.5555 7.74603 13.5555Z" fill="#818286"/>
<path d="M10.3603 11.1349L7.74602 8.52062L5.13173 11.1349L4.35713 10.3603L6.97141 7.74602L4.35713 5.13173L5.13173 4.35713L7.74602 6.97141L10.3603 4.35713L11.1349 5.13173L8.52062 7.74602L11.1349 10.3603L10.3603 11.1349Z" fill="#818286"/>
</svg>
