<svg width="17" height="19" viewBox="0 0 17 19" fill="none" xmlns="http://www.w3.org/2000/svg">
<path d="M15.3237 6.98947H14.9V4.9451C14.8997 4.93211 14.8984 4.91916 14.8962 4.90635C14.8968 4.82422 14.8675 4.74469 14.8137 4.6826L11.4125 0.796972L11.41 0.794473C11.3896 0.772469 11.3665 0.753147 11.3412 0.736973L11.3188 0.723222C11.2971 0.711209 11.2743 0.701569 11.2506 0.694472L11.2319 0.688223C11.2059 0.681748 11.1793 0.678391 11.1525 0.678223H2.79187C2.41 0.678223 2.1 0.988848 2.1 1.3701V6.98885H1.67625C1.13 6.98885 0.6875 7.43135 0.6875 7.9776V13.1201C0.6875 13.6657 1.13062 14.1088 1.67625 14.1088H2.1V17.6288C2.1 18.0101 2.41 18.3207 2.79187 18.3207H14.2081C14.5894 18.3207 14.9 18.0101 14.9 17.6288V14.1088H15.3237C15.8694 14.1088 16.3125 13.6663 16.3125 13.1201V7.9776C16.3125 7.43197 15.87 6.98947 15.3237 6.98947ZM2.79187 1.3701H10.8063V4.9101C10.8063 5.10135 10.9612 5.25572 11.1525 5.25572H14.2088V6.98885H2.79187V1.3701ZM7.96813 10.8501C7.12813 10.5501 6.57375 10.0851 6.57375 9.35072C6.57375 8.48885 7.30125 7.83697 8.48562 7.83697C9.06312 7.83697 9.475 7.94947 9.775 8.09135L9.52 9.00572C9.19318 8.84655 8.83414 8.76465 8.47062 8.76635C7.97562 8.76635 7.73563 8.99822 7.73563 9.25322C7.73563 9.57572 8.0125 9.7176 8.6725 9.9651C9.565 10.2951 9.97688 10.7595 9.97688 11.472C9.97688 12.3195 9.3325 13.0388 7.94563 13.0388C7.36813 13.0388 6.79875 12.8813 6.51375 12.7238L6.74625 11.787C7.13871 11.9874 7.57189 12.0951 8.0125 12.102C8.5375 12.102 8.815 11.8838 8.815 11.5545C8.815 11.2395 8.57562 11.0601 7.96813 10.8501ZM2.01438 10.5051C2.01438 8.78822 3.24375 7.83635 4.7725 7.83635C5.365 7.83635 5.81438 7.95572 6.01688 8.05385L5.77687 8.96072C5.47328 8.83324 5.14675 8.76942 4.8175 8.77322C3.91812 8.77322 3.21375 9.3201 3.21375 10.4445C3.21375 11.4488 3.81312 12.0863 4.825 12.0863C5.1775 12.0863 5.5525 12.0195 5.78437 11.9213L5.95 12.8207C5.7475 12.9176 5.2675 13.0382 4.66063 13.0382C2.91375 13.0388 2.01438 11.9445 2.01438 10.5051ZM14.2081 17.4426H2.79187V14.1095H14.2081V17.4426ZM13.2844 12.9638H11.95L10.3313 7.91135H11.5831L12.1975 10.0482C12.3694 10.6551 12.5269 11.2251 12.6469 11.8545H12.6694C12.7972 11.2539 12.9496 10.6588 13.1263 10.0707L13.7712 7.91197H14.985L13.2844 12.9638Z" fill="black"/>
</svg>
