<svg width="64" height="64" viewBox="0 0 64 64" fill="none" xmlns="http://www.w3.org/2000/svg">
<path d="M59.595 35.879C63.426 28.581 55.639 23.52 45.458 21.038C46.224 19.297 46.446 17.018 44.286 14.842C41.516 12.057 43.357 8 43.357 8C43.357 8 37.543 13.363 41.214 17.061C42.568 18.424 43.273 19.621 43.61 20.622C40.7994 20.0427 37.9535 19.6505 35.091 19.448C35.946 17.124 36.029 14.205 33.335 11.41C29.647 7.579 32.103 2 32.103 2C32.103 2 24.35 9.374 29.245 14.458C31.032 16.312 31.973 17.944 32.429 19.312C29.395 19.221 26.475 19.354 23.881 19.717C24.19 18.222 23.932 16.503 22.283 14.843C19.513 12.058 21.355 8 21.355 8C21.355 8 15.54 13.363 19.212 17.061C20.362 18.219 21.036 19.253 21.423 20.154C20.985 20.25 20.56 20.354 20.151 20.467C7.50896 19.284 1.99496 21.896 4.51396 27.02C0.117963 31.416 1.76996 36.433 7.27096 40.272C10.141 52.093 10.88 62 32.496 62C51.784 62 54.449 54.11 56.838 44.012C64.006 42.585 62.479 39.149 59.595 35.879ZM57.808 34.698C55.407 39.818 44.987 43.672 32.496 43.672C20.006 43.672 9.58596 39.818 7.18396 34.698C7.13296 34.546 7.08396 34.388 7.03496 34.234C8.17896 31.332 11.897 28.814 17.119 27.128C15.892 28.314 15.637 30.085 18.866 30.706C19.79 30.884 22.327 30.268 21.218 27.12C21.063 26.68 20.81 26.385 20.499 26.207C24.087 25.386 28.16 24.913 32.496 24.913C32.982 24.913 33.459 24.93 33.938 24.941C31.436 25.829 29.395 28.565 34.504 29.372C35.632 29.55 38.729 28.934 37.375 25.786C37.2567 25.5054 37.0671 25.2607 36.825 25.076C41.612 25.428 45.949 26.35 49.455 27.679C46.372 27.507 42.952 29.407 48.429 32.082C49.604 32.656 53.174 33.183 52.683 29.707C52.6474 29.4559 52.5588 29.2152 52.423 29.001C55.226 30.478 57.181 32.269 57.956 34.234L57.808 34.698Z" fill="#08601F"/>
<path d="M25.8369 36.841C29.0699 36.841 31.2259 33.918 32.9149 32.774C35.2749 31.174 41.2089 30.55 35.9829 30.424C31.0259 30.305 24.9059 34.329 20.8159 34.052C14.0439 33.592 20.9799 36.841 25.8369 36.841Z" fill="#08601F"/>
<path d="M32.823 42.813C33.965 43.033 37.104 42.271 35.731 38.378C34.18 33.973 24.791 41.267 32.823 42.813Z" fill="#08601F"/>
<path d="M15.0471 33.178C13.9561 31.638 12.3741 29.685 11.7191 30.702C10.8241 32.093 10.5421 34.892 11.1921 35.016C16.2881 35.993 15.9311 34.425 15.0471 33.178Z" fill="#08601F"/>
<path d="M44.672 33.802C45.591 32.664 43.756 29.925 42.578 30.404C40.734 31.154 39.671 30.646 38.861 31.784C36.964 34.449 43.423 35.347 44.672 33.802Z" fill="#08601F"/>
<path d="M44.098 37.063C42.776 36.48 43.088 38.433 41.135 36.866C39.737 35.744 36.729 38.574 38.713 40.496C40.921 42.635 41.509 40.602 42.437 40.773C44.323 41.12 47.566 38.593 44.098 37.063Z" fill="#08601F"/>
<path d="M22.116 37.731C21.427 37.053 20.503 37.871 19.981 38.869C19.464 38.615 19.043 38.556 19.043 38.556C18.648 37.43 17.473 36.658 17.473 36.658C17.473 36.658 17.58 37.829 17.735 38.4C16.437 37.939 16.397 35.619 16.397 35.619C16.397 35.619 15.526 36.14 15.605 37.025C14.176 35.872 12.959 36.411 12.959 36.411C12.959 36.411 14.772 37.431 15.022 38.119C14.004 38.198 13.41 38.55 13.064 39.369C13.065 39.376 15.076 38.412 16.564 39.108C15.977 39.588 16.269 40.787 16.269 40.787C17.654 39.319 18.76 39.476 19.645 39.739C19.538 40.188 19.545 40.598 19.735 40.847C21.27 42.865 26.617 42.411 28.053 40.919C29.792 39.114 24.96 40.53 22.116 37.731Z" fill="#08601F"/>
<path d="M25.8929 30.13C25.4379 31.044 25.4349 31.734 25.9609 32.452C25.9679 32.454 26.1729 30.234 27.5339 29.314C27.6449 30.064 28.8229 30.428 28.8229 30.428C27.8809 27.092 30.6309 26.918 30.6179 25.721C29.1599 25.844 28.3319 26.904 28.3319 26.904C27.1629 26.665 25.8959 27.276 25.8959 27.276C25.8959 27.276 26.9569 27.785 27.5259 27.946C26.4639 28.823 24.4519 27.666 24.4519 27.666C24.4519 27.666 24.4519 28.682 25.2519 29.067C23.5289 29.702 23.3669 31.022 23.3669 31.022C23.3669 31.022 25.1729 29.991 25.8929 30.13Z" fill="#08601F"/>
<path d="M51.444 34.686C51.858 33.9 51.254 33.083 51.254 33.083C51.254 33.083 50.325 35.21 48.95 35.137C49.312 34.669 49.862 33.629 49.862 33.629C49.862 33.629 48.48 33.892 47.682 34.779C47.682 34.779 46.386 34.42 45.142 35.188C45.844 36.158 48.158 34.661 49.385 37.903C49.385 37.903 50.115 36.91 49.758 36.241C51.4 36.17 52.886 37.832 52.891 37.826C52.885 36.936 52.473 36.384 51.562 35.92C52.058 35.381 54.124 35.136 54.124 35.136C54.124 35.136 53.208 34.171 51.444 34.686Z" fill="#08601F"/>
</svg>
