<svg width="66" height="66" viewBox="0 0 66 66" fill="none" xmlns="http://www.w3.org/2000/svg">
<path d="M52.25 19.25C52.25 16.225 49.775 13.75 46.75 13.75H41.25C39.7375 13.75 38.5 14.9875 38.5 16.5C38.5 18.0125 39.7375 19.25 41.25 19.25H46.75V26.5375L37.18 38.5H27.5V27.5C27.5 25.9875 26.2625 24.75 24.75 24.75H16.5C10.4225 24.75 5.5 29.6725 5.5 35.75V41.25C5.5 42.7625 6.7375 44 8.25 44H11C11 48.565 14.685 52.25 19.25 52.25C23.815 52.25 27.5 48.565 27.5 44H37.18C38.8575 44 40.425 43.23 41.47 41.9375L51.04 29.975C51.8375 28.985 52.25 27.775 52.25 26.5375V19.25ZM19.25 46.75C17.7375 46.75 16.5 45.5125 16.5 44H22C22 45.5125 20.7625 46.75 19.25 46.75Z" fill="#08601F"/>
<path d="M16.5 16.5H24.75C26.2625 16.5 27.5 17.7375 27.5 19.25C27.5 20.7625 26.2625 22 24.75 22H16.5C14.9875 22 13.75 20.7625 13.75 19.25C13.75 17.7375 14.9875 16.5 16.5 16.5ZM52.25 35.75C47.685 35.75 44 39.435 44 44C44 48.565 47.685 52.25 52.25 52.25C56.815 52.25 60.5 48.565 60.5 44C60.5 39.435 56.815 35.75 52.25 35.75ZM52.25 46.75C50.7375 46.75 49.5 45.5125 49.5 44C49.5 42.4875 50.7375 41.25 52.25 41.25C53.7625 41.25 55 42.4875 55 44C55 45.5125 53.7625 46.75 52.25 46.75Z" fill="#08601F"/>
</svg>
