<svg width="17" height="17" viewBox="0 0 17 17" fill="none" xmlns="http://www.w3.org/2000/svg">
<path d="M15.2354 6.0809H14.7985L14.8214 4.4744C14.8187 4.38051 14.7825 4.29069 14.7194 4.2211L10.9658 0.1139C10.9357 0.0794433 10.8988 0.0515522 10.8574 0.0319585C10.816 0.0123648 10.771 0.00148682 10.7253 0L2.87128 0C2.69518 0.00282715 2.52705 0.073866 2.40228 0.198162C2.27751 0.322459 2.20583 0.490316 2.20233 0.6664V6.0809H1.76458C1.52233 6.0809 1.28858 6.1812 1.11858 6.3597C0.946026 6.5382 0.849976 6.78045 0.849976 7.03375V11.9893C0.849976 12.5146 1.25968 12.9413 1.76458 12.9413H2.20233V16.3328C2.20562 16.5093 2.27744 16.6776 2.4026 16.8021C2.52776 16.9266 2.69644 16.9976 2.87298 17H14.1593C14.512 17 14.8223 16.7008 14.8223 16.3336V12.9421H15.2362C15.7411 12.9421 16.1508 12.5146 16.1508 11.9884V7.0329C16.1508 6.7813 16.0548 6.5382 15.8831 6.3597C15.7998 6.27204 15.6996 6.20214 15.5886 6.15423C15.4776 6.10632 15.358 6.08137 15.2371 6.0809H15.2354ZM3.35748 1.1713H9.27008V5.06175C9.26975 5.14935 9.30324 5.23369 9.36358 5.2972C9.42393 5.3601 9.50553 5.39495 9.59053 5.39495H13.6357V6.0809H3.35748V1.1713ZM3.35748 15.8287V12.9413H13.6357V15.8287H3.35748ZM10.4473 1.292L10.7746 1.6609L12.9676 4.08595L13.0891 4.233H10.8477C10.6777 4.233 10.5714 4.20495 10.5264 4.148C10.4813 4.09275 10.455 4.0035 10.4473 3.88195V1.292ZM2.54998 12.0972V6.9972H4.18028C4.79738 6.9972 5.20028 7.0227 5.38728 7.0737C5.67628 7.1502 5.91768 7.3168 6.11233 7.5735C6.30613 7.82935 6.40388 8.16 6.40388 8.5663C6.40388 8.8791 6.34778 9.1426 6.23558 9.3568C6.12338 9.5693 5.98058 9.73675 5.80803 9.8583C5.6503 9.97344 5.47111 10.0558 5.28103 10.1006C5.03878 10.149 4.68773 10.1736 4.22788 10.1736H3.56573V12.0972H2.54998ZM3.56573 7.85995V9.3075H4.12163C4.52198 9.3075 4.78973 9.2803 4.92488 9.2276C5.0555 9.1783 5.1674 9.08931 5.24485 8.97313C5.3223 8.85696 5.36141 8.71944 5.35668 8.5799C5.36288 8.41197 5.30516 8.24795 5.19518 8.1209C5.08905 8.00107 4.94504 7.92127 4.78718 7.8948C4.66648 7.87185 4.42253 7.8608 4.05618 7.8608H3.56573V7.85995ZM6.99973 6.9972H8.85613C9.27518 6.9972 9.59393 7.0295 9.81408 7.09495C10.109 7.1825 10.3615 7.33975 10.5723 7.56415C10.7822 7.7894 10.9429 8.0648 11.0525 8.39035C11.163 8.71675 11.2174 9.11795 11.2174 9.59565C11.2174 10.0155 11.1664 10.3777 11.0627 10.6811C10.9369 11.0526 10.7567 11.3526 10.5238 11.5821C10.3479 11.7564 10.1099 11.8924 9.80983 11.9901C9.58628 12.0615 9.28623 12.0972 8.91138 12.0972H6.99973V6.9972ZM8.01548 7.85995V11.2379H8.77368C9.05758 11.2379 9.26243 11.2217 9.38823 11.1894C9.55313 11.1469 9.68998 11.0772 9.79793 10.9769C9.90673 10.8774 9.99598 10.7134 10.064 10.4848C10.1328 10.2561 10.1668 9.945 10.1668 9.5506C10.1668 9.1562 10.1328 8.8536 10.0648 8.6428C10.0108 8.45681 9.91153 8.28712 9.77583 8.14895C9.64464 8.0265 9.48182 7.94318 9.30578 7.9084C9.16383 7.8761 8.88588 7.85995 8.47278 7.85995H8.01548ZM11.8515 12.0972V6.9972H15.3V7.85995H12.8673V9.06695H14.9668V9.9297H12.8673V12.0972H11.8515Z" fill="black"/>
</svg>
