<svg width="60" height="60" viewBox="0 0 60 60" fill="none" xmlns="http://www.w3.org/2000/svg">
<path d="M57.595 33.879C61.426 26.581 53.639 21.52 43.458 19.038C44.224 17.297 44.446 15.018 42.286 12.842C39.516 10.057 41.357 6 41.357 6C41.357 6 35.543 11.363 39.214 15.061C40.568 16.424 41.273 17.621 41.61 18.622C38.7994 18.0427 35.9535 17.6505 33.091 17.448C33.946 15.124 34.029 12.205 31.335 9.41C27.647 5.579 30.103 0 30.103 0C30.103 0 22.35 7.374 27.245 12.458C29.032 14.312 29.973 15.944 30.429 17.312C27.395 17.221 24.475 17.354 21.881 17.717C22.19 16.222 21.932 14.503 20.283 12.843C17.513 10.058 19.355 6 19.355 6C19.355 6 13.54 11.363 17.212 15.061C18.362 16.219 19.036 17.253 19.423 18.154C18.985 18.25 18.56 18.354 18.151 18.467C5.50896 17.284 -0.00503755 19.896 2.51396 25.02C-1.88204 29.416 -0.230038 34.433 5.27096 38.272C8.14096 50.093 8.87996 60 30.496 60C49.784 60 52.449 52.11 54.838 42.012C62.006 40.585 60.479 37.149 57.595 33.879ZM55.808 32.698C53.407 37.818 42.987 41.672 30.496 41.672C18.006 41.672 7.58596 37.818 5.18396 32.698C5.13296 32.546 5.08396 32.388 5.03496 32.234C6.17896 29.332 9.89696 26.814 15.119 25.128C13.892 26.314 13.637 28.085 16.866 28.706C17.79 28.884 20.327 28.268 19.218 25.12C19.063 24.68 18.81 24.385 18.499 24.207C22.087 23.386 26.16 22.913 30.496 22.913C30.982 22.913 31.459 22.93 31.938 22.941C29.436 23.829 27.395 26.565 32.504 27.372C33.632 27.55 36.729 26.934 35.375 23.786C35.2567 23.5054 35.0671 23.2607 34.825 23.076C39.612 23.428 43.949 24.35 47.455 25.679C44.372 25.507 40.952 27.407 46.429 30.082C47.604 30.656 51.174 31.183 50.683 27.707C50.6474 27.4559 50.5588 27.2152 50.423 27.001C53.226 28.478 55.181 30.269 55.956 32.234L55.808 32.698Z" fill="#08601F"/>
</svg>
