<svg width="17" height="16" viewBox="0 0 17 16" fill="none" xmlns="http://www.w3.org/2000/svg">
<path fill-rule="evenodd" clip-rule="evenodd" d="M9.01594 0.0600832C7.95455 0.0364342 6.89912 0.225081 5.91163 0.614948C4.92415 1.00482 4.02451 1.58804 3.26553 2.33039C2.50656 3.07274 1.90354 3.95924 1.4919 4.93785C1.08025 5.91646 0.868275 6.96744 0.868408 8.02911C0.868542 9.09077 1.08078 10.1417 1.49267 11.1202C1.90456 12.0987 2.5078 12.9851 3.26696 13.7272C4.02612 14.4694 4.92591 15.0524 5.9135 15.442C6.90108 15.8316 7.95655 16.02 9.01794 15.9961C11.1003 15.9492 13.0815 15.0889 14.5375 13.5996C15.9935 12.1102 16.8087 10.11 16.8084 8.02711C16.8081 5.94425 15.9925 3.94425 14.5361 2.45523C13.0797 0.966205 11.0983 0.10648 9.01594 0.0600832ZM3.04894 8.02808C3.05106 6.44628 3.68044 4.92988 4.79904 3.81147C5.91764 2.69306 7.43414 2.06394 9.01594 2.06208C10.3699 2.06208 11.6159 2.52008 12.6179 3.28308L4.27094 11.6311C3.47901 10.5969 3.04957 9.33069 3.04894 8.02808ZM9.01594 13.9941C7.77977 13.9946 6.57442 13.6082 5.56894 12.8891L13.8779 4.58008C14.5964 5.58623 14.9824 6.79177 14.9819 8.02808C14.9798 9.60971 14.3506 11.126 13.2322 12.2443C12.1138 13.3627 10.5976 13.992 9.01594 13.9941Z" fill="black"/>
</svg>
