<svg width="15" height="15" viewBox="0 0 15 15" fill="none" xmlns="http://www.w3.org/2000/svg">
<path d="M7.2619 0.484131C3.48572 0.484131 0.484131 3.48572 0.484131 7.2619C0.484131 11.0381 3.48572 14.0397 7.2619 14.0397C11.0381 14.0397 14.0397 11.0381 14.0397 7.2619C14.0397 3.48572 11.0381 0.484131 7.2619 0.484131ZM7.2619 13.0714C4.06667 13.0714 1.45238 10.4571 1.45238 7.2619C1.45238 4.06667 4.06667 1.45238 7.2619 1.45238C10.4571 1.45238 13.0714 4.06667 13.0714 7.2619C13.0714 10.4571 10.4571 13.0714 7.2619 13.0714Z" fill="#818286"/>
<path fill-rule="evenodd" clip-rule="evenodd" d="M11.0284 5.14336L6.84749 10.371L3.56317 7.63371L4.18285 6.89009L6.70806 8.9941L10.2732 4.53917L11.0284 5.14336Z" fill="#818286"/>
</svg>
