<svg width="51" height="51" viewBox="0 0 51 51" fill="none" xmlns="http://www.w3.org/2000/svg">
<path d="M35.3077 0.368783C26.8437 0.368783 19.9822 4.15259 19.9822 8.82694C19.9822 13.5013 26.8456 17.2871 35.3077 17.2871C43.7717 17.2871 50.6332 13.5013 50.6332 8.82694C50.6332 4.15259 43.7698 0.366821 35.3077 0.366821V0.368783ZM50.6332 11.3397C50.6293 16.014 43.7717 19.7998 35.3077 19.7998C26.8672 19.7998 20.0214 16.0552 19.9822 11.4024V14.7116C19.9822 16.7084 21.2611 18.5366 23.3561 19.9842C25.4745 20.5609 27.3615 21.3612 28.9327 22.3733C30.8805 22.8676 33.0225 23.1697 35.3077 23.1697C43.7717 23.1697 50.6332 19.3859 50.6332 14.7116V11.3397ZM50.6332 17.2243C50.6332 21.8986 43.7717 25.6844 35.3077 25.6844C34.2779 25.6844 33.2775 25.6079 32.3046 25.5C33.0723 26.534 33.5961 27.7283 33.8366 28.9935C34.325 29.021 34.8075 29.0543 35.3077 29.0543C43.7717 29.0543 50.6332 25.2705 50.6332 20.5962V17.2243ZM15.6923 21.9437C7.22828 21.9437 0.366821 25.7295 0.366821 30.4039C0.366821 35.0782 7.23024 38.864 15.6923 38.864C24.1564 38.864 31.0178 35.0782 31.0178 30.4039C31.0178 25.7295 24.1544 21.9437 15.6923 21.9437ZM50.6332 23.1089C50.6293 27.7832 43.7717 31.569 35.3077 31.569C34.8154 31.569 34.3171 31.5337 33.8366 31.5062C33.815 31.6534 33.8032 31.8495 33.7757 31.9966C33.8738 32.2928 33.9582 32.5851 33.9582 32.9185V34.8801C34.4034 34.9017 34.8507 34.9389 35.3077 34.9389C43.7717 34.9389 50.6332 31.1551 50.6332 26.4808V23.1089ZM50.6332 28.9935C50.6293 33.6679 43.7717 37.4536 35.3077 37.4536C34.8154 37.4536 34.3171 37.4183 33.8366 37.3909C33.815 37.538 33.8032 37.7341 33.7757 37.8812C33.8738 38.1755 33.9582 38.4697 33.9582 38.8032V40.7647C34.4034 40.7863 34.8507 40.8236 35.3077 40.8236C43.7717 40.8236 50.6332 37.0397 50.6332 32.3654V28.9935ZM31.0178 32.9166C31.0139 37.5909 24.1564 41.3767 15.6923 41.3767C7.25182 41.3767 0.406052 37.6321 0.366821 32.9774V36.2885C0.366821 40.9628 7.22632 44.7486 15.6923 44.7486C24.1583 44.7486 31.0178 40.9628 31.0178 36.2885V32.9166ZM31.0178 38.8012C31.0139 43.4756 24.1564 47.2613 15.6923 47.2613C7.25182 47.2613 0.406052 43.5167 0.366821 38.862V42.1731C0.366821 46.8474 7.22632 50.6332 15.6923 50.6332C24.1583 50.6332 31.0178 46.8474 31.0178 42.1731V38.8012Z" fill="#08601F"/>
</svg>
