<svg width="14" height="18" viewBox="0 0 14 18" fill="none" xmlns="http://www.w3.org/2000/svg">
<path d="M6.5563 17.6368C1.44816 10.2316 0.5 9.47155 0.5 6.75C0.5 3.02207 3.52207 0 7.25 0C10.9779 0 14 3.02207 14 6.75C14 9.47155 13.0518 10.2316 7.9437 17.6368C7.60849 18.1211 6.89148 18.121 6.5563 17.6368ZM7.25 9.5625C8.80331 9.5625 10.0625 8.30331 10.0625 6.75C10.0625 5.19669 8.80331 3.9375 7.25 3.9375C5.69669 3.9375 4.4375 5.19669 4.4375 6.75C4.4375 8.30331 5.69669 9.5625 7.25 9.5625Z" fill="#B3B3B3"/>
</svg>
