<svg width="40" height="40" viewBox="0 0 40 40" fill="none" xmlns="http://www.w3.org/2000/svg">
<path d="M19.9999 2C10.0174 2 1.9248 10.0926 1.9248 20.0751C1.9248 29.0282 8.44123 36.4429 16.9853 37.8787V23.8461H12.6251V18.7963H16.9853V15.0727C16.9853 10.7524 19.6241 8.39805 23.4787 8.39805C25.3248 8.39805 26.9113 8.53562 27.3719 8.59621V13.1121L24.6985 13.1134C22.6026 13.1134 22.1986 14.1091 22.1986 15.5708V18.7937H27.1994L26.5472 23.8435H22.1986V37.9995C31.1416 36.911 38.0748 29.3075 38.0748 20.0699C38.0748 10.0926 29.9822 2 19.9999 2Z" fill="#53A0BC"/>
</svg>
