<svg xmlns="http://www.w3.org/2000/svg" width="106.799" height="50.172" viewBox="0 0 106.799 50.172">
  <g id="Group_579" data-name="Group 579" transform="translate(-2804.586 533.637)">
    <g id="Group_448" data-name="Group 448" transform="translate(2804.586 -533.637)">
      <g id="Group_447" data-name="Group 447" transform="translate(0 0)">
        <g id="Group_444" data-name="Group 444" transform="translate(13.336)">
          <g id="Group_443" data-name="Group 443">
            <path id="Path_1675" data-name="Path 1675" d="M2948.748-520.546a.422.422,0,0,0,0-.153,1.2,1.2,0,0,1-.049-.458c.014-.148.035-.3.063-.444.009-.018.018-.04.028-.062a.077.077,0,0,0,0-.062c-.01-.065-.016-.123-.021-.174s.026-.1.091-.146a.105.105,0,0,0,.021-.09.241.241,0,0,1,.007-.1q.069-.236.118-.472a2.067,2.067,0,0,1,.159-.472.784.784,0,0,0,.049-.235.6.6,0,0,1,.062-.236,4.546,4.546,0,0,0,.208-.6q.083-.305.194-.611.084-.249.16-.5t.16-.486q.069-.208.132-.409t.146-.4q.069-.18.125-.354t.125-.354q.069-.167.125-.34c.037-.115.079-.233.125-.354a1.437,1.437,0,0,1,.1-.209.3.3,0,0,0,.028-.222.62.62,0,0,0,.146-.277,1.26,1.26,0,0,1,.1-.291.7.7,0,0,0,.111-.319.4.4,0,0,1,.1-.209.147.147,0,0,1,.028-.041.062.062,0,0,0,.013-.042,1.264,1.264,0,0,1,.111-.368,3.855,3.855,0,0,0,.152-.368,3.016,3.016,0,0,0,.118-.3,1.862,1.862,0,0,1,.132-.3,1.513,1.513,0,0,0,.069-.16c.018-.05.037-.113.056-.187a1.3,1.3,0,0,1-.18.014.407.407,0,0,0-.153.028,1.505,1.505,0,0,1-.444.146,3.553,3.553,0,0,0-.458.1.973.973,0,0,1-.236.028.97.97,0,0,0-.236.028,1.348,1.348,0,0,1-.437-.014q-.2-.042-.423-.083a.535.535,0,0,1-.333-.18.858.858,0,0,1-.118-.146.88.88,0,0,0-.118-.146.451.451,0,0,1-.076-.125.174.174,0,0,1,.02-.139.08.08,0,0,0,.015-.056.649.649,0,0,1,0-.423,3.712,3.712,0,0,1,.166-.382.523.523,0,0,1,.721-.263.255.255,0,0,1,.18.152.27.27,0,0,1-.028.236,1.378,1.378,0,0,1-.146.236.507.507,0,0,1-.215.152.258.258,0,0,0-.181.194.219.219,0,0,0,.1.25,1.485,1.485,0,0,0,.347.173.732.732,0,0,0,.388.021.347.347,0,0,1,.194,0h.118a.115.115,0,0,0,.09-.056.08.08,0,0,1,.083-.028.651.651,0,0,0,.409-.076.829.829,0,0,1,.409-.1.288.288,0,0,0,.146-.069.416.416,0,0,1,.146-.083,1.606,1.606,0,0,0,.381-.1c.125-.051.248-.1.368-.16q.25-.11.5-.2t.5-.2a1.676,1.676,0,0,1,.3-.1.822.822,0,0,0,.284-.132.5.5,0,0,0,.347-.069.859.859,0,0,1,.333-.125,1.53,1.53,0,0,0,.354-.069c.115-.037.229-.074.34-.111a1.669,1.669,0,0,1,.36-.069.9.9,0,0,0,.361-.111.465.465,0,0,1,.236-.049.9.9,0,0,0,.25-.021,3.38,3.38,0,0,1,.625-.1c.2-.014.412-.03.625-.049q.374-.014.743.007a3.1,3.1,0,0,1,.728.132,1.309,1.309,0,0,1,.284.146.839.839,0,0,1,.229.243.344.344,0,0,1,.083.25.564.564,0,0,1-.083.236.3.3,0,0,1-.194.139.509.509,0,0,1-.236,0l-.444-.083a1.312,1.312,0,0,1-.417-.153c-.047-.019-.074-.023-.083-.014a.3.3,0,0,1-.25.028,1.251,1.251,0,0,0-.236-.056.614.614,0,0,1-.132-.013.22.22,0,0,0-.132.013.513.513,0,0,1-.264-.013.16.16,0,0,0-.18,0,.193.193,0,0,1-.139.042,1.963,1.963,0,0,0-.5.055.333.333,0,0,1-.194,0,.216.216,0,0,1-.056-.007.079.079,0,0,0-.055.007,1.838,1.838,0,0,1-.382.118c-.124.023-.252.053-.381.09l-.257.056a.748.748,0,0,0-.243.1.2.2,0,0,1-.083.028.355.355,0,0,0-.25.035.593.593,0,0,1-.222.076,1.9,1.9,0,0,0-.32.083,1.834,1.834,0,0,1-.3.084.9.9,0,0,0-.361.153.569.569,0,0,0-.208.347,3.56,3.56,0,0,1-.139.4c-.055.134-.116.266-.18.4a.025.025,0,0,0-.028.028.968.968,0,0,1-.1.374,3.254,3.254,0,0,0-.153.361c-.046.129-.09.255-.132.374s-.086.241-.132.361q-.07.222-.146.43c-.051.139-.1.282-.146.43q-.139.361-.25.714t-.236.715c-.055.148-.1.294-.146.437s-.085.289-.132.437c-.047.129-.088.262-.125.4s-.078.266-.125.4q-.069.236-.146.458t-.146.458c-.019.056-.039.114-.062.174a.4.4,0,0,0-.021.2.284.284,0,0,1-.056.153.434.434,0,0,0-.07.18c-.037.139-.074.275-.111.409s-.078.266-.124.4a1.412,1.412,0,0,0-.07.333.625.625,0,0,1-.125.319.284.284,0,0,0-.027.167,1,1,0,0,1-.014.166,1.09,1.09,0,0,1-.042.166,3.487,3.487,0,0,0-.1.659,6.852,6.852,0,0,0-.007.687,1.259,1.259,0,0,0,.194.666.615.615,0,0,0,.451.292.647.647,0,0,0,.548-.139,2.73,2.73,0,0,0,.437-.423,3.394,3.394,0,0,0,.34-.507,3.094,3.094,0,0,0,.208-.451,1.983,1.983,0,0,1,.236-.451.352.352,0,0,0,.014-.125.183.183,0,0,1,.069-.153.844.844,0,0,0,.111-.069.094.094,0,0,1,.125.014.122.122,0,0,1,.07.1.357.357,0,0,1-.028.132c-.055.157-.109.314-.159.472a4.071,4.071,0,0,1-.187.472c-.047.1-.091.2-.132.3a.981.981,0,0,1-.173.271.033.033,0,0,0-.021.041.08.08,0,0,1-.007.056.356.356,0,0,1-.042.1.314.314,0,0,0-.2.18.4.4,0,0,1-.16.195,2.739,2.739,0,0,1-.43.291c-.1.056-.2.106-.306.153a.835.835,0,0,1-.347.069.832.832,0,0,0-.215.028.84.84,0,0,1-.215.028c-.083-.01-.166-.023-.25-.042l-.25-.056c-.047-.018-.07-.033-.07-.042-.138-.111-.278-.217-.416-.319a1.272,1.272,0,0,1-.347-.388.03.03,0,0,0-.007-.021.028.028,0,0,1-.007-.021.558.558,0,0,0-.069-.326.942.942,0,0,1-.111-.313c-.009-.046-.018-.086-.028-.118A.2.2,0,0,1,2948.748-520.546Zm.194-.208c-.009,0-.013,0-.013.014l.028.028a.037.037,0,0,1,.014-.028C2948.951-520.74,2948.941-520.745,2948.941-520.754Zm.014.18a.038.038,0,0,0-.028.014l.013.014.028-.014A.012.012,0,0,1,2948.956-520.574Zm.042-.971c-.009,0-.014,0-.014.007s0,.007-.013.007a.056.056,0,0,0,.076.021.063.063,0,0,1,.076.007l.041.041.042-.041a.106.106,0,0,1,.014.041.041.041,0,0,0,.014.028.059.059,0,0,0,.042.014c.009.028,0,.049-.035.063s-.03.035.007.062a.058.058,0,0,0,.042.013.4.4,0,0,1,.083-.069.238.238,0,0,1-.028-.069h-.069c0-.018,0-.028.014-.028a.078.078,0,0,0,.055-.028.078.078,0,0,1,.056-.028l.042.041h.055v.083h.1l-.021-.042a.093.093,0,0,1-.007-.042h-.069c-.028-.028-.037-.041-.028-.041h-.069c.009-.028,0-.042-.028-.042Zm.028.569q-.042.042.014.1a.043.043,0,0,1,.027-.041.045.045,0,0,0,.028-.042A.148.148,0,0,0,2949.025-520.976Zm0,.222q-.042.041.014.083a.032.032,0,0,1,.027-.035q.028-.007.028-.049Zm.056-10.976a.293.293,0,0,0,.069-.055.081.081,0,0,1-.014-.056c-.037-.018-.062-.018-.076,0a.434.434,0,0,1-.048.056C2949.048-531.749,2949.071-531.73,2949.081-531.73Zm0,11.365a.074.074,0,0,1,.028-.035.1.1,0,0,0,.027-.021.083.083,0,0,0-.125,0,.094.094,0,0,0,.028.021A.236.236,0,0,1,2949.081-520.366Zm.014-.236c0,.037.009.055.028.055a.081.081,0,0,0,.035-.028.069.069,0,0,1,.034-.028A.067.067,0,0,0,2949.094-520.6Zm.069-1.471-.014.028.014.014a.04.04,0,0,1,.014-.028A.012.012,0,0,0,2949.164-522.073Zm.056,2.345a.057.057,0,0,0-.042-.014.025.025,0,0,0-.028.028q.028.069.069,0Zm.055-12.71-.042-.042a.166.166,0,0,0-.041-.028.149.149,0,0,0,.013.139.127.127,0,0,1,.035-.014.1.1,0,0,0,.035-.014Zm-.013.763c0-.009,0-.014.013-.014a.04.04,0,0,0-.028-.014.013.013,0,0,0-.014.014Zm.1,9.921a.7.7,0,0,0-.083-.014c-.01,0-.023.009-.042.028a.077.077,0,0,1,.035.028.1.1,0,0,0,.021.028.207.207,0,0,1,.042-.035A.075.075,0,0,0,2949.358-521.754Zm-.125,1.416.014.013c.01,0,.014,0,.014-.007s0-.006.013-.006l-.013-.014A.038.038,0,0,0,2949.233-520.338Zm0,.083c.028.047.056.047.083,0A.053.053,0,0,0,2949.233-520.255Zm.056-2.178a.127.127,0,0,0,0,.139A.087.087,0,0,0,2949.289-522.433Zm.069-.056c-.028-.037-.055-.037-.083,0A.052.052,0,0,0,2949.358-522.489Zm.125-10.31c-.037-.028-.083-.023-.139.014.056.009.088.014.1.014S2949.464-532.78,2949.483-532.8Zm-.125.1c.019,0,.028,0,.028.014l.014-.014c0-.009-.009-.014-.028-.014Zm.042.083a.066.066,0,0,0,.1,0A.067.067,0,0,0,2949.4-532.619Zm.042,1.124a.057.057,0,0,1-.042.014l.028.028.028-.028C2949.446-531.481,2949.441-531.485,2949.441-531.494Zm.027.18q.042-.069,0-.1a.064.064,0,0,0-.027.007.094.094,0,0,1-.042.007.2.2,0,0,1,.014.083Zm-.069,11.378a.061.061,0,0,0,.1-.014.025.025,0,0,0-.007-.021.06.06,0,0,1-.007-.035.193.193,0,0,0-.083.014Zm.069-2.762a.013.013,0,0,1-.014.014.04.04,0,0,0,.014.028.012.012,0,0,0,.014-.014Zm.1-9.769a.126.126,0,0,0-.027-.021.11.11,0,0,1-.028-.021.042.042,0,0,0-.014.028.042.042,0,0,1-.014.028l.07.069a.123.123,0,0,1,.062-.035.119.119,0,0,0,.062-.035.082.082,0,0,1-.013-.056.192.192,0,0,0-.049.035A.038.038,0,0,1,2949.566-532.466Zm.056-.263a.046.046,0,0,1-.049,0c-.013-.009-.026,0-.034.028A.07.07,0,0,0,2949.622-532.729Zm-.027,8.894a1.251,1.251,0,0,1-.056.125.1.1,0,0,0,.125-.083c.009-.009,0-.023-.014-.042Zm-.028,1.332a.04.04,0,0,0-.027.014l.014.014a.04.04,0,0,1,.028-.014A.012.012,0,0,0,2949.566-522.5Zm-.027,1.318.027.028.014-.014c-.009,0-.014-.009-.014-.028-.009,0-.013,0-.013.007S2949.547-521.184,2949.539-521.184Zm.069,1.623a.3.3,0,0,1,.056-.083.031.031,0,0,1-.021-.007.053.053,0,0,0-.034-.007.537.537,0,0,0-.055.083h.013c.009,0,.014,0,.014.007S2949.589-519.561,2949.608-519.561Zm.042-11.767.056-.028a.641.641,0,0,0,.069-.042.493.493,0,0,0-.208.014.165.165,0,0,1,.042.028A.157.157,0,0,0,2949.649-531.328Zm.014,11.378a.045.045,0,0,0-.042-.028.024.024,0,0,0-.027.028.024.024,0,0,0,.027.028.027.027,0,0,0,.021-.007.031.031,0,0,1,.021-.007Zm-.056.472a.012.012,0,0,1,.014-.014.041.041,0,0,0-.014-.028c-.01,0-.014,0-.014.014Zm.014-1.887a.072.072,0,0,1,0,.062c-.009.014,0,.03.014.049.019,0,.046-.019.083-.056a.056.056,0,0,0-.007-.028.066.066,0,0,1-.007-.028Zm0-11.364.083.041a.136.136,0,0,0-.014-.139.121.121,0,0,1-.035.014.137.137,0,0,0-.035.013Zm.042,11.267c-.038,0-.042.014-.014.042,0-.009.009-.023.027-.042.037,0,.042-.014.014-.041C2949.691-521.495,2949.682-521.481,2949.664-521.462Zm-.028-1.97a.028.028,0,0,0,.007.021.027.027,0,0,1,.007.021c0-.009,0-.014.007-.014s.007,0,.007-.013l-.014-.028C2949.649-523.437,2949.645-523.433,2949.635-523.433Zm.125.888c-.037-.037-.069-.033-.1.014a.08.08,0,0,1,.013.055.164.164,0,0,0,.042-.028Zm-.1.624a.038.038,0,0,1,.027.014.039.039,0,0,1,.028-.014.058.058,0,0,0-.042-.014Zm0,2.109a.067.067,0,0,0,.1,0,.058.058,0,0,0-.007-.028.093.093,0,0,1-.007-.042.193.193,0,0,1-.083.014Zm.055-2.872a.06.06,0,0,0,.014.083h.084a.211.211,0,0,0,.055-.041.282.282,0,0,0,.048.041c.014.01.03,0,.048-.028a.056.056,0,0,0,.014-.042.287.287,0,0,1-.1-.048.1.1,0,0,0-.118.007.012.012,0,0,1-.014.013A.04.04,0,0,0,2949.719-522.683Zm0,2.747.014.014c0-.009.01-.014.028-.014l-.014-.014C2949.728-519.95,2949.719-519.945,2949.719-519.936Zm.056-2.414c.009,0,.014,0,.014-.007s0-.007.014-.007l-.014-.014a.04.04,0,0,0-.028.014Zm.028-1.124c0,.037,0,.056.014.056s.018.013.055.013l.014-.028-.056-.055A.039.039,0,0,1,2949.8-523.474Zm.111,3.108q.027-.055,0-.076a.457.457,0,0,1-.056-.048.12.12,0,0,0-.055.014.12.12,0,0,1,.034.056.12.12,0,0,0,.035.055Zm-.042.527a.053.053,0,0,0,0-.083C2949.825-519.894,2949.825-519.866,2949.872-519.839Zm-.028-4.857c.019.009.039.018.062.028a.432.432,0,0,1,.076.042.089.089,0,0,1,0-.069.046.046,0,0,0-.014-.056.115.115,0,0,0-.125.014Zm.028,5.606.014-.013-.014-.028-.014.014C2949.857-519.1,2949.862-519.089,2949.872-519.089Zm.083-12.2a.076.076,0,0,0,.035-.028.07.07,0,0,1,.035-.028.086.086,0,0,0-.138,0,.062.062,0,0,1,.034.035A.032.032,0,0,0,2949.955-531.286Zm-.056,10.726.014.028c0-.009,0-.014.013-.014a.039.039,0,0,0-.013-.028Zm.056-3.9a.073.073,0,0,0,.035-.028.176.176,0,0,1,.035-.042.029.029,0,0,0-.007-.021.053.053,0,0,1-.007-.035h-.083a.122.122,0,0,1,.007.069A.057.057,0,0,0,2949.955-524.459Zm-.028,4.982v.069a.515.515,0,0,1,.125.056l.028-.028a.012.012,0,0,0,.014-.014l-.042-.083Zm.042.306a.039.039,0,0,1,.014-.028c-.019,0-.028,0-.028-.014s-.014,0-.014.007,0,.007-.014.007c.01.009.016.014.021.014S2949.959-519.182,2949.968-519.172Zm0-4.33c0-.009,0-.014-.006-.014s-.007,0-.007-.014l-.014.014c0,.009,0,.014.007.014s.007,0,.007.014Zm.042-1.651a.04.04,0,0,0-.028.014.012.012,0,0,0,.014.014l.028-.014A.012.012,0,0,1,2950.01-525.153Zm.028-.222a.1.1,0,0,0,0,.125h.07v-.056a.179.179,0,0,1-.035-.041A.081.081,0,0,0,2950.038-525.375Zm.083,6.2a.212.212,0,0,0-.028-.083.061.061,0,0,0-.069.069.53.53,0,0,0,.055.049.572.572,0,0,1,.056.048.483.483,0,0,0,.062-.069c0-.009,0-.028-.02-.055A.239.239,0,0,1,2950.121-519.172Zm-.069.166.014-.013c-.01,0-.014,0-.014-.007s0-.007-.014-.007l-.013.014A.042.042,0,0,0,2950.052-519.006Zm.042-2.941a.085.085,0,0,0-.028.062v.077c-.038,0-.047.013-.028.042l.028-.028a.074.074,0,0,1,.028-.035.022.022,0,0,0,.014-.021.164.164,0,0,1,.007-.049C2950.119-521.913,2950.112-521.929,2950.094-521.947Zm-.014-2.373q-.055.028,0,.083h.014c.046-.018.046-.042,0-.069C2950.094-524.316,2950.089-524.32,2950.079-524.32Zm.069-.694c.009,0,.028-.014.056-.042a.158.158,0,0,0-.069-.014.111.111,0,0,0-.035.056.127.127,0,0,1-.035.055.065.065,0,0,1,.035.035c0,.014.016.02.035.02a.057.057,0,0,0,.021-.055A.225.225,0,0,1,2950.149-525.014Zm-.013-.583-.056.056a.315.315,0,0,0,.042.069c.064.009.088-.009.069-.055A.317.317,0,0,0,2950.135-525.6Zm0-.139c-.038.037-.038.069,0,.1A.068.068,0,0,0,2950.135-525.736Zm.1-5.634a.09.09,0,0,1-.062.007.066.066,0,0,0-.062.021.077.077,0,0,1,.034.028.17.17,0,0,0,.035.042.053.053,0,0,0,.034-.007.027.027,0,0,1,.021-.007Zm-.125,8.173a.067.067,0,0,0,.1,0A.067.067,0,0,0,2950.108-523.2Zm.111-.153a.067.067,0,0,0,0-.1.065.065,0,0,0-.028.006.059.059,0,0,1-.028.007.046.046,0,0,0,.021.042A.112.112,0,0,1,2950.219-523.349Zm-.014-2.526c.018.028.042.028.069,0v-.014c-.028-.046-.051-.046-.069,0Zm.014,1.11c0,.009,0,.013-.014.013a.038.038,0,0,0,.014.028l.014-.014Zm.028-.9v.014a.052.052,0,0,0,.083,0l-.014-.014C2950.288-525.713,2950.265-525.713,2950.246-525.667Zm0,1.6a.1.1,0,0,0,.077.021.4.4,0,0,1,.076-.007.486.486,0,0,0,.062-.069c0-.009,0-.032-.021-.069-.018.027-.037.042-.055.042a.045.045,0,0,0-.042.028c-.018.028-.04.035-.062.021S2950.246-524.107,2950.246-524.071Zm.014.264.028-.014c-.01,0-.014,0-.014-.014a.04.04,0,0,1-.028.014C2950.246-523.812,2950.25-523.807,2950.26-523.807Zm0,4.509-.014.028.014.014a.039.039,0,0,0,.014-.028A.012.012,0,0,0,2950.26-519.3Zm0,.306-.014.028.014.014a.042.042,0,0,0,.014-.028C2950.274-518.988,2950.269-518.992,2950.26-518.992Zm.111-6.369c-.037-.037-.065-.037-.083,0,0,.009,0,.014.013.014s.014,0,.014.006,0,.007.014.007a.028.028,0,0,0,.021-.007.029.029,0,0,1,.021-.006Zm.028,2.262c.019-.018.019-.046,0-.083a.186.186,0,0,1-.083.014.338.338,0,0,1,.042.049A.046.046,0,0,0,2950.4-523.1Zm-.028-.763c-.01,0-.013,0-.013-.007s-.005-.007-.014-.007l-.014.014a.042.042,0,0,0,.028.014Zm.028-2.581a.216.216,0,0,0-.028.1.265.265,0,0,0,.014.083.308.308,0,0,0,.07-.056A.547.547,0,0,1,2950.4-526.443Zm-.014,2.04c-.018.037-.014.065.014.083h.069A.184.184,0,0,0,2950.385-524.4Zm.042-2.151c-.028.028-.028.051,0,.069h.028c.028-.028.023-.051-.014-.069Zm.1,1.554c.019-.046.019-.077,0-.09a.564.564,0,0,1-.055-.049.082.082,0,0,1-.056.014.557.557,0,0,1,.056.125Zm-.083,1.679a.3.3,0,0,0,.07-.055.067.067,0,0,0-.1,0,.052.052,0,0,1,.007.042C2950.415-523.326,2950.422-523.322,2950.44-523.322Zm.042-2.761a.128.128,0,0,0-.055.014v.1a.076.076,0,0,0,.028.035.079.079,0,0,1,.028.035h.069a.056.056,0,0,1,.042-.014.213.213,0,0,0-.042-.055l.042-.042-.042-.042a.076.076,0,0,1-.007-.055.058.058,0,0,0-.021-.056Zm.236,2.067a.176.176,0,0,0,.007-.083.381.381,0,0,1-.007-.069.081.081,0,0,0-.028-.034.07.07,0,0,1-.028-.035h-.1c-.009-.018-.016-.032-.021-.042a.089.089,0,0,1-.007-.041h-.069v.069l.055.055a.1.1,0,0,1,.028.069.34.34,0,0,1,.042.049.046.046,0,0,0,.042.021c.009.028.021.042.035.042Zm-.07-1.79a.6.6,0,0,0-.09-.013.075.075,0,0,0-.048.028l.055.055A.389.389,0,0,0,2950.648-525.805Zm-.056.4c-.009,0-.014,0-.014-.007s0-.007-.014-.007l-.014.014a.04.04,0,0,0,.028.014Zm.069.874a.075.075,0,0,1,.028-.035.075.075,0,0,0,.028-.035.1.1,0,0,0-.139,0A.391.391,0,0,1,2950.662-524.529Zm-.041.652c0-.018,0-.028.013-.028a.041.041,0,0,1-.013-.028.054.054,0,0,0-.014.042Zm.027-2.3a.125.125,0,0,0,.083-.1.077.077,0,0,0-.1-.014.06.06,0,0,1,0,.056A.045.045,0,0,0,2950.648-526.18Zm.014-.347a.1.1,0,0,0,0,.139.066.066,0,0,1,.035-.035.032.032,0,0,0,.021-.035A.3.3,0,0,1,2950.662-526.527Zm0,.874a.012.012,0,0,0,.014-.014l-.028-.014-.014.014A.039.039,0,0,0,2950.662-525.653Zm-.014.624a.041.041,0,0,1,.028-.014.04.04,0,0,0-.014-.028l-.028.028A.013.013,0,0,1,2950.648-525.028Zm.014-.444c-.028.028-.023.051.014.069h.083l.042-.042c.037.065.074.074.111.028v-.042a.3.3,0,0,1-.1-.049.118.118,0,0,0-.118-.007C2950.69-525.5,2950.681-525.491,2950.662-525.472Zm.042-5.842a.067.067,0,0,0,0-.1c-.037,0-.055.01-.055.028a.077.077,0,0,0,.028.035A.073.073,0,0,1,2950.7-531.314Zm-.027,6.494c0-.009,0-.013-.007-.013s-.007,0-.007-.014a.012.012,0,0,0-.014.014.04.04,0,0,0,.014.028Zm0-1.9a.067.067,0,0,0,.1,0,.058.058,0,0,0-.007-.035s-.007-.016-.007-.035a.1.1,0,0,0-.042.007.094.094,0,0,1-.042.007Zm.139.8a.471.471,0,0,1,.007-.09.1.1,0,0,0-.021-.076h-.083c.018.028.021.048.007.062l-.049.049a.537.537,0,0,1,.049.055C2950.739-525.9,2950.769-525.9,2950.815-525.916Zm-.125-1.11c.019.046.041.046.07,0v-.014a.1.1,0,0,1-.042-.014Zm.041,2.04a.072.072,0,0,1,0,.062c-.009.014,0,.03.014.049.018,0,.046-.018.083-.056a.065.065,0,0,0-.007-.028.06.06,0,0,1-.007-.028Zm.028-1.9c0-.018,0-.028-.014-.028l-.014.014c0,.009,0,.014.007.014s.007,0,.007.013S2950.76-526.878,2950.76-526.887Zm-.014,1.8.028-.014c-.01,0-.013,0-.013-.014a.042.042,0,0,1-.028.014A.012.012,0,0,0,2950.745-525.084Zm.111-1.457c-.028-.037-.055-.037-.083,0a.153.153,0,0,0,.014.069.161.161,0,0,1,.069-.013Zm.042-.86c-.028,0-.037.014-.028.042l.042-.042a.05.05,0,0,1,.042-.007c.009,0,.019,0,.028-.021a.21.21,0,0,1-.028-.035.046.046,0,0,0-.042-.021A.188.188,0,0,0,2950.9-527.4Zm-.014,2.637a.043.043,0,0,1,.014-.028.012.012,0,0,1-.014-.014.039.039,0,0,0-.014.028Zm.042,5.634a.321.321,0,0,0-.055.083h.014a.028.028,0,0,1,.021.007.027.027,0,0,0,.021.007.154.154,0,0,1,.028-.042.18.18,0,0,0,.028-.042.028.028,0,0,1-.021-.007A.057.057,0,0,0,2950.926-519.131Zm0-7.882a.012.012,0,0,0,.014-.014c0-.009-.009-.014-.028-.014l-.014.014A.04.04,0,0,1,2950.926-527.013Zm.069.555a.143.143,0,0,1-.007.049c0,.014,0,.03.021.048.046,0,.069-.018.069-.055a.094.094,0,0,1,.042-.083.012.012,0,0,0-.014-.014c-.037-.019-.06-.019-.069,0A.222.222,0,0,1,2951-526.457Zm.125.486a.388.388,0,0,0-.111.013v.056l.055.028.056.028a.077.077,0,0,0,.034-.028.022.022,0,0,1,.021-.014.159.159,0,0,0-.028-.041A.151.151,0,0,1,2951.121-525.972Zm-.014-5.356v-.028a.105.105,0,0,1-.021-.028.122.122,0,0,0-.021-.028.038.038,0,0,1-.027.014c0,.037,0,.056.014.056S2951.07-531.328,2951.106-531.328Zm-.069,3.941a.043.043,0,0,1,.014.028c.009,0,.013,0,.013-.014a.04.04,0,0,0-.013-.028Zm.014.347-.014.014.027.014.014-.014A.041.041,0,0,0,2951.051-527.04Zm0,1.693a.04.04,0,0,0,.028-.014l-.014-.014a.037.037,0,0,1-.027.014A.013.013,0,0,0,2951.051-525.347Zm.153-2.276a.2.2,0,0,0-.083.014.091.091,0,0,0,.007.042.1.1,0,0,1,.006.042.159.159,0,0,1,.07-.013Zm.222.513a.188.188,0,0,1-.042-.056l.042-.042-.042-.041a.043.043,0,0,0-.028-.014q-.028.125-.125.125l-.042-.042h-.056a.185.185,0,0,1,.035.042.181.181,0,0,0,.035.041h.208Zm-.236,7.9c0,.009-.009.014-.028.014a.039.039,0,0,1,.014.028l.028-.028Zm0-9.158a.061.061,0,0,0-.014.083c.028.019.051.019.069,0A.34.34,0,0,0,2951.19-528.372Zm0,1.8a.052.052,0,0,0,0-.083A.052.052,0,0,0,2951.19-526.568Zm.028-.319a.116.116,0,0,0,.125-.014.079.079,0,0,0-.014-.055h-.125A.241.241,0,0,1,2951.217-526.887Zm.014-.611a.067.067,0,0,0,0,.1.1.1,0,0,1,.035-.042.047.047,0,0,0,.021-.042A.077.077,0,0,1,2951.231-527.5Zm.027-.624.028.014.014-.014-.028-.028A.039.039,0,0,0,2951.259-528.122Zm.084.125a.053.053,0,0,0-.084,0A.053.053,0,0,0,2951.343-528Zm-.056,1.291.014-.014a.038.038,0,0,1-.028-.014c-.01,0-.014,0-.014.014Zm-.013.3q.041.056.1,0c-.009-.009-.014-.032-.014-.069a.245.245,0,0,1-.083.014Zm.028-1.9c.009,0,.014,0,.014.007s0,.007.013.007h.042a.11.11,0,0,0,.014-.042.04.04,0,0,1,.013-.027l.042-.083a.1.1,0,0,1-.042-.035.046.046,0,0,0-.042-.021.3.3,0,0,1-.055.111Zm.1-.513a.171.171,0,0,1-.048.055c-.023.018-.016.047.021.083h.028a.182.182,0,0,1,.042-.035.226.226,0,0,0,.042-.035.2.2,0,0,0-.042-.035A.207.207,0,0,1,2951.4-528.816Zm-.042,1.221.014.014a.041.041,0,0,1,.014-.028c-.01,0-.014,0-.014-.014A.04.04,0,0,0,2951.356-527.6Zm.056-.6c-.046.028-.046.056,0,.083A.052.052,0,0,0,2951.412-528.192Zm.208-1.4a.132.132,0,0,1-.076.035c-.033,0-.053.03-.062.076a.062.062,0,0,0,.069.013.139.139,0,0,1,.083,0,.079.079,0,0,1,.027-.035.069.069,0,0,0,.028-.035l-.042-.042-.013-.014Zm-.139,1.679a.08.08,0,0,0,.055.028h.056a.075.075,0,0,1,.028-.035.073.073,0,0,0,.028-.035l-.055-.028-.056-.028a.085.085,0,0,0-.035.028.094.094,0,0,1-.021.028Zm.028.472a.206.206,0,0,0,.063-.007.158.158,0,0,1,.048-.007l-.042-.042-.042-.041a.116.116,0,0,0-.013.048A.113.113,0,0,1,2951.509-527.443Zm.042-.291a.04.04,0,0,0-.014-.028.029.029,0,0,1-.006.02.029.029,0,0,0-.007.021c.009,0,.013,0,.013.014A.04.04,0,0,0,2951.55-527.734Zm.1-.083q-.041-.055-.083,0A.052.052,0,0,0,2951.647-527.817Zm-.013-3.649c.046-.018.046-.042,0-.069h-.014a.044.044,0,0,0-.028.042.024.024,0,0,0,.028.028c0,.009,0,.014.007.014S2951.634-531.457,2951.634-531.467Zm.1,2.04v-.055l-.042.042-.042.041a.028.028,0,0,0,.007.021.027.027,0,0,1,.007.021Zm.069.832a.208.208,0,0,1,.056-.041c.018-.009.023-.028.014-.056a.22.22,0,0,1-.035-.042.2.2,0,0,0-.034-.042.387.387,0,0,1-.076.042c-.023.009-.048.019-.076.028a.124.124,0,0,0,.076.07A.171.171,0,0,1,2951.8-528.595Zm-.124,1.138a.012.012,0,0,0,.013-.014l-.028-.014-.014.014A.045.045,0,0,1,2951.676-527.457Zm.042-2.275q-.07.069,0,.125a.159.159,0,0,0,.069-.013.045.045,0,0,1-.014-.056.045.045,0,0,0-.014-.055Zm.055.5c-.019-.019-.047-.019-.083,0a.193.193,0,0,1,.014.083.328.328,0,0,1,.049-.042A.048.048,0,0,0,2951.772-529.233Zm.166-.014a.077.077,0,0,0-.035.028.072.072,0,0,1-.034.028.131.131,0,0,1,.021.028.1.1,0,0,0,.021.028v.111a1.027,1.027,0,0,0-.055.125h-.111v.083h.111c0-.037.011-.051.035-.042a.053.053,0,0,0,.062-.014.77.77,0,0,1,.042-.1c-.019-.018-.028-.033-.028-.042a.04.04,0,0,0-.014-.028.083.083,0,0,1,.056-.056v-.111A.308.308,0,0,1,2951.939-529.247Zm-.139-2.3.028-.014-.014-.014a.038.038,0,0,0-.027.014Zm.042,2.442-.014.014a.042.042,0,0,1,.028.014c0-.009,0-.014.014-.014A.041.041,0,0,0,2951.842-529.108Zm.056,1.041.014-.027-.014-.014a.04.04,0,0,0-.014.028A.012.012,0,0,0,2951.9-528.067Zm.083-.513a.046.046,0,0,1,.056-.014.044.044,0,0,0,.055-.013v-.1l-.069-.069a.106.106,0,0,0-.013.042.112.112,0,0,1-.014.042.194.194,0,0,0-.035.042C2951.955-528.641,2951.962-528.617,2951.98-528.58Zm-.014-1.124.055.055.069-.069a.1.1,0,0,1-.048-.069.106.106,0,0,0-.049-.069c-.019,0-.028,0-.028.014Zm.361.638a.1.1,0,0,0,0-.139h-.083a.075.075,0,0,0-.028-.035.073.073,0,0,1-.027-.035.227.227,0,0,1-.014-.1,1.154,1.154,0,0,0-.166-.1v.125c-.038.009-.047.023-.028.042,0-.009.009-.023.028-.042l.041-.021.042-.021v.125a.109.109,0,0,0-.069.014.057.057,0,0,0-.013.042.288.288,0,0,0,.069.042l.042-.042a.125.125,0,0,1,.034.069.067.067,0,0,0,.049.056l.048-.049a.178.178,0,0,1,.049-.035.12.12,0,0,1,.013.049A.112.112,0,0,0,2952.328-529.066Zm-.319-1.138c0,.01,0,.014.006.014s.007,0,.007.014a.013.013,0,0,0,.014-.014.041.041,0,0,0-.014-.027Zm.069,1.832c0-.009,0-.014.006-.014s.007,0,.007-.014a.039.039,0,0,1-.028-.014l-.014.014Zm.014-2.553h.069a.168.168,0,0,1,.049.007c.014,0,.03,0,.049-.021v-.07h-.028a.678.678,0,0,0-.069.028.492.492,0,0,1-.069.028Zm.056.472c.018,0,.028,0,.028-.013l-.014-.014a.04.04,0,0,1-.027.014A.012.012,0,0,0,2952.147-530.454Zm0,10.282c-.009,0-.009,0,0,.014.018.046.042.046.069,0v-.014a.056.056,0,0,0-.042-.014C2952.156-520.186,2952.147-520.181,2952.147-520.172Zm.028-9.838a.039.039,0,0,1-.014-.028c-.009,0-.013,0-.013.014l.013.028A.013.013,0,0,1,2952.175-530.01Zm.139-.8a.067.067,0,0,0-.1,0A.067.067,0,0,0,2952.313-530.815Zm-.013.153a.126.126,0,0,1,.013-.056c-.009,0-.013,0-.013-.013l-.014-.014c-.037.019-.037.047,0,.083Zm-.014.264a.041.041,0,0,0,.014-.028l-.014-.014c0,.009,0,.014-.007.014s-.007,0-.007.014Zm.125-.25c-.028.028-.028.051,0,.069h.014c.046-.018.046-.042,0-.069Zm.111.194a.128.128,0,0,0-.1-.083c-.037.018-.042.051-.014.1a.059.059,0,0,1,.056,0A.045.045,0,0,0,2952.522-530.454Zm-.042-1.262a.379.379,0,0,0-.083.069.066.066,0,0,0,.1,0A.161.161,0,0,1,2952.48-531.716Zm-.028,1.318a.09.09,0,0,0-.014.083.09.09,0,0,1,0,.07l.07.069c.028-.028.034-.049.021-.063l-.048-.048a.049.049,0,0,1,.006-.056C2952.5-530.361,2952.489-530.38,2952.452-530.4Zm.07.541a.059.059,0,0,0-.042-.014c-.019,0-.028,0-.028.014s.009.023.028.042c.008-.009.016-.014.02-.014s.011,0,.021-.014Zm.041-1.291c-.037.028-.041.056-.013.083a.035.035,0,0,0,.055,0Zm0,1.4.014-.014a.039.039,0,0,1-.027-.014c-.009,0-.014,0-.014.014Zm.056-1.179a.028.028,0,0,0-.007-.021.028.028,0,0,1-.007-.021l-.028.028c.019.019.014.035-.014.048s-.032.03-.013.049h.069Zm.013.361c-.046.028-.046.051,0,.069h.014c0-.009,0-.014.007-.014s.007-.009.007-.027a.013.013,0,0,1-.014-.014Zm.111-.5a.191.191,0,0,1-.083.014.091.091,0,0,1,0,.069c-.009.019,0,.037.028.055l.069-.069A.111.111,0,0,1,2952.743-531.064Zm.042-.819c-.037-.018-.062-.018-.076,0a.431.431,0,0,1-.048.056c.019.009.039.018.062.028l.062.028A.225.225,0,0,0,2952.785-531.883Zm-.013,1.124a.076.076,0,0,0,.035-.028.074.074,0,0,1,.035-.028l-.069-.069a.112.112,0,0,1-.035.042.047.047,0,0,0-.021.042.11.11,0,0,0,.028.02A.13.13,0,0,1,2952.772-530.759Zm.042-.555c.037.018.067.033.09.042a.186.186,0,0,1,.063.042.027.027,0,0,0,.021-.007s.016-.007.035-.007a.154.154,0,0,1-.014-.069Zm.041.208.028-.028a.041.041,0,0,1-.028-.014c0,.019,0,.028-.013.028A.012.012,0,0,0,2952.854-531.106Zm.139.083c.037-.018.041-.042.014-.069h-.028c-.027.028-.027.051,0,.069Zm.236-.513a.282.282,0,0,1-.07-.007.057.057,0,0,0-.055.021.157.157,0,0,0,.014.069h.125A.271.271,0,0,1,2953.229-531.536Zm-.014-.486c-.038.037-.056.06-.056.069a.1.1,0,0,1,.021.028.076.076,0,0,0,.035.028c.037,0,.055-.023.055-.069Zm.18,0c-.046.019-.069.047-.069.083s.028.055.083.028a.215.215,0,0,1,.007-.055A.059.059,0,0,0,2953.4-532.022Zm.583-.527c-.047,0-.074.009-.083.028a.156.156,0,0,1,.042.028.056.056,0,0,0,.042.014v-.069c.028-.018.037-.033.028-.042S2954-532.586,2953.979-532.549Zm.042.18c.028-.018.037-.032.028-.042l-.028.027c-.01,0-.024.009-.042.028a.039.039,0,0,1,.006.056q-.02.028.021.055l.069-.069-.042-.042Zm.1-.083a.04.04,0,0,1,.014.028.041.041,0,0,0,.028-.014l-.028-.028Zm.305-.167a.068.068,0,0,0-.1,0,.046.046,0,0,1,.014.056.045.045,0,0,0,.014.055h.111c.009-.037.009-.06,0-.07Zm.138-.11a.086.086,0,0,0-.1-.028c.018.028.035.037.049.028A.046.046,0,0,1,2954.562-532.729Zm.028.263a.115.115,0,0,1,.014-.055.012.012,0,0,1-.014-.014l-.014-.014q-.069.042,0,.069C2954.575-532.47,2954.58-532.466,2954.589-532.466Zm.028-.3a.3.3,0,0,1-.07.055l.07.069h.1a.876.876,0,0,0,.063-.083c0-.009,0-.023-.021-.042Zm.069.374-.013-.014c-.028-.018-.051-.018-.069,0v.014Q2954.659-532.341,2954.686-532.4Zm.236-.333c0,.009,0,.014-.007.014s-.007,0-.007.014a.042.042,0,0,1,.028.014l.014-.014Zm.541-.083a.042.042,0,0,0-.028.013l.028.028a.012.012,0,0,1,.014-.014A.038.038,0,0,1,2955.463-532.812Zm.236.028c-.056.037-.083.069-.083.1s-.007.032.007.042a.025.025,0,0,0,.035,0,.348.348,0,0,1,.153-.042.057.057,0,0,0,.021-.055c0-.018,0-.028.021-.028a.215.215,0,0,1,.056.042.153.153,0,0,1,.014-.07.046.046,0,0,0-.014-.055c-.028-.018-.047-.021-.056-.007a.1.1,0,0,1-.041.035.429.429,0,0,0-.049-.042.266.266,0,0,1-.049-.042.049.049,0,0,0-.055.056c0,.018,0,.03.014.035A.081.081,0,0,1,2955.7-532.785Zm.152-.347a.145.145,0,0,1-.027.041l-.042.042a.764.764,0,0,0,.083.014c.009,0,.023-.009.042-.028A.29.29,0,0,0,2955.852-533.132Zm.222.194c-.037.019-.041.042-.013.069h.013c.037-.018.042-.042.014-.069Zm.042-.236c-.037.037-.037.069,0,.1A.067.067,0,0,0,2956.115-533.173Zm.222-.083a.046.046,0,0,1-.049,0c-.013-.009-.03,0-.048.014a.033.033,0,0,0,.021.035.062.062,0,0,1,.035.035.789.789,0,0,1,.042.1.558.558,0,0,0,.056-.125Zm.666.042c-.047-.009-.069.014-.069.069a.277.277,0,0,0,.069.055A.1.1,0,0,0,2957-533.215Zm.1.194a.045.045,0,0,0-.042-.027.024.024,0,0,0-.028.027l.014.014a.012.012,0,0,0,.014.014.028.028,0,0,0,.021-.007.029.029,0,0,1,.021-.007Zm.056-.263a.039.039,0,0,1,.013.028.012.012,0,0,0,.014-.014c0-.019,0-.028-.014-.028Zm.125.222c-.046-.047-.069-.047-.069,0l.027.028a.058.058,0,0,1,.042-.014Zm.763-.236c0,.009,0,.014-.014.014a.041.041,0,0,0,.028.014c.009,0,.014,0,.014-.014Zm.208.056c-.037-.018-.065-.018-.083,0v.083l.042-.042a.048.048,0,0,1,.035-.014C2958.26-533.215,2958.262-533.224,2958.253-533.243Zm-.069.166a.012.012,0,0,0-.014.014c0,.009.009.014.027.014l.014-.014A.039.039,0,0,1,2958.184-533.076Zm.18-.222a.567.567,0,0,0-.049.056.074.074,0,0,1-.062.028c.028.046.051.06.07.042l.049-.049a.15.15,0,0,1,.062-.035c0,.037.013.047.042.027a.257.257,0,0,0-.056-.042v.014C2958.4-533.3,2958.382-533.317,2958.364-533.3Zm-.028.375-.014-.028-.014.014c0,.019,0,.028.014.028Zm.333-.153-.028.055-.028.056c.019.019.035.026.049.021a.156.156,0,0,1,.048-.007.488.488,0,0,1,.056-.049q.028-.021,0-.076Zm.125-.166c-.009,0-.014.009-.014.028a.058.058,0,0,0,.014.042h.014a.06.06,0,0,0,.013-.042C2958.821-533.252,2958.812-533.261,2958.794-533.243Zm.138-.014c0,.009,0,.014-.007.014s-.007,0-.007.013l.013.014a.041.041,0,0,0,.014-.028Zm.167-.111a.338.338,0,0,0-.091-.028.076.076,0,0,0-.049.028l.07.069A.229.229,0,0,1,2959.1-533.368Zm.111.291a.041.041,0,0,0-.028.014.012.012,0,0,0,.014.014l.028-.014C2959.215-533.062,2959.21-533.067,2959.21-533.076Zm.152-.222a.271.271,0,0,1-.055.069.238.238,0,0,1,.069.069.623.623,0,0,0,.014-.09A.078.078,0,0,0,2959.362-533.3Zm.139.125q-.07,0-.056.069l.056.055.055.056a.232.232,0,0,0,.07-.014l-.083-.083Zm.139.4c-.047.046-.07.074-.07.083s.009.023.028.042a.05.05,0,0,1,.049-.028.086.086,0,0,0,.062-.028.153.153,0,0,1-.014-.069Z" transform="translate(-2948.694 533.637)" fill="#416059"/>
            <path id="Path_1676" data-name="Path 1676" d="M2998.156-511.936a.07.07,0,0,1,.09.049.152.152,0,0,1-.021.132,3.886,3.886,0,0,1-.236.388q-.222.278-.444.541t-.43.542q-.139.167-.284.319a1.746,1.746,0,0,0-.257.347.329.329,0,0,0-.159.167.329.329,0,0,1-.16.166c-.037.01-.064.047-.083.111a.221.221,0,0,1-.1.125.18.18,0,0,0-.138.153.064.064,0,0,1-.042.069.788.788,0,0,0-.208.2,1.219,1.219,0,0,1-.195.215,2.272,2.272,0,0,0-.228.236.884.884,0,0,1-.257.208.1.1,0,0,0-.042.035.324.324,0,0,1-.042.049,2.5,2.5,0,0,1-.437.305,1.167,1.167,0,0,1-.506.139.229.229,0,0,1-.278-.194,2.56,2.56,0,0,0-.069-.25.474.474,0,0,1,0-.277.174.174,0,0,0,.014-.118.58.58,0,0,1-.014-.118c0-.065,0-.129.007-.194a.256.256,0,0,1,.077-.166.063.063,0,0,0,.014-.069,1.865,1.865,0,0,1,.111-.715q.125-.34.236-.687a4.818,4.818,0,0,1,.417-.944,1.947,1.947,0,0,0,.159-.306,1.186,1.186,0,0,1,.174-.291.085.085,0,0,0,.028-.062.138.138,0,0,1,.013-.062.078.078,0,0,0,.007-.056.033.033,0,0,1,.021-.042.288.288,0,0,0,.152-.187.309.309,0,0,1,.125-.187.2.2,0,0,0-.139.021l-.125.076a.792.792,0,0,0-.187.16.447.447,0,0,1-.187.132.054.054,0,0,0-.055.042,1.31,1.31,0,0,1-.292.305,2.991,2.991,0,0,0-.319.278c-.093.093-.183.185-.271.277s-.173.185-.257.278q-.1.111-.195.243c-.064.088-.125.178-.18.271a1.942,1.942,0,0,0-.125.236.408.408,0,0,1-.181.194.079.079,0,0,0-.028.055.233.233,0,0,1-.028.194l-.111.167a.568.568,0,0,0-.083.25.68.68,0,0,1-.139.333,1.379,1.379,0,0,1-.263.25.306.306,0,0,1-.278.069,1.038,1.038,0,0,1-.25-.125.242.242,0,0,1-.125-.173.42.42,0,0,1,.014-.187,2.086,2.086,0,0,0,.062-.444,1,1,0,0,1,.1-.416.407.407,0,0,0,.042-.187.886.886,0,0,1,.028-.215c.037-.158.078-.31.125-.458a2.55,2.55,0,0,0,.1-.458,1.818,1.818,0,0,1,.1-.437,1.88,1.88,0,0,0,.1-.437.257.257,0,0,1,.048-.153.36.36,0,0,0,.063-.153,3.584,3.584,0,0,1,.111-.458c.046-.148.092-.3.138-.458.037-.12.07-.236.1-.347a1.1,1.1,0,0,1,.139-.32.121.121,0,0,0,.014-.125.2.2,0,0,0-.007-.056.077.077,0,0,1,.007-.055,1.831,1.831,0,0,0,.284-.569,3.291,3.291,0,0,1,.243-.6q.11-.194.222-.4a2.3,2.3,0,0,0,.18-.423.507.507,0,0,1,.062-.1.984.984,0,0,0,.063-.083.92.92,0,0,1,.055-.1.17.17,0,0,0,.028-.1.115.115,0,0,1,.027-.083,2.364,2.364,0,0,0,.375-.527,2.372,2.372,0,0,1,.375-.527,2.688,2.688,0,0,0,.215-.243,1.908,1.908,0,0,1,.229-.243,2.254,2.254,0,0,1,.2-.18,1.045,1.045,0,0,1,.229-.139.58.58,0,0,1,.5-.021.5.5,0,0,1,.278.381,1.765,1.765,0,0,1,.027.535,2.737,2.737,0,0,1-.111.52,2.185,2.185,0,0,1-.1.284c-.037.088-.074.173-.111.257a1.286,1.286,0,0,1-.139.277,2.627,2.627,0,0,0-.153.264,1.539,1.539,0,0,1-.131.277c-.051.083-.1.167-.146.25-.055.1-.113.2-.173.3s-.127.2-.2.305c-.083.12-.162.245-.236.375a2.452,2.452,0,0,1-.264.374.526.526,0,0,0-.083.146.207.207,0,0,1-.125.118.108.108,0,0,0-.042.1.109.109,0,0,1-.1.125.109.109,0,0,0-.083.111.178.178,0,0,1-.125.153l-.028.028a.3.3,0,0,1-.111.173.6.6,0,0,0-.139.146,1.854,1.854,0,0,1-.222.285,2.793,2.793,0,0,0-.236.284.105.105,0,0,1-.035.042.109.109,0,0,0-.035.042.682.682,0,0,1-.1.291.691.691,0,0,0-.1.3.991.991,0,0,1-.063.25,1.649,1.649,0,0,0-.076.264.575.575,0,0,0-.028.18.2.2,0,0,1-.111.167.063.063,0,0,0-.014.069.179.179,0,0,0,.042.069c.009.009.037,0,.083-.028a.768.768,0,0,0,.194-.174,2.451,2.451,0,0,1,.181-.2.2.2,0,0,0,.042-.062.082.082,0,0,1,.055-.049.5.5,0,0,0,.208-.18.722.722,0,0,1,.181-.194c.12-.1.234-.2.34-.3s.22-.2.34-.305c.074-.056.146-.111.215-.166s.141-.111.215-.167a2.329,2.329,0,0,1,.722-.417.517.517,0,0,1,.118-.041l.132-.028a.386.386,0,0,1,.312.069.356.356,0,0,1,.118.291c0,.074,0,.148-.007.222a.224.224,0,0,1-.118.18l-.014.014a.3.3,0,0,1-.021.167,1.149,1.149,0,0,1-.077.152c-.027.047-.053.1-.076.146a.672.672,0,0,0-.048.16.367.367,0,0,1-.056.132.746.746,0,0,0-.069.132c-.028.083-.058.166-.09.25s-.063.166-.09.25q-.07.18-.139.354t-.138.354c-.019.074-.04.148-.063.222a.722.722,0,0,1-.1.208.217.217,0,0,0-.042.055,1.179,1.179,0,0,1-.117.451,1.4,1.4,0,0,0-.132.451,2.313,2.313,0,0,1-.069.284,2.356,2.356,0,0,0-.07.284,1.06,1.06,0,0,0,0,.236.083.083,0,0,0,.083-.014l.055-.055q.236-.223.458-.451t.43-.465q.167-.18.333-.368t.319-.368q.194-.236.388-.451a4.789,4.789,0,0,0,.361-.451,1.113,1.113,0,0,1,.194-.243.842.842,0,0,0,.18-.243,1.247,1.247,0,0,1,.236-.312.824.824,0,0,0,.208-.326.207.207,0,0,1,.132-.125A1.237,1.237,0,0,1,2998.156-511.936Zm-6.521,2.886c.027-.046.023-.079-.014-.1A.08.08,0,0,0,2991.635-509.049Zm.1-.153a.065.065,0,0,1,.007-.028.057.057,0,0,0,.007-.028l-.014-.014a.041.041,0,0,0-.028.014v.055Zm.1-.985a.052.052,0,0,0-.083,0A.052.052,0,0,0,2991.829-510.187Zm.042.305a.051.051,0,0,0-.083,0Q2991.829-509.813,2991.87-509.882Zm.014.18a.066.066,0,0,0-.1,0c0,.037.009.06.028.069Zm-.055-.708a.124.124,0,0,0,.035.014.157.157,0,0,1,.035.013.076.076,0,0,0,.035-.028.174.174,0,0,1,.035-.042l-.042-.042a.327.327,0,0,1,.055-.069.184.184,0,0,0-.1.014v.1A.224.224,0,0,0,2991.829-510.41Zm.167-.333h.083l-.042-.083a.121.121,0,0,1-.063.035.122.122,0,0,0-.062.035.078.078,0,0,1,.014.055A.3.3,0,0,0,2992-510.743Zm0,.389.014-.014c-.01,0-.014,0-.014-.007s0-.007-.014-.007l-.013.014A.04.04,0,0,0,2992-510.354Zm.014-.153a.112.112,0,0,1,.048-.014.115.115,0,0,0,.049-.013.112.112,0,0,1-.014-.042.114.114,0,0,0-.014-.042.156.156,0,0,1-.069.014Zm.028-.5a.012.012,0,0,0-.014.014c0,.019,0,.028.014.028l.014-.013A.039.039,0,0,1,2992.037-511.006Zm.194,1.1a.106.106,0,0,1-.048.014.114.114,0,0,0-.049.014.191.191,0,0,1,.014.083.27.27,0,0,1,.083-.014Zm-.069.32a.04.04,0,0,0,.014-.028l-.014-.014c0,.009,0,.014-.007.014s-.007,0-.007.014Zm.056.3c.019-.018.014-.046-.014-.083C2992.176-509.323,2992.18-509.294,2992.217-509.286Zm.055-.9c0-.037-.009-.055-.027-.055l-.055.055A.052.052,0,0,0,2992.272-510.187Zm-.042-.347a.052.052,0,0,0,.083,0,.33.33,0,0,0-.013-.1.11.11,0,0,1-.035.056A.1.1,0,0,0,2992.231-510.534Zm.07-.611c.037,0,.055-.009.055-.028a.1.1,0,0,0-.028-.021.073.073,0,0,1-.027-.035C2992.263-511.191,2992.263-511.163,2992.3-511.145Zm.125.056a.4.4,0,0,0-.1.014.123.123,0,0,1,.069.035.1.1,0,0,0,.042.035A.06.06,0,0,0,2992.425-511.089Zm-.069.86-.014-.028a.012.012,0,0,1-.014.014.04.04,0,0,0,.014.028Zm-.014.291a.061.061,0,0,0,.028-.007.062.062,0,0,1,.027-.006v-.028a.082.082,0,0,1-.056-.014l-.014.014a.027.027,0,0,0,.007.021A.03.03,0,0,1,2992.342-509.938Zm.042-1.776c0,.009,0,.013-.007.013s-.006,0-.006.014l.013.014.014-.028Zm.014,1.027c.019.028.021.048.007.062s-.012.03.007.049a.206.206,0,0,1,.041-.035.2.2,0,0,0,.042-.035.059.059,0,0,0-.014-.042Zm.028-1.194a.012.012,0,0,0-.014.014l.028.014.013-.014c-.009,0-.013,0-.013-.007S2992.435-511.881,2992.425-511.881Zm.069.32a.051.051,0,0,0-.083,0v.083l.041-.042c.01-.018.021-.025.035-.021S2992.5-511.543,2992.495-511.561Zm-.042-1.11q.042.07.084,0a.433.433,0,0,1,.007-.069.115.115,0,0,0-.02-.083.2.2,0,0,1-.042.035.078.078,0,0,0-.028.035Zm.042,1.027a.041.041,0,0,0-.028-.014l-.014.014c.01,0,.014,0,.014.007s0,.007.014.007Zm.028,1.429c.027-.028.022-.056-.014-.084a.125.125,0,0,0-.056.014.111.111,0,0,0,.014.069Zm-.028-1.318a.071.071,0,0,0,.083.028c-.009-.028-.021-.039-.035-.035A.148.148,0,0,1,2992.495-511.533Zm.1-.736.013.014.028-.014a.066.066,0,0,0-.006-.028.059.059,0,0,1-.007-.028h-.027Zm.069.569a.084.084,0,0,0-.056-.013l-.013.013a.038.038,0,0,0,.013.028h.056Zm-.056,1.055a.013.013,0,0,1,.014-.014.032.032,0,0,0-.007-.021.027.027,0,0,1-.007-.021c0,.009,0,.014-.007.014s-.007,0-.007.014Zm.084-2.179a.013.013,0,0,1-.014.014.04.04,0,0,1,.014.028.038.038,0,0,0,.028-.014Zm.069-.666c-.028.01-.037.023-.028.042.009,0,.023-.014.042-.042.028,0,.032-.009.013-.028Zm-.014-.222a.058.058,0,0,0-.013.042l.013.014c0-.018,0-.028.014-.028A.04.04,0,0,1,2992.744-513.712Zm.042,3.233a.052.052,0,0,0,0-.084C2992.758-510.516,2992.758-510.488,2992.786-510.479Zm.056-3.76a.307.307,0,0,1,.013.1.265.265,0,0,1,.083-.013.2.2,0,0,0-.013-.083Zm.069,1.207c.028-.046.028-.079,0-.1a.065.065,0,0,1-.035.035c-.014,0-.021.021-.021.048A.08.08,0,0,1,2992.911-513.032Zm.208-1.693c-.046.019-.072.044-.076.076a.1.1,0,0,1-.062.076.04.04,0,0,1,.014.028h.111a.1.1,0,0,1,.007-.042.094.094,0,0,0,.007-.042c.046.01.087-.018.125-.083a.069.069,0,0,0-.069-.014A.06.06,0,0,1,2993.119-514.725Zm-.083.722a.33.33,0,0,1,.049-.041.046.046,0,0,0,.021-.042c-.019-.018-.046-.018-.083,0A.192.192,0,0,1,2993.036-514Zm.014.569a.068.068,0,0,0,0-.1A.067.067,0,0,0,2993.05-513.434Zm.153-.18a.907.907,0,0,0,.1-.069c-.027-.018-.046-.023-.055-.014s-.023.009-.042.028a.056.056,0,0,0-.042.014.026.026,0,0,0-.021.007.028.028,0,0,1-.021.007c.019.018.035.025.048.021A.032.032,0,0,1,2993.2-513.615Zm.167-.9a1.131,1.131,0,0,1-.125-.069l-.027.014.013.028.042.042A.382.382,0,0,0,2993.369-514.517Zm-.139,3.428c0-.018,0-.028.014-.028a.039.039,0,0,1-.014-.028.057.057,0,0,0-.013.042Zm.083-.1.013-.014-.013-.028-.014.014A.041.041,0,0,0,2993.313-511.187Zm.083-4.287a.141.141,0,0,1-.042.048c-.019.014-.019.039,0,.076a.072.072,0,0,0,.076.014.064.064,0,0,1,.076.028.218.218,0,0,0-.028-.083Zm1.3-.735c-.047.018-.072.042-.076.069a.226.226,0,0,1-.035.083l-.111.25-.111.25a.37.37,0,0,1-.083.125.251.251,0,0,0-.069.139,1.352,1.352,0,0,1-.069.208,1.066,1.066,0,0,1-.111.194.545.545,0,0,0-.083.236.3.3,0,0,1-.125.209.012.012,0,0,0-.014.014.6.6,0,0,1-.111.354.981.981,0,0,0-.153.34.785.785,0,0,1-.117.291.571.571,0,0,0-.091.319.407.407,0,0,0,.139-.159.569.569,0,0,1,.111-.16,4.449,4.449,0,0,0,.4-.492q.18-.257.361-.535a2.957,2.957,0,0,0,.2-.284q.09-.146.187-.3a.41.41,0,0,0,.09-.187.227.227,0,0,1,.146-.159.537.537,0,0,1,.084-.257c.046-.069.092-.141.138-.215q.153-.292.278-.6t.25-.61a.648.648,0,0,0,.055-.264.37.37,0,0,1,.1-.25.142.142,0,0,0,.007-.118.153.153,0,0,0-.076-.1.083.083,0,0,0-.1.007.352.352,0,0,0-.069.076q-.07.1-.146.187a1.719,1.719,0,0,0-.146.2c-.065.083-.125.169-.18.257s-.111.183-.166.284a1.406,1.406,0,0,1-.167.257.452.452,0,0,0-.1.3Zm-1.276,1.276a.061.061,0,0,0-.084.013.155.155,0,0,0,.014.07A.431.431,0,0,0,2993.425-514.933Zm-.028.291c.009,0,.014-.009.014-.028l-.014-.014c0,.018,0,.027-.014.027Zm.1-.832c-.009.009-.014.016-.014.021s-.009.012-.028.021C2993.5-515.433,2993.512-515.446,2993.494-515.474Zm.083.3a.047.047,0,0,1-.049,0c-.014-.009-.03,0-.049.014a.062.062,0,0,1-.007.027.1.1,0,0,0-.007.042.109.109,0,0,1,.069.014.106.106,0,0,1,.042.035c.009.014.023.016.042.006l-.014-.111Zm-.111.291a.04.04,0,0,1,.028.014.012.012,0,0,0,.014-.014l-.028-.014Zm.055.083c0,.009,0,.014.007.014s.007,0,.007.013l.013-.013a.042.042,0,0,0-.013-.028Zm.083.139c-.009-.018-.012-.032-.007-.042s0-.014-.021-.014c-.028.028-.028.069,0,.125a.2.2,0,0,1,.083-.013Zm.042-1a.07.07,0,0,0-.083-.028c.009.028.021.039.035.035a.162.162,0,0,1,.049-.006c0,.037.013.046.042.028-.01-.009-.017-.014-.021-.014s-.011-.009-.021-.028Zm-.056.208a.042.042,0,0,0-.014-.028l-.014.013c0,.009,0,.014.007.014s.007,0,.007.014A.012.012,0,0,0,2993.591-515.446Zm.014.625a.061.061,0,0,0,.083-.014C2993.651-514.873,2993.624-514.868,2993.6-514.822Zm.166-.4a.121.121,0,0,1-.055.014.232.232,0,0,0-.069.014v.056a.075.075,0,0,1,.035.028.18.18,0,0,0,.035.042.5.5,0,0,1,.139-.139v-.028c-.019-.018-.032-.023-.042-.014A.151.151,0,0,1,2993.771-515.224Zm.1-.624a.428.428,0,0,1-.049-.056c-.014-.018-.04-.018-.076,0,.009.019.019.04.027.063s.019.044.028.062h.069Zm0,7.479a.052.052,0,0,0-.083,0c0,.037.009.056.027.056Zm0-7.229a.039.039,0,0,1-.028-.014c0,.019,0,.028-.014.028s0,.014.007.014.006,0,.006.014c.009-.009.014-.016.014-.021S2993.859-515.59,2993.869-515.6Zm.083-.166c-.009-.018-.021-.025-.035-.021a.138.138,0,0,1-.048.007C2993.887-515.752,2993.915-515.747,2993.952-515.765Zm-.042,6.98q-.042,0-.028.028c.009,0,.023-.009.042-.028s.033-.023.014-.042C2993.929-508.828,2993.919-508.814,2993.91-508.786Zm.125-7.521a.15.15,0,0,0-.139.014.214.214,0,0,0,.1.021A.18.18,0,0,0,2994.035-516.307Zm-.07.625c0,.019.014.032.042.042v.028a.312.312,0,0,0-.1.014.194.194,0,0,0,.014.083.164.164,0,0,0,.083-.1.305.305,0,0,0,.069.042l.028-.028a.152.152,0,0,0,.028-.055h-.125a.108.108,0,0,1-.014-.042C2993.993-515.705,2993.984-515.7,2993.966-515.682Zm-.055,7.576a.115.115,0,0,0,.083.021.583.583,0,0,1,.1-.007.091.091,0,0,1-.007-.063.066.066,0,0,0-.021-.062.057.057,0,0,0-.027.007.068.068,0,0,1-.028.007.154.154,0,0,0-.014.069A.212.212,0,0,0,2993.91-508.106Zm.028-.86a.012.012,0,0,0-.014.014.04.04,0,0,0,.014.028l.014-.014A.04.04,0,0,0,2993.938-508.966Zm.042-7.521-.028.014a.013.013,0,0,1,.014.014.027.027,0,0,0,.021-.007.028.028,0,0,1,.021-.007c-.009,0-.014,0-.014-.007S2993.989-516.487,2993.979-516.487Zm-.014,8.1-.014.013a.042.042,0,0,1,.028.014c.009,0,.014,0,.014-.007s0-.007.014-.007A.057.057,0,0,0,2993.966-508.383Zm.125-.75a.078.078,0,0,0-.1.014C2994.04-509.091,2994.072-509.1,2994.091-509.133Zm.027-7.091a.221.221,0,0,1-.056-.007.057.057,0,0,0-.055.021v.042a.126.126,0,0,0,.069.069.8.8,0,0,1,.1.042v-.056q0-.028-.014-.028c-.009,0-.019-.009-.028-.028A.081.081,0,0,0,2994.118-516.224Zm-.056,8.354a.013.013,0,0,0,.014-.014v-.014l-.014-.014a.057.057,0,0,0-.027.007.067.067,0,0,1-.028.006v.028Zm.069-.791v-.042h-.069l-.013.014a.04.04,0,0,1,.013.028Zm.125-7.229-.028-.055c-.009-.019-.019-.037-.028-.056-.038-.009-.074.018-.111.083a.029.029,0,0,0,.007.021.029.029,0,0,1,.007.021.546.546,0,0,1,.083.006A.075.075,0,0,0,2994.257-515.891Zm-.055,6.841c-.019.037-.038.049-.056.035s-.037,0-.055.035a.076.076,0,0,1,.035.028.069.069,0,0,0,.034.028.158.158,0,0,0,.07-.014.112.112,0,0,1-.014-.049A.244.244,0,0,0,2994.2-509.049Zm-.07-6.772a.192.192,0,0,0,.014.083.093.093,0,0,0,.042-.007.1.1,0,0,1,.042-.007.154.154,0,0,1-.014-.069Zm.014,7.535a.046.046,0,0,1,.056-.014.045.045,0,0,0,.055-.014.561.561,0,0,1-.07-.083.026.026,0,0,0-.021.007.057.057,0,0,1-.035.007A.408.408,0,0,0,2994.146-508.286Zm.056-.153c.037,0,.055-.009.055-.028l-.055-.056c-.038,0-.056.009-.056.028a.115.115,0,0,1,.021.028A.071.071,0,0,0,2994.2-508.439Zm0-.846a.067.067,0,0,0,0,.1A.068.068,0,0,0,2994.2-509.286Zm.013.611c0-.009,0-.014-.007-.014s-.006,0-.006-.014l-.014.014c0,.009,0,.014.007.014s.007,0,.007.014Zm.069-8.34a.012.012,0,0,0-.014.014l.027.014.014-.014A.043.043,0,0,0,2994.285-517.014Zm.139.388h-.083a.1.1,0,0,0-.069.028l.048.049.049.049a.117.117,0,0,1,.056-.035.3.3,0,0,0,.055-.021.176.176,0,0,1-.035-.042A.14.14,0,0,0,2994.424-516.626Zm-.111-.125.028.028h.055v-.028a.053.053,0,0,1-.034-.007.054.054,0,0,0-.035-.007Zm0,.666a.044.044,0,0,1,.013.028c.019,0,.023-.005.014-.014l-.014-.028A.012.012,0,0,1,2994.313-516.085Zm.013,5.967a.041.041,0,0,1-.013.028l.013.014.028-.028c-.009,0-.014,0-.014-.007S2994.336-510.118,2994.326-510.118Zm-.013,1.166c.028.046.055.046.083,0A.052.052,0,0,0,2994.313-508.953Zm.138-.527c-.046-.028-.079-.023-.1.013A.079.079,0,0,0,2994.451-509.48Zm-.027.194a.076.076,0,0,0-.014.1.058.058,0,0,1,.055,0,.046.046,0,0,0,.056-.014A.129.129,0,0,0,2994.424-509.286Zm0-7.062.014.014a.04.04,0,0,0,.014-.028.012.012,0,0,0-.014-.014Zm.11-.611a.067.067,0,0,0-.1,0,.129.129,0,0,1,.014.056.048.048,0,0,0,.042-.021A.1.1,0,0,1,2994.534-516.959Zm-.1,7.035a.539.539,0,0,0,.125.055c.027-.046.027-.083,0-.111s-.079-.032-.125.014Zm0,2c.046.027.078.023.1-.014A.076.076,0,0,0,2994.438-507.926Zm.014-1.055a.06.06,0,0,0,.083-.014C2994.488-509.022,2994.46-509.017,2994.451-508.98Zm.1-7.687-.014.028a.013.013,0,0,1,.014.014.041.041,0,0,0,.014-.028Zm.056-.527c-.01,0-.014,0-.014.006s0,.007-.014.007l.014.014c.01,0,.014,0,.014-.007s0-.007.013-.007Zm.069,6.647c0,.009,0,.014.007.014s.007,0,.007.013l.014-.013c0-.009,0-.014-.007-.014s-.007,0-.007-.014Zm.014.388-.014.014.014.028.014-.014A.041.041,0,0,0,2994.687-510.16Zm.111-1.1c-.046-.028-.074-.023-.083.014C2994.752-511.224,2994.78-511.229,2994.8-511.256Zm-.055.264-.014-.014c0,.01,0,.014-.007.014s-.006,0-.006.014l.013.013C2994.738-510.965,2994.743-510.974,2994.743-510.992Zm-.014,1.055c-.009,0-.013,0-.013.014s.008.013.027.013l.014-.013A.041.041,0,0,1,2994.729-509.938Zm.028-7.659c-.037,0-.046.014-.028.042.009-.009.014-.016.014-.021s0-.011.014-.021a.2.2,0,0,0,.083-.014.208.208,0,0,0-.014-.083.15.15,0,0,1-.07.014Zm.1.166a.469.469,0,0,1-.111.014l.042.042.042.041a.121.121,0,0,0,.014-.048A.114.114,0,0,1,2994.854-517.431Zm-.1-.069a.041.041,0,0,1,.014.028h.069v-.028c-.019,0-.03,0-.035-.007a.055.055,0,0,0-.035-.007Zm.111.43c-.009,0-.013,0-.013.014s0,.028.013.028l.014-.014c0-.009,0-.013-.007-.013S2994.867-517.061,2994.867-517.07Zm.1,5.342-.042.042-.042.042a.112.112,0,0,0,.049.014.11.11,0,0,1,.048.014.221.221,0,0,0-.006-.062A.14.14,0,0,1,2994.965-511.728Zm-.083,1.457a.107.107,0,0,0,.049.014.112.112,0,0,1,.048.014v-.056a.056.056,0,0,1-.013-.042c-.009.009-.016.014-.021.014s-.012,0-.021.013Zm.056-7.049c0,.009,0,.014.007.014s.007,0,.007.014l.014-.014c0-.009,0-.014-.007-.014s-.007,0-.007-.014Zm.083-.375c0-.037-.013-.042-.042-.013.009,0,.023.009.042.028v.083a.149.149,0,0,0,.049-.007.145.145,0,0,1,.049-.007.1.1,0,0,1-.014-.042.111.111,0,0,0-.014-.042Zm.042-.263a.083.083,0,0,1,.111.035c.027.041.064.039.111-.007a.145.145,0,0,0-.062-.056.177.177,0,0,1-.063-.042.109.109,0,0,1-.014-.069.1.1,0,0,1-.042.014.106.106,0,0,0-.042.014Zm.027,6.729a.012.012,0,0,0-.014.014c0,.019,0,.028.014.028l.014-.014A.041.041,0,0,1,2995.089-511.229Zm.125-6.979a.013.013,0,0,0-.014.014l.028.014a.012.012,0,0,1,.014-.014A.041.041,0,0,0,2995.215-518.208Zm.111,6.564a.09.09,0,0,1-.069.02.06.06,0,0,0-.056.021.158.158,0,0,0,.014.069.058.058,0,0,1,.055,0,.045.045,0,0,0,.056-.014Zm.013-6.744a.056.056,0,0,0,.014.042c0-.009,0-.014.007-.014s.007,0,.007-.014l-.014-.028Zm.014.569a.013.013,0,0,0-.014.014.04.04,0,0,0,.014.028l.014-.014c0-.009,0-.014-.007-.014S2995.353-517.81,2995.353-517.819Zm.07,6.078c-.046-.028-.074-.023-.084.014C2995.357-511.7,2995.386-511.7,2995.423-511.741Zm.014-6.217a.06.06,0,0,0-.027.007.062.062,0,0,1-.028.007.144.144,0,0,0,.028.042.181.181,0,0,1,.027.042A.091.091,0,0,0,2995.437-517.958Zm.125,5.134a.22.22,0,0,0-.062.007.149.149,0,0,1-.049.007l.083.083a.112.112,0,0,0,.014-.048A.117.117,0,0,1,2995.561-512.824Zm-.013-5.7c-.019.027-.033.049-.042.062a.323.323,0,0,1-.042.049.177.177,0,0,0,.166,0,.186.186,0,0,0-.034-.049A.374.374,0,0,1,2995.548-518.527Zm-.028.43c.028-.009.039-.021.035-.035a.138.138,0,0,1-.007-.048c.037,0,.046-.014.027-.042-.009.009-.014.016-.014.021s-.009.016-.027.035h.014C2995.52-518.157,2995.51-518.134,2995.52-518.1Zm.041-.18.014.014c0-.009,0-.014.007-.014s.007,0,.007-.013l-.014-.014C2995.566-518.305,2995.561-518.3,2995.561-518.277Zm.111,5.648c-.019,0-.028,0-.028.013v.056h.028c0-.018,0-.03.007-.035a.028.028,0,0,0,.007-.021A.012.012,0,0,0,2995.672-512.63Zm.139-5.537a.151.151,0,0,0-.139.014c.056.009.087.014.1.014S2995.792-518.147,2995.812-518.166Z" transform="translate(-2987.405 519.962)" fill="#416059"/>
            <path id="Path_1677" data-name="Path 1677" d="M3058.632-456.17a3.131,3.131,0,0,0-.264.423q-.111.215-.236.424c-.055.092-.113.182-.173.27a1.279,1.279,0,0,0-.146.285.407.407,0,0,1-.069.083l-.069.042a.448.448,0,0,1-.069.195,1.472,1.472,0,0,1-.125.16c-.047.051-.09.1-.131.159a.546.546,0,0,0-.091.18,1.286,1.286,0,0,0-.25.305,1.075,1.075,0,0,1-.25.292c-.047.047-.091.093-.132.139a1.039,1.039,0,0,1-.132.125q-.208.166-.409.333a1.575,1.575,0,0,1-.465.263.51.51,0,0,1-.132.035.11.11,0,0,0-.091.076.094.094,0,0,1-.069.028,1.125,1.125,0,0,0-.375.006.582.582,0,0,1-.375-.062.629.629,0,0,0-.18-.083,1.023,1.023,0,0,1-.18-.069,1.074,1.074,0,0,1-.416-.381,1.553,1.553,0,0,1-.195-.521,3.434,3.434,0,0,1,.1-1.388c.028-.129.061-.252.1-.368s.078-.234.125-.354a2.441,2.441,0,0,1,.167-.368c.064-.116.134-.233.208-.354a3.117,3.117,0,0,1,.243-.339,3.113,3.113,0,0,1,.3-.313,1.5,1.5,0,0,1,.375-.25,1.446,1.446,0,0,1,.444-.125.738.738,0,0,0,.166-.049.2.2,0,0,1,.153-.007.754.754,0,0,1,.569.194,1.218,1.218,0,0,1,.215.326.667.667,0,0,1,.035.4c-.01.047-.021.095-.035.146a.365.365,0,0,0-.007.16.134.134,0,0,1-.056.111.193.193,0,0,0-.069.194.226.226,0,0,1-.007.056c0,.019-.011.028-.021.028a.17.17,0,0,0-.111.1.362.362,0,0,1-.083.125q-.139.153-.291.291a1.538,1.538,0,0,1-.347.236,2.028,2.028,0,0,1-.847.235.137.137,0,0,0-.138.125,2.291,2.291,0,0,1-.042.229c-.019.079-.037.155-.056.229-.018.047-.034.093-.048.139a.2.2,0,0,0,.007.139q.028.055,0,.083a.565.565,0,0,0-.07.4,3.085,3.085,0,0,1,.056.4.269.269,0,0,0,.132.2.365.365,0,0,0,.271.048.349.349,0,0,1,.118-.007.913.913,0,0,0,.117.007.873.873,0,0,0,.278-.069c.083-.037.167-.078.25-.125s.182-.113.271-.174a1.307,1.307,0,0,0,.243-.215.614.614,0,0,1,.194-.152.272.272,0,0,0,.139-.209c.019-.037.042-.055.069-.055a.23.23,0,0,0,.166-.195.056.056,0,0,1,.014-.042.864.864,0,0,0,.243-.264q.09-.152.2-.305.1-.153.188-.305c.06-.1.127-.2.2-.305a3.77,3.77,0,0,0,.208-.319c.064-.111.124-.217.18-.319a1.125,1.125,0,0,1,.159-.222.592.592,0,0,0,.132-.236c.009-.046.05-.078.125-.1a.094.094,0,0,1,.111.014.1.1,0,0,1,.014.111A.222.222,0,0,1,3058.632-456.17Zm-4.857,1.97-.014-.014a.04.04,0,0,0-.027.014.084.084,0,0,0,.013.056h.028Zm.236.056a.322.322,0,0,0,.111-.056l-.028-.055c-.01-.018-.019-.037-.028-.056a.153.153,0,0,0-.069.014.131.131,0,0,1,.021.028.1.1,0,0,0,.021.028l-.042.042c0,.019,0,.03.007.035A.029.029,0,0,1,3054.011-454.143Zm.069-1.041a.057.057,0,0,0-.042.014.04.04,0,0,1,.028.014c0-.009.009-.014.028-.014Zm.153-.4a.369.369,0,0,1-.076-.007.067.067,0,0,0-.062.021l.055.028a.507.507,0,0,0,.069.028A.157.157,0,0,1,3054.233-455.587Zm-.111.6a.04.04,0,0,0-.014-.028l-.013.014c0,.009,0,.014.006.014s.007,0,.007.013S3054.123-454.981,3054.123-454.99Zm.083.375a.062.062,0,0,0-.014-.1.028.028,0,0,0-.021.007.054.054,0,0,1-.035.007.15.15,0,0,0,.028.042Zm.055.61c0-.018,0-.028-.014-.028a.24.24,0,0,0-.1-.014l-.014.028a.154.154,0,0,0,.014.069l.056-.055Zm-.111.486a.013.013,0,0,0,.014-.014l-.014-.028-.014.014A.044.044,0,0,1,3054.15-453.519Zm.027-2.318a.237.237,0,0,1-.006.055.057.057,0,0,0,.021.056.079.079,0,0,0,.035-.028c0-.009.016-.014.035-.014.064-.028.1-.064.1-.111a.316.316,0,0,1-.041-.049.347.347,0,0,0-.042-.048.149.149,0,0,1-.007.055.1.1,0,0,0-.007.042Zm.083,1.4c.009.028.023.032.042.014.009,0,0-.009-.042-.028,0-.028-.014-.037-.042-.028Zm.042-1.221a.041.041,0,0,0-.014-.028.085.085,0,0,0-.056.014v.028h.056Zm-.014,1.735a.055.055,0,0,0-.028-.083.064.064,0,0,1,.007.048C3054.263-453.943,3054.27-453.931,3054.289-453.922Zm.028-.181a.612.612,0,0,0,.083.014c.009,0,.023-.009.042-.028v-.042a.24.24,0,0,1-.069-.028.159.159,0,0,1-.028.042A.149.149,0,0,0,3054.317-454.1Zm.028,1.235c0-.01,0-.014-.007-.014s-.007,0-.007-.014l-.014.014c0,.009,0,.014.006.014s.007,0,.007.013Zm.028-2.553c0,.009,0,.013-.014.013a.042.042,0,0,1,.014.028.012.012,0,0,0,.014-.014Zm-.014.361v.028c.019,0,.03,0,.035.007s.016.007.035.007l.013-.014-.027-.028Zm0,.236q.042.07.083,0A.052.052,0,0,0,3054.358-454.824Zm.028.458c0-.018,0-.028-.014-.028l-.014.014.014.028Zm-.014,1.068c.009,0,.014,0,.014-.006s0-.007.014-.007,0-.014-.014-.014-.028,0-.028.014Zm.014-.957c.037.037.069.041.1.013v-.069A.82.82,0,0,1,3054.386-454.255Zm.1,1.262v-.028a.153.153,0,0,1-.069-.014l-.014.014.028.028Zm-.055-3.094a.039.039,0,0,0-.014.028c-.009.009-.005.019.014.028a.058.058,0,0,1,.013-.042C3054.432-456.073,3054.428-456.077,3054.428-456.086Zm.292.68a.13.13,0,0,1-.028.021.074.074,0,0,0-.028.035.052.052,0,0,0,.083,0C3054.747-455.388,3054.738-455.407,3054.719-455.407Zm-.028-.541a.04.04,0,0,0-.013.028l.013.014a.039.039,0,0,1,.014-.027A.012.012,0,0,1,3054.691-455.948Zm.125-.083c-.037,0-.056.009-.056.028a.1.1,0,0,0,.028.021.079.079,0,0,1,.028.035C3054.853-455.984,3054.853-456.012,3054.816-456.031Zm.069.139a.224.224,0,0,1-.069-.027.163.163,0,0,1-.028.042.15.15,0,0,0-.028.042.393.393,0,0,0,.083.028c.009,0,.023-.009.042-.028Zm0-.388c-.047-.028-.074-.028-.083,0A.052.052,0,0,0,3054.886-456.281Zm.042.194v-.063a.14.14,0,0,0-.028-.076.153.153,0,0,1-.028.041.166.166,0,0,0-.028.042.092.092,0,0,1,.042.042A.027.027,0,0,0,3054.927-456.086Zm0-.472a.145.145,0,0,1,.076-.007.065.065,0,0,0,.062-.021.054.054,0,0,0-.007-.035.055.055,0,0,1-.007-.035.3.3,0,0,1-.063-.007.067.067,0,0,0-.062.021Zm.125.388a.247.247,0,0,0-.063.055.072.072,0,0,1-.062.028.112.112,0,0,0,.111.1.218.218,0,0,0,.035-.042.075.075,0,0,1,.034-.028.061.061,0,0,1,0-.056.045.045,0,0,0-.014-.055Zm1.151-.694c-.083.047-.166.095-.25.146a.5.5,0,0,0-.195.229.405.405,0,0,1-.076.1.94.94,0,0,0-.09.1,1.154,1.154,0,0,0-.125.146,1.919,1.919,0,0,0-.112.173l-.333.583a.869.869,0,0,0-.069.146.32.32,0,0,0,0,.187.251.251,0,0,1,.2-.048.242.242,0,0,0,.187-.035q.152-.084.3-.16a1.262,1.262,0,0,0,.278-.187,3.292,3.292,0,0,0,.277-.284,1.3,1.3,0,0,0,.208-.34,1.1,1.1,0,0,0,.083-.34.7.7,0,0,0-.069-.354A.132.132,0,0,0,3056.2-456.863Zm-1.262.444a.039.039,0,0,0,.014.028l.014-.014a.041.041,0,0,0-.014-.028A.012.012,0,0,0,3054.941-456.419Zm.083-.042a.013.013,0,0,0,.014.014l.027-.014c-.009,0-.013,0-.013-.014A.04.04,0,0,0,3055.024-456.461Zm.125.1c-.028-.037-.056-.037-.083,0A.052.052,0,0,0,3055.149-456.364Zm.222-.153a.219.219,0,0,1-.042.035.2.2,0,0,0-.042.035.116.116,0,0,0,.014.055h.083a.069.069,0,0,1-.013-.069A.059.059,0,0,0,3055.372-456.517Zm0-.277a.027.027,0,0,0,.007.021.03.03,0,0,1,.006.021.04.04,0,0,0,.028-.014l.056-.055a.15.15,0,0,1-.049-.007.157.157,0,0,0-.048-.007Zm.138-.153a.052.052,0,0,0,.084,0,.156.156,0,0,0-.014-.069.156.156,0,0,1-.07.014Zm.084-.18a.039.039,0,0,0,.027.014.013.013,0,0,0,.014-.014l-.028-.014Zm.125.208a.325.325,0,0,1-.083.055.062.062,0,0,0,.1.014A.154.154,0,0,1,3055.718-456.919Zm.278-.389a.041.041,0,0,1,.013.028c.01,0,.014,0,.014-.014a.039.039,0,0,0-.014-.028Zm.013.069c0,.009,0,.014-.013.014a.059.059,0,0,1,.013.042.039.039,0,0,0,.014-.028Zm.222.028a.224.224,0,0,0-.1-.021.209.209,0,0,0-.042.035C3056.121-457.178,3056.167-457.182,3056.231-457.211Z" transform="translate(-3043.871 464.446)" fill="#416059"/>
          </g>
        </g>
        <g id="Group_446" data-name="Group 446" transform="translate(0 18.447)">
          <g id="Group_445" data-name="Group 445">
            <path id="Path_1678" data-name="Path 1678" d="M2814.945-324.42h7.214v.592a3.688,3.688,0,0,0-1.622.241,1.187,1.187,0,0,0-.562.8,15.826,15.826,0,0,0-.136,2.719v1.776a3.238,3.238,0,0,0-.53-.049,7.509,7.509,0,0,0-2.491.58,11.1,11.1,0,0,1-3.884.789,8.127,8.127,0,0,1-5.969-2.361,8.078,8.078,0,0,1-2.38-5.987,9.48,9.48,0,0,1,2.269-6.289,7.631,7.631,0,0,1,6.166-2.7,7.109,7.109,0,0,1,5.549,2.466,5.833,5.833,0,0,0,.518-1.862h.592v5.587h-.592a6.663,6.663,0,0,0-1.954-4.082,5.449,5.449,0,0,0-3.878-1.5,5.624,5.624,0,0,0-4.107,1.752q-1.75,1.751-1.751,6.215t1.69,6.308a5.438,5.438,0,0,0,4.193,1.856,5.144,5.144,0,0,0,2.331-.524,3.051,3.051,0,0,0,1.43-1.277,4.18,4.18,0,0,0,.382-1.9,5.774,5.774,0,0,0-.179-1.794,1.017,1.017,0,0,0-.549-.6,4.009,4.009,0,0,0-1.356-.154h-.395Z" transform="translate(-2804.586 334.31)" fill="#416059"/>
            <path id="Path_1679" data-name="Path 1679" d="M3080.232-316.558h-4.5a20.183,20.183,0,0,1-3.662-4.39q-.788-1.134-1.64-2.177a8.572,8.572,0,0,0-1.171-1.27,1.741,1.741,0,0,0-1-.228h-.666v3.712a21.961,21.961,0,0,0,.093,2.584,1.311,1.311,0,0,0,.493.906,2.778,2.778,0,0,0,1.535.3h.8v.567h-8v-.567h.542a2.9,2.9,0,0,0,1.486-.271,1.237,1.237,0,0,0,.524-.845,18.834,18.834,0,0,0,.111-2.67v-8.2a17.9,17.9,0,0,0-.111-2.578,1.1,1.1,0,0,0-.493-.8,3.89,3.89,0,0,0-1.652-.222h-.283v-.567l2.393-.123q2.392-.111,3.8-.111a14.03,14.03,0,0,1,3.891.444,5.2,5.2,0,0,1,2.422,1.455,3.453,3.453,0,0,1,.925,2.417,3.739,3.739,0,0,1-1.208,2.8,6.04,6.04,0,0,1-3.552,1.443q1.048.506,3.379,3.65a17,17,0,0,0,2.984,3.342,4.511,4.511,0,0,0,2.565.839Zm-12.64-8.633q.924-.024,1.911-.074a7.157,7.157,0,0,0,1.714-.271,2.929,2.929,0,0,0,1.178-.647,2.912,2.912,0,0,0,.709-1.116,4.871,4.871,0,0,0,.259-1.7,4.276,4.276,0,0,0-.882-2.824q-.881-1.061-3.842-1.061-.456,0-1.048.05Z" transform="translate(-3038.642 333.588)" fill="#416059"/>
            <path id="Path_1680" data-name="Path 1680" d="M3300.451-325.752a7.974,7.974,0,0,1,2.59-6.215,9.271,9.271,0,0,1,6.462-2.343,9.5,9.5,0,0,1,6.53,2.318,8.014,8.014,0,0,1,2.62,6.326,8.313,8.313,0,0,1-2.51,6.289,9.143,9.143,0,0,1-6.6,2.4,9.147,9.147,0,0,1-6.536-2.4A8.348,8.348,0,0,1,3300.451-325.752Zm2.824.087q0,4.033,1.61,6.055a5.8,5.8,0,0,0,4.828,2.022,5.441,5.441,0,0,0,4.464-2.022q1.641-2.023,1.641-6.031a9.567,9.567,0,0,0-1.616-5.974,5.577,5.577,0,0,0-4.686-2.078,5.564,5.564,0,0,0-4.631,2.029Q3303.276-329.636,3303.275-325.666Z" transform="translate(-3254.561 334.31)" fill="#416059"/>
            <path id="Path_1681" data-name="Path 1681" d="M3553.476-313.863h-.765l-5.771-13.294q-.161-.357-.506-1.233a3.831,3.831,0,0,0-1.011-1.591,2.949,2.949,0,0,0-1.715-.432v-.567h7.2v.567a5.383,5.383,0,0,0-1.807.2.741.741,0,0,0-.462.752,6.115,6.115,0,0,0,.579,1.677l4.809,11.1,3.861-9.236a10.772,10.772,0,0,0,.974-3.021q0-1.418-2.01-1.468v-.567h5.106v.567a2.092,2.092,0,0,0-1.369.555,4.3,4.3,0,0,0-1.024,1.554l-1.122,2.627Z" transform="translate(-3475.307 331.288)" fill="#416059"/>
            <path id="Path_1682" data-name="Path 1682" d="M3818.727-319.462h.591l-.357,5.2h-13.849v-.567h.346a2.584,2.584,0,0,0,1.608-.333,1.493,1.493,0,0,0,.463-.845,19.493,19.493,0,0,0,.1-2.608v-8.2a18.829,18.829,0,0,0-.1-2.516,1.183,1.183,0,0,0-.481-.845,3.38,3.38,0,0,0-1.585-.24v-.567h11.949l.4,4.168h-.58a6.524,6.524,0,0,0-.969-2.485,2.447,2.447,0,0,0-1.363-.925,11.973,11.973,0,0,0-2.54-.191h-2.319v7.017h1.777a4.817,4.817,0,0,0,1.708-.21,1.1,1.1,0,0,0,.641-.635,5.8,5.8,0,0,0,.154-1.658h.58v5.722h-.58a4.883,4.883,0,0,0-.234-1.868,1.133,1.133,0,0,0-.685-.616,5.665,5.665,0,0,0-1.523-.142h-1.838v3.959q0,2.972.382,3.5t2.061.524h1.244a5.914,5.914,0,0,0,2.171-.34,3.877,3.877,0,0,0,1.622-1.393A8.156,8.156,0,0,0,3818.727-319.462Z" transform="translate(-3712.519 331.288)" fill="#416059"/>
          </g>
        </g>
      </g>
    </g>
    <g id="Group_449" data-name="Group 449" transform="translate(2821.236 -493.436)">
      <path id="Path_1683" data-name="Path 1683" d="M2984.734-54.966a.869.869,0,0,1-.234-.648,2.6,2.6,0,0,1,.424-1.3,4.16,4.16,0,0,1,1.082-1.216,2.173,2.173,0,0,1,1.316-.5,1.169,1.169,0,0,1,.733.225.691.691,0,0,1,.294.573q0,.459-.568.479.359.11.359.3a.532.532,0,0,1-.07.209c-.046.093-.1.189-.159.289a4.364,4.364,0,0,0-.25.453.874.874,0,0,0-.09.364.426.426,0,0,0,.075.254.257.257,0,0,0,.224.1,1.224,1.224,0,0,0,.713-.389,4.182,4.182,0,0,0,.843-1.167l.189.19a3.971,3.971,0,0,1-.917,1.331,1.647,1.647,0,0,1-1.107.5.744.744,0,0,1-.613-.264.93.93,0,0,1-.214-.6,5.446,5.446,0,0,1-.768.787,1.083,1.083,0,0,1-.678.25A.8.8,0,0,1,2984.734-54.966Zm1.605-.783a14.95,14.95,0,0,0,1.052-1.311l.2-.269a.09.09,0,0,1,.08-.05l.04.011a1.233,1.233,0,0,0,.05-.369q0-.518-.419-.519a1.361,1.361,0,0,0-.917.468,4.141,4.141,0,0,0-.8,1.117,2.572,2.572,0,0,0-.324,1.107.422.422,0,0,0,.055.244.2.2,0,0,0,.174.075A1.247,1.247,0,0,0,2986.34-55.749Z" transform="translate(-2984.5 62.385)" fill="#416059"/>
      <path id="Path_1684" data-name="Path 1684" d="M3052.957-55.433c-.09-.06-.138-.113-.145-.16q.439-1.276.643-2a14.169,14.169,0,0,0,.339-1.536q.135-.812.354-2.5a.429.429,0,0,1,.055-.184c.023-.03.085-.045.185-.045a.583.583,0,0,1,.438.154.518.518,0,0,1,.15.374,5.981,5.981,0,0,1-.139.937,3.356,3.356,0,0,1,.733-.813,1.421,1.421,0,0,1,.893-.324,1.068,1.068,0,0,1,.808.334,1.2,1.2,0,0,1,.319.863,2.4,2.4,0,0,1-.314,1.122,2.841,2.841,0,0,1-.872.992,2.083,2.083,0,0,1-1.237.4,1.353,1.353,0,0,1-.5-.079c-.13-.054-.195-.113-.195-.179s.08-.1.24-.1a1.975,1.975,0,0,0,1.077-.325,2.3,2.3,0,0,0,.748-.782,1.852,1.852,0,0,0,.269-.927.931.931,0,0,0-.14-.528.47.47,0,0,0-.418-.209,1.053,1.053,0,0,0-.638.254,2.952,2.952,0,0,0-.588.613,3.9,3.9,0,0,0-.4.668q-.17.589-.438,1.7a18.637,18.637,0,0,1-.494,1.8q-.2.573-.473.574A.461.461,0,0,1,3052.957-55.433Z" transform="translate(-3046.49 65.314)" fill="#416059"/>
      <path id="Path_1685" data-name="Path 1685" d="M3108.071-92.055a1.325,1.325,0,0,1-.2-.768,6.994,6.994,0,0,1,.623-2.453,16.876,16.876,0,0,1,1.4-2.752q.778-1.217,1.146-1.216.17,0,.289.264a1.413,1.413,0,0,1,.13.534,3.878,3.878,0,0,1-.369,1.341,9.979,9.979,0,0,1-.992,1.79,6.6,6.6,0,0,1-1.331,1.466,5.859,5.859,0,0,0-.109.938.937.937,0,0,0,.114.518.358.358,0,0,0,.314.17,1.058,1.058,0,0,0,.743-.463,5.042,5.042,0,0,0,.7-1.121l.239.129a4.838,4.838,0,0,1-.967,1.411,1.588,1.588,0,0,1-1.1.5A.719.719,0,0,1,3108.071-92.055Zm1.889-3.769a10.415,10.415,0,0,0,.758-1.475,3.126,3.126,0,0,0,.284-1.037q-.13,0-.524.608a13.979,13.979,0,0,0-.828,1.511,13.463,13.463,0,0,0-.7,1.75A8.375,8.375,0,0,0,3109.96-95.824Z" transform="translate(-3096.454 99.244)" fill="#416059"/>
      <path id="Path_1686" data-name="Path 1686" d="M3131.487-54.966a.868.868,0,0,1-.234-.648,2.605,2.605,0,0,1,.424-1.3,4.164,4.164,0,0,1,1.082-1.216,2.173,2.173,0,0,1,1.316-.5,1.169,1.169,0,0,1,.732.225.691.691,0,0,1,.294.573q0,.459-.568.479.359.11.359.3a.531.531,0,0,1-.07.209c-.047.093-.1.189-.159.289a4.267,4.267,0,0,0-.249.453.874.874,0,0,0-.09.364.426.426,0,0,0,.075.254.258.258,0,0,0,.224.1,1.224,1.224,0,0,0,.713-.389,4.172,4.172,0,0,0,.843-1.167l.189.19a3.974,3.974,0,0,1-.917,1.331,1.647,1.647,0,0,1-1.107.5.744.744,0,0,1-.613-.264.93.93,0,0,1-.214-.6,5.486,5.486,0,0,1-.768.787,1.083,1.083,0,0,1-.678.25A.8.8,0,0,1,3131.487-54.966Zm1.6-.783a14.854,14.854,0,0,0,1.052-1.311l.2-.269a.09.09,0,0,1,.08-.05l.04.011a1.225,1.225,0,0,0,.05-.369q0-.518-.419-.519a1.36,1.36,0,0,0-.917.468,4.132,4.132,0,0,0-.8,1.117,2.565,2.565,0,0,0-.324,1.107.422.422,0,0,0,.055.244.2.2,0,0,0,.174.075A1.247,1.247,0,0,0,3133.092-55.749Z" transform="translate(-3117.672 62.385)" fill="#416059"/>
      <path id="Path_1687" data-name="Path 1687" d="M3181.572-54.489a1.354,1.354,0,0,1-.324-.982,2.622,2.622,0,0,1,.324-1.246,2.871,2.871,0,0,1,.843-.987,1.76,1.76,0,0,1,1.047-.379.8.8,0,0,1,.594.2.687.687,0,0,1,.194.5,1.1,1.1,0,0,1-.145.554.415.415,0,0,1-.354.254.357.357,0,0,1-.309-.189.709.709,0,0,0,.219-.279,1.04,1.04,0,0,0,.1-.469c0-.113-.063-.17-.189-.17a1.022,1.022,0,0,0-.688.379,3.27,3.27,0,0,0-.618.918,2.358,2.358,0,0,0-.249.977.867.867,0,0,0,.16.533.638.638,0,0,0,.548.214,1.7,1.7,0,0,0,.793-.219,2.791,2.791,0,0,0,.773-.623,3.121,3.121,0,0,0,.568-.932l.2.179a3.673,3.673,0,0,1-.664,1.077,3.335,3.335,0,0,1-.942.753,2.17,2.17,0,0,1-1.017.274A1.144,1.144,0,0,1,3181.572-54.489Z" transform="translate(-3163.04 61.892)" fill="#416059"/>
      <path id="Path_1688" data-name="Path 1688" d="M3216.29-56.865a1.158,1.158,0,0,1-.349-.868,2.53,2.53,0,0,1,.389-1.251,3.7,3.7,0,0,1,1-1.127,2.006,2.006,0,0,1,1.2-.454.853.853,0,0,1,.518.154.6.6,0,0,1,.209.514,1.353,1.353,0,0,1-.369.9,2.778,2.778,0,0,1-.952.693,3.864,3.864,0,0,1-1.192.339,1.169,1.169,0,0,0-.02.23,1.059,1.059,0,0,0,.145.519q.145.259.623.259a2.027,2.027,0,0,0,1.241-.493,3.756,3.756,0,0,0,1.022-1.232l.2.16a3.563,3.563,0,0,1-1.142,1.446,2.566,2.566,0,0,1-1.541.549A1.347,1.347,0,0,1,3216.29-56.865Zm1.361-1.755a2.7,2.7,0,0,0,.753-.613,1.111,1.111,0,0,0,.309-.713.212.212,0,0,0-.04-.149.177.177,0,0,0-.129-.041,1.053,1.053,0,0,0-.634.274,3.231,3.231,0,0,0-.633.693,3.33,3.33,0,0,0-.428.838A2.169,2.169,0,0,0,3217.651-58.621Z" transform="translate(-3194.522 64.145)" fill="#416059"/>
      <path id="Path_1689" data-name="Path 1689" d="M3282.042-91.288a1.036,1.036,0,0,1-.27-.773,4.7,4.7,0,0,1,.165-1.072,12.878,12.878,0,0,1,.424-1.361q-.259-.09-.359-.13v-.309a2.418,2.418,0,0,1,.259.06l.1.02.125.019a11.044,11.044,0,0,1,.923-1.865q.483-.757.813-.758a.291.291,0,0,1,.2.08.234.234,0,0,1,.09.179,2.13,2.13,0,0,1-.294.742q-.294.554-.763,1.371l-.239.419a5.306,5.306,0,0,0,.917.09,6.939,6.939,0,0,0,1.286-.15,16.875,16.875,0,0,1,.823-1.864,8.785,8.785,0,0,1,.912-1.457q.449-.558.748-.558a.342.342,0,0,1,.3.215,1.031,1.031,0,0,1,.115.493,2.929,2.929,0,0,1-.3,1.126,5.771,5.771,0,0,1-.812,1.311,4.016,4.016,0,0,1-1.1.972,6.037,6.037,0,0,0-.319,1.152,6.33,6.33,0,0,0-.14,1.121q.887-2.324,2.024-2.323a.784.784,0,0,1,.653.284,1.072,1.072,0,0,1,.224.683,2.607,2.607,0,0,1-.239.937c-.013.033-.047.127-.1.279a1.245,1.245,0,0,0-.08.4.338.338,0,0,0,.075.245.265.265,0,0,0,.195.075.9.9,0,0,0,.514-.225,3.165,3.165,0,0,0,.578-.593,3.975,3.975,0,0,0,.474-.788l.189.179a4.022,4.022,0,0,1-.882,1.311,1.608,1.608,0,0,1-1.121.514.82.82,0,0,1-.579-.194.657.657,0,0,1-.209-.5,1.414,1.414,0,0,1,.045-.319c.03-.127.061-.249.094-.369.007-.033.033-.133.08-.3a1.688,1.688,0,0,0,.07-.449q0-.43-.349-.429a.722.722,0,0,0-.6.4,7.734,7.734,0,0,0-.563,1.137,6.729,6.729,0,0,1-.408.882q-.17.284-.379.284-.259,0-.379-.438a3.052,3.052,0,0,1-.12-.8,3.332,3.332,0,0,1-.947.957,2.024,2.024,0,0,1-1.117.349A1.02,1.02,0,0,1,3282.042-91.288Zm2.039-.669a3.657,3.657,0,0,0,.873-1.191,9.038,9.038,0,0,1,.309-1.157,5.721,5.721,0,0,1-1.127.12,5.855,5.855,0,0,1-1.087-.109,5,5,0,0,0-.5,2,1.13,1.13,0,0,0,.115.593.459.459,0,0,0,.414.174A1.543,1.543,0,0,0,3284.08-91.957Zm2.992-4.019a5.583,5.583,0,0,0,.558-.972,1.984,1.984,0,0,0,.2-.708q-.119.029-.4.389a6.913,6.913,0,0,0-.589.927,8.217,8.217,0,0,0-.538,1.226A4.859,4.859,0,0,0,3287.072-95.975Z" transform="translate(-3254.261 98.662)" fill="#416059"/>
      <path id="Path_1690" data-name="Path 1690" d="M3365.191-54.966a.868.868,0,0,1-.234-.648,2.605,2.605,0,0,1,.424-1.3,4.16,4.16,0,0,1,1.082-1.216,2.174,2.174,0,0,1,1.316-.5,1.169,1.169,0,0,1,.733.225.692.692,0,0,1,.294.573q0,.459-.568.479.358.11.358.3a.532.532,0,0,1-.07.209c-.046.093-.1.189-.159.289a4.443,4.443,0,0,0-.249.453.87.87,0,0,0-.09.364.426.426,0,0,0,.075.254.258.258,0,0,0,.224.1,1.224,1.224,0,0,0,.713-.389,4.167,4.167,0,0,0,.843-1.167l.19.19a3.978,3.978,0,0,1-.917,1.331,1.648,1.648,0,0,1-1.107.5.745.745,0,0,1-.614-.264.93.93,0,0,1-.214-.6,5.472,5.472,0,0,1-.768.787,1.082,1.082,0,0,1-.678.25A.8.8,0,0,1,3365.191-54.966Zm1.605-.783a14.993,14.993,0,0,0,1.052-1.311l.2-.269a.09.09,0,0,1,.079-.05l.04.011a1.242,1.242,0,0,0,.05-.369q0-.518-.419-.519a1.36,1.36,0,0,0-.917.468,4.132,4.132,0,0,0-.8,1.117,2.572,2.572,0,0,0-.324,1.107.422.422,0,0,0,.055.244.2.2,0,0,0,.175.075A1.247,1.247,0,0,0,3366.8-55.749Z" transform="translate(-3329.748 62.385)" fill="#416059"/>
      <path id="Path_1691" data-name="Path 1691" d="M3415.1-79.846a1.076,1.076,0,0,1-.259-.783,4.308,4.308,0,0,1,.149-.992,12.388,12.388,0,0,1,.4-1.281,1.877,1.877,0,0,1-.349-.089V-83.3c.16.02.319.037.479.05a11.7,11.7,0,0,1,.962-1.935q.513-.807.833-.807a.277.277,0,0,1,.194.079.276.276,0,0,1,.085.209,1.013,1.013,0,0,1-.139.429q-.14.269-.459.817-.439.739-.688,1.237,1.147,0,1.825-.07v.329q-1.176.119-2,.119a5.451,5.451,0,0,0-.519,2,.978.978,0,0,0,.13.579.482.482,0,0,0,.409.17,1.583,1.583,0,0,0,1.022-.454,3.912,3.912,0,0,0,.913-1.231l.14.1a4.364,4.364,0,0,1-1.057,1.51,2,2,0,0,1-1.346.583A.959.959,0,0,1,3415.1-79.846Z" transform="translate(-3375.017 87.22)" fill="#416059"/>
      <path id="Path_1692" data-name="Path 1692" d="M3474.006-72.265a.9.9,0,0,1-.23-.638,3.72,3.72,0,0,1,.224-1.082,4.983,4.983,0,0,1,.568-1.2q.344-.519.693-.519a.315.315,0,0,1,.215.075.272.272,0,0,1,.084.214.573.573,0,0,1-.079.244q-.08.156-.259.444a9.366,9.366,0,0,0-.5.932,1.837,1.837,0,0,0-.185.763.593.593,0,0,0,.11.419.457.457,0,0,0,.339.11q.787,0,1.565-1.526l.149.16a3.614,3.614,0,0,1-.887,1.367,1.7,1.7,0,0,1-1.157.489A.836.836,0,0,1,3474.006-72.265Zm1.471-4.347a.33.33,0,0,1-.145-.289.493.493,0,0,1,.254-.4.946.946,0,0,1,.543-.175q.429,0,.429.368a.541.541,0,0,1-.229.4.758.758,0,0,1-.5.195A.606.606,0,0,1,3475.476-76.613Z" transform="translate(-3428.496 79.494)" fill="#416059"/>
      <path id="Path_1693" data-name="Path 1693" d="M3499.11-60.186a1.462,1.462,0,0,1-.334-.962.813.813,0,0,1,.14-.543.956.956,0,0,1,.314-.235,1.039,1.039,0,0,0,.2-.109,5,5,0,0,0,.967-1.367v-.1a.97.97,0,0,1,.125-.549.379.379,0,0,1,.324-.179.208.208,0,0,1,.24.2.689.689,0,0,1-.025.149.861.861,0,0,0-.025.209,1.438,1.438,0,0,0,.06.4q.06.209.189.568c.107.293.188.545.244.758a2.532,2.532,0,0,1,.085.648,2.527,2.527,0,0,1-.04.409,1.971,1.971,0,0,0,1.177-1.127l.12.09a2.358,2.358,0,0,1-.553.917,1.456,1.456,0,0,1-.833.419,1.174,1.174,0,0,1-.519.6,1.644,1.644,0,0,1-.828.2A1.262,1.262,0,0,1,3499.11-60.186Zm1.336-.135a.643.643,0,0,0,.264-.289,1.967,1.967,0,0,1-.718-.3,2.271,2.271,0,0,1-.529-.484c-.093.02-.14.11-.14.269a1.047,1.047,0,0,0,.2.633.639.639,0,0,0,.548.274A.743.743,0,0,0,3500.446-60.321Zm.374-.9a4.011,4.011,0,0,0-.07-.628q-.06-.309-.18-.8l-.09-.359a6.838,6.838,0,0,1-.867,1.246,1.808,1.808,0,0,0,.479.523,1.825,1.825,0,0,0,.7.324A1.091,1.091,0,0,0,3500.82-61.219Z" transform="translate(-3451.183 67.47)" fill="#416059"/>
      <path id="Path_1694" data-name="Path 1694" d="M3564.808-49.252a.59.59,0,0,1-.2-.484,1.024,1.024,0,0,1,.294-.708,2.786,2.786,0,0,1,.684-.538q.388-.219,1.007-.509.17-.428.479-1.556a4.214,4.214,0,0,1-.7.8,1.12,1.12,0,0,1-.733.29.939.939,0,0,1-.588-.2.743.743,0,0,1-.259-.628,3.093,3.093,0,0,1,.159-.863,4.71,4.71,0,0,1,.379-.918q.219-.393.379-.393a.742.742,0,0,1,.3.1.452.452,0,0,1,.24.225,3.786,3.786,0,0,0-.414.868,2.971,2.971,0,0,0-.224.957c0,.246.1.369.289.369a.972.972,0,0,0,.648-.349,4.864,4.864,0,0,0,.668-.858c.013-.046.033-.156.06-.329a1.037,1.037,0,0,1,.18-.454.462.462,0,0,1,.4-.194c.026,0,.132.013.319.04a6.686,6.686,0,0,1-.234,1.087q-.225.837-.524,1.636a3,3,0,0,0,.922-.609,2.8,2.8,0,0,0,.683-1.077l.169.14a2.527,2.527,0,0,1-.723,1.156,4.421,4.421,0,0,1-1.181.768,8.414,8.414,0,0,1-.952,1.75,1.339,1.339,0,0,1-1.042.643A.729.729,0,0,1,3564.808-49.252Zm.927-.628a5.387,5.387,0,0,0,.668-1.172,4.963,4.963,0,0,0-.992.638.946.946,0,0,0-.414.678.411.411,0,0,0,.045.195.152.152,0,0,0,.145.084Q3565.4-49.457,3565.735-49.88Z" transform="translate(-3510.922 59.059)" fill="#416059"/>
      <path id="Path_1695" data-name="Path 1695" d="M3608.758-56.033a1.155,1.155,0,0,1-.185-.668,2.391,2.391,0,0,1,.175-.867,2.306,2.306,0,0,1,.454-.748.794.794,0,0,1,.569-.3.85.85,0,0,1,.309.079,1.381,1.381,0,0,1,.324-.758.941.941,0,0,1,.743-.3.728.728,0,0,1,.588.224.872.872,0,0,1,.19.583,2.137,2.137,0,0,1-.185.8,5.564,5.564,0,0,1-.473.9.617.617,0,0,0,.279.06,1.2,1.2,0,0,0,.6-.185,1.185,1.185,0,0,0,.489-.563l.179.13a1.689,1.689,0,0,1-.564.728,1.253,1.253,0,0,1-.732.249,1.588,1.588,0,0,1-.5-.09,3.534,3.534,0,0,1-.807.718,1.6,1.6,0,0,1-.858.279A.666.666,0,0,1,3608.758-56.033Zm1.391-.438a3.376,3.376,0,0,0,.519-.509,1.931,1.931,0,0,1-.6-1.466.919.919,0,0,0-.289.368,3.85,3.85,0,0,0-.289.688,2.229,2.229,0,0,0-.12.658q0,.459.339.459A.779.779,0,0,0,3610.148-56.471Zm1.192-1.6a1.913,1.913,0,0,0,.164-.718c0-.292-.093-.439-.279-.439a.409.409,0,0,0-.269.13.973.973,0,0,0-.229.344,1.211,1.211,0,0,0-.09.474,2.038,2.038,0,0,0,.08.523,1.227,1.227,0,0,0,.209.454A4.318,4.318,0,0,0,3611.34-58.066Z" transform="translate(-3550.818 63.262)" fill="#416059"/>
      <path id="Path_1696" data-name="Path 1696" d="M3650.059-50.816a1.224,1.224,0,0,1-.22-.728,3.269,3.269,0,0,1,.16-.9,4.925,4.925,0,0,1,.374-.937q.214-.4.374-.4a.545.545,0,0,1,.214.075,1.034,1.034,0,0,1,.255.185,4.579,4.579,0,0,0-.434.887,2.834,2.834,0,0,0-.224,1,1.508,1.508,0,0,0,.055.394.239.239,0,0,0,.244.2q.369,0,.883-.822a12.776,12.776,0,0,0,.882-1.671c.4.067.6.18.6.339a2.57,2.57,0,0,1-.12.29q-.209.488-.359.907a2.219,2.219,0,0,0-.15.728q0,.349.269.349a.966.966,0,0,0,.5-.195,2.964,2.964,0,0,0,.6-.558,3.889,3.889,0,0,0,.539-.842l.15.119a3.789,3.789,0,0,1-.568.967,2.967,2.967,0,0,1-.753.674,1.5,1.5,0,0,1-.772.244.541.541,0,0,1-.564-.3,2.189,2.189,0,0,1-.124-.813,5.139,5.139,0,0,1-.638.818.886.886,0,0,1-.628.3A.652.652,0,0,1,3650.059-50.816Z" transform="translate(-3588.266 57.986)" fill="#416059"/>
      <path id="Path_1697" data-name="Path 1697" d="M3698.712-61.691a.651.651,0,0,1-.229-.523,1.315,1.315,0,0,1,.074-.414,5.052,5.052,0,0,1,.225-.544q.13-.279.2-.474a1.042,1.042,0,0,0,.07-.344q0-.379-.5-.638-.2.5-.464,1.007t-.473.858l-.15-.289a11.612,11.612,0,0,0,.808-1.806.361.361,0,0,1-.1-.269.839.839,0,0,1,.16-.489c.106-.153.209-.23.309-.23a.189.189,0,0,1,.165.119.445.445,0,0,1,.065.2.741.741,0,0,1-.044.175l-.065.195a.234.234,0,0,0,.08.135,1.952,1.952,0,0,0,.259.184,2.858,2.858,0,0,1,.543.444.82.82,0,0,1,.194.573,1.345,1.345,0,0,1-.074.439,4.926,4.926,0,0,1-.224.528,1.7,1.7,0,0,0-.219.628q0,.23.249.23a1.188,1.188,0,0,0,.653-.239,3.222,3.222,0,0,0,.649-.583,2.913,2.913,0,0,0,.434-.643l.239.179a3.4,3.4,0,0,1-.559.858,3.244,3.244,0,0,1-.8.668,1.723,1.723,0,0,1-.873.259A.892.892,0,0,1,3698.712-61.691Z" transform="translate(-3631.485 68.935)" fill="#416059"/>
      <path id="Path_1698" data-name="Path 1698" d="M3734.756-60.186a1.462,1.462,0,0,1-.334-.962.813.813,0,0,1,.14-.543.955.955,0,0,1,.314-.235,1.037,1.037,0,0,0,.2-.109,5.005,5.005,0,0,0,.968-1.367v-.1a.97.97,0,0,1,.125-.549.379.379,0,0,1,.324-.179.208.208,0,0,1,.239.2.685.685,0,0,1-.025.149.861.861,0,0,0-.025.209,1.431,1.431,0,0,0,.061.4q.059.209.189.568.159.439.244.758a2.532,2.532,0,0,1,.085.648,2.527,2.527,0,0,1-.04.409,1.971,1.971,0,0,0,1.177-1.127l.12.09a2.358,2.358,0,0,1-.553.917,1.458,1.458,0,0,1-.833.419,1.171,1.171,0,0,1-.519.6,1.642,1.642,0,0,1-.827.2A1.262,1.262,0,0,1,3734.756-60.186Zm1.336-.135a.641.641,0,0,0,.264-.289,1.967,1.967,0,0,1-.718-.3,2.261,2.261,0,0,1-.529-.484c-.093.02-.14.11-.14.269a1.047,1.047,0,0,0,.2.633.638.638,0,0,0,.548.274A.743.743,0,0,0,3736.093-60.321Zm.374-.9a3.954,3.954,0,0,0-.07-.628q-.06-.309-.179-.8l-.09-.359a6.85,6.85,0,0,1-.867,1.246,1.813,1.813,0,0,0,.479.523,1.82,1.82,0,0,0,.7.324A1.093,1.093,0,0,0,3736.467-61.219Z" transform="translate(-3665.021 67.47)" fill="#416059"/>
    </g>
  </g>
</svg>
