<svg xmlns="http://www.w3.org/2000/svg" width="100.406" height="33.173" viewBox="0 0 100.406 33.173">
  <g id="Group_578" data-name="Group 578" transform="translate(-138 -1161.603)">
    <g id="Group_422" data-name="Group 422" transform="translate(138 1161.603)">
      <g id="Group_418" data-name="Group 418" transform="translate(0 0)">
        <path id="Path_1652" data-name="Path 1652" d="M150.468,1172.626H159.6v.73a15.084,15.084,0,0,1-.587,4.409,9.365,9.365,0,0,1-1.932,3.322,10.012,10.012,0,0,1-7.83,3.464,10.764,10.764,0,0,1-7.945-3.35,11.537,11.537,0,0,1,13.084-18.538,13.948,13.948,0,0,1,4.223,3.436l-2.376,2.276a8.065,8.065,0,0,0-6.628-3.622,7.919,7.919,0,0,0-5.884,2.419,8.078,8.078,0,0,0-2.376,5.955,8.3,8.3,0,0,0,8.016,8.3,6.665,6.665,0,0,0,4.423-1.661,5.907,5.907,0,0,0,2.19-4.008h-5.511Z" transform="translate(-138 -1161.603)" fill="#80712d"/>
        <path id="Path_1653" data-name="Path 1653" d="M584.255,1168.973v13.314a7.326,7.326,0,0,0,.93,4.165,4.977,4.977,0,0,0,7.83,0,7.2,7.2,0,0,0,.931-4.165v-13.314h3.335v14.23a7.96,7.96,0,0,1-2.176,5.754,8.416,8.416,0,0,1-12.01,0,7.96,7.96,0,0,1-2.176-5.754v-14.23Z" transform="translate(-555.123 -1168.544)" fill="#80712d"/>
      </g>
      <g id="Group_419" data-name="Group 419" transform="translate(46.352 0)">
        <path id="Path_1654" data-name="Path 1654" d="M947.468,1165.325l-2.706,1.6a4.649,4.649,0,0,0-1.446-1.717,3.372,3.372,0,0,0-1.846-.458,3.414,3.414,0,0,0-2.3.787,2.441,2.441,0,0,0-.916,1.947q0,1.617,2.405,2.605l2.2.9a9.409,9.409,0,0,1,3.937,2.655,5.983,5.983,0,0,1,1.245,3.843,6.753,6.753,0,0,1-2.033,5.039,6.977,6.977,0,0,1-5.082,2,6.8,6.8,0,0,1-4.753-1.7,7.843,7.843,0,0,1-2.3-4.8l3.378-.744a5.744,5.744,0,0,0,.8,2.691,3.809,3.809,0,0,0,5.6.387,3.617,3.617,0,0,0,1.031-2.648,3.724,3.724,0,0,0-.179-1.181,3,3,0,0,0-.559-.988,4.453,4.453,0,0,0-.98-.844,9.532,9.532,0,0,0-1.432-.752l-2.133-.887q-4.538-1.919-4.538-5.611a5.324,5.324,0,0,1,1.9-4.166,6.881,6.881,0,0,1,4.738-1.689A6.617,6.617,0,0,1,947.468,1165.325Z" transform="translate(-933.869 -1161.603)" fill="#80712d"/>
      </g>
      <g id="Group_420" data-name="Group 420" transform="translate(62.642 0.429)">
        <path id="Path_1655" data-name="Path 1655" d="M1222,1172.108v18.968h-3.335v-18.968h-5.082v-3.135h13.485v3.135Z" transform="translate(-1213.585 -1168.973)" fill="#80712d"/>
      </g>
      <g id="Group_421" data-name="Group 421" transform="translate(77.302 0.014)">
        <path id="Path_1656" data-name="Path 1656" d="M1465.287,1173.208a10.824,10.824,0,0,1,3.421-8.016,11.262,11.262,0,0,1,8.188-3.35,11.56,11.56,0,0,1,11.5,11.5,10.867,10.867,0,0,1-3.407,8.088,11.679,11.679,0,0,1-15.947.372A10.859,10.859,0,0,1,1465.287,1173.208Zm3.364.043a7.99,7.99,0,0,0,2.462,6.027,8.156,8.156,0,0,0,11.524-.043,8.578,8.578,0,0,0,.029-11.853,8.241,8.241,0,0,0-11.638,0A7.973,7.973,0,0,0,1468.651,1173.252Z" transform="translate(-1465.287 -1161.842)" fill="#80712d"/>
      </g>
    </g>
    <g id="Group_430" data-name="Group 430" transform="translate(140.624 1188.652)">
      <g id="Group_423" data-name="Group 423" transform="translate(0 0.115)">
        <path id="Path_1657" data-name="Path 1657" d="M183.059,1633.91v-5.894h.886a3.874,3.874,0,0,1,.943.092,1.425,1.425,0,0,1,.6.309,1.607,1.607,0,0,1,.393.561,1.694,1.694,0,0,1,.149.687,1.392,1.392,0,0,1-.485,1.073,1.424,1.424,0,0,1,.741.561,1.586,1.586,0,0,1,.275.924,1.57,1.57,0,0,1-.489,1.169,1.607,1.607,0,0,1-.66.408,3.843,3.843,0,0,1-1,.111Zm.89-3.363h.279a1.028,1.028,0,0,0,.727-.219.853.853,0,0,0,.231-.647.812.812,0,0,0-.237-.632.988.988,0,0,0-.687-.216h-.313Zm0,2.527h.55a1.364,1.364,0,0,0,.885-.236.818.818,0,0,0,.3-.649.832.832,0,0,0-.287-.641,1.484,1.484,0,0,0-1-.256h-.45Z" transform="translate(-183.059 -1628.016)" fill="#80712d"/>
        <path id="Path_1658" data-name="Path 1658" d="M263.322,1628.016v5.894h-.89v-5.894Z" transform="translate(-257.809 -1628.016)" fill="#80712d"/>
      </g>
      <g id="Group_424" data-name="Group 424" transform="translate(6.634 0)">
        <path id="Path_1659" data-name="Path 1659" d="M300.6,1627.038l-.721.428a1.241,1.241,0,0,0-.386-.458.9.9,0,0,0-.493-.122.909.909,0,0,0-.615.209.652.652,0,0,0-.244.52q0,.431.641.695l.588.24a2.513,2.513,0,0,1,1.05.708,1.6,1.6,0,0,1,.332,1.025,1.8,1.8,0,0,1-.542,1.343,1.859,1.859,0,0,1-1.355.535,1.815,1.815,0,0,1-1.267-.454,2.094,2.094,0,0,1-.615-1.279l.9-.2a1.531,1.531,0,0,0,.214.718,1.017,1.017,0,0,0,1.493.1.966.966,0,0,0,.275-.706.994.994,0,0,0-.048-.315.808.808,0,0,0-.149-.264,1.208,1.208,0,0,0-.262-.225,2.622,2.622,0,0,0-.382-.2l-.569-.236a1.637,1.637,0,0,1-1.21-1.5,1.42,1.42,0,0,1,.507-1.111,1.833,1.833,0,0,1,1.264-.451A1.764,1.764,0,0,1,300.6,1627.038Z" transform="translate(-296.974 -1626.045)" fill="#80712d"/>
      </g>
      <g id="Group_425" data-name="Group 425" transform="translate(10.979 0.115)">
        <path id="Path_1660" data-name="Path 1660" d="M373.809,1628.845v5.058h-.889v-5.058h-1.355v-.836h3.6v.836Z" transform="translate(-371.564 -1628.009)" fill="#80712d"/>
      </g>
      <g id="Group_426" data-name="Group 426" transform="translate(15.368 0.115)">
        <path id="Path_1661" data-name="Path 1661" d="M448.925,1631.391l1.825,2.512h-1.088l-1.683-2.412h-.16v2.412h-.889v-5.894h1.042a2.6,2.6,0,0,1,1.687.439,1.613,1.613,0,0,1,.573,1.29,1.675,1.675,0,0,1-.359,1.076A1.6,1.6,0,0,1,448.925,1631.391Zm-1.107-.676h.282q1.263,0,1.264-.966,0-.9-1.229-.9h-.317Z" transform="translate(-446.929 -1628.009)" fill="#80712d"/>
      </g>
      <g id="Group_427" data-name="Group 427" transform="translate(19.647 0.004)">
        <path id="Path_1662" data-name="Path 1662" d="M520.41,1629.148a2.887,2.887,0,0,1,.912-2.138,3,3,0,0,1,2.184-.893,3.083,3.083,0,0,1,3.066,3.065,2.9,2.9,0,0,1-.909,2.157,3.114,3.114,0,0,1-4.252.1A2.9,2.9,0,0,1,520.41,1629.148Zm.9.012a2.131,2.131,0,0,0,.656,1.607,2.175,2.175,0,0,0,3.073-.012,2.287,2.287,0,0,0,.007-3.16,2.078,2.078,0,0,0-1.55-.641,2.1,2.1,0,0,0-1.554.641A2.126,2.126,0,0,0,521.307,1629.16Z" transform="translate(-520.41 -1626.117)" fill="#80712d"/>
        <path id="Path_1663" data-name="Path 1663" d="M685.381,1629.09l1.062,1.283.034-.038q.172-.187.325-.367c.1-.12.2-.24.294-.362l.581.6q-.107.152-.281.355t-.414.466l1.092,1.347h-1.107l-.588-.721a2.355,2.355,0,0,1-1.683.836,1.9,1.9,0,0,1-1.328-.5,1.641,1.641,0,0,1-.535-1.245,1.732,1.732,0,0,1,.847-1.466l.386-.263a.21.21,0,0,0,.027-.02l.053-.042a1.824,1.824,0,0,1-.584-1.226,1.282,1.282,0,0,1,.39-.969,1.579,1.579,0,0,1,2.027-.012,1.188,1.188,0,0,1,.4.916,1.171,1.171,0,0,1-.217.691A3.7,3.7,0,0,1,685.381,1629.09Zm-.706.5-.05.034a4.317,4.317,0,0,0-.744.607.739.739,0,0,0-.195.485,1.006,1.006,0,0,0,.966.966,1.845,1.845,0,0,0,1.187-.675Zm.191-1.126.072-.054q.187-.141.309-.246a1.144,1.144,0,0,0,.176-.177.532.532,0,0,0,.114-.347.494.494,0,0,0-.157-.378.593.593,0,0,0-.42-.145.579.579,0,0,0-.4.149.456.456,0,0,0-.164.363.805.805,0,0,0,.206.512l.221.267A.439.439,0,0,0,684.866,1628.464Z" transform="translate(-673.371 -1626.365)" fill="#80712d"/>
      </g>
      <g id="Group_428" data-name="Group 428" transform="translate(37.173 0)">
        <path id="Path_1664" data-name="Path 1664" d="M824.447,1626.042a3.009,3.009,0,0,1,1.535.431v1.053a2.467,2.467,0,0,0-1.6-.645,2.032,2.032,0,0,0-1.531.653,2.2,2.2,0,0,0-.626,1.588,2.148,2.148,0,0,0,.626,1.565,2.068,2.068,0,0,0,1.535.637,1.885,1.885,0,0,0,.8-.153,2.317,2.317,0,0,0,.38-.206,4.516,4.516,0,0,0,.414-.313v1.073a3.212,3.212,0,0,1-1.6.431,2.958,2.958,0,0,1-2.157-.882,2.924,2.924,0,0,1-.89-2.146,3.026,3.026,0,0,1,.745-2.008,2.963,2.963,0,0,1,2.37-1.08Z" transform="translate(-821.332 -1626.042)" fill="#80712d"/>
      </g>
      <g id="Group_429" data-name="Group 429" transform="translate(42.613 0)">
        <path id="Path_1665" data-name="Path 1665" d="M914.741,1629.148a2.887,2.887,0,0,1,.912-2.138,3,3,0,0,1,2.184-.893,3.083,3.083,0,0,1,3.066,3.065,2.9,2.9,0,0,1-.909,2.157,3.114,3.114,0,0,1-4.252.1A2.9,2.9,0,0,1,914.741,1629.148Zm.9.012a2.131,2.131,0,0,0,.656,1.607,2.175,2.175,0,0,0,3.073-.012,2.287,2.287,0,0,0,.007-3.16,2.2,2.2,0,0,0-3.1,0A2.126,2.126,0,0,0,915.638,1629.16Z" transform="translate(-914.741 -1626.113)" fill="#80712d"/>
        <path id="Path_1666" data-name="Path 1666" d="M1042.678,1628.852h-2.053v1.416h1.981v.836h-1.981v2.805h-.89v-5.894h2.943Z" transform="translate(-1032.455 -1627.901)" fill="#80712d"/>
        <path id="Path_1667" data-name="Path 1667" d="M1110.908,1628.852h-2.054v1.416h1.981v.836h-1.981v2.805h-.89v-5.894h2.943Z" transform="translate(-1096.712 -1627.901)" fill="#80712d"/>
        <path id="Path_1668" data-name="Path 1668" d="M1179.453,1628.852h-2.363v1.416h2.294v.836h-2.294v1.969h2.363v.836H1176.2v-5.894h3.252Z" transform="translate(-1160.973 -1627.901)" fill="#80712d"/>
        <path id="Path_1669" data-name="Path 1669" d="M1255.351,1628.852h-2.363v1.416h2.294v.836h-2.294v1.969h2.363v.836H1252.1v-5.894h3.252Z" transform="translate(-1232.451 -1627.901)" fill="#80712d"/>
        <path id="Path_1670" data-name="Path 1670" d="M1370.314,1630.322h2.542v-2.306h.89v5.894h-.89v-2.753h-2.542v2.753h-.89v-5.894h.89Z" transform="translate(-1342.943 -1627.901)" fill="#80712d"/>
        <path id="Path_1671" data-name="Path 1671" d="M1462.826,1629.148a2.888,2.888,0,0,1,.912-2.138,3,3,0,0,1,2.184-.893,3.083,3.083,0,0,1,3.066,3.065,2.9,2.9,0,0,1-.909,2.157,3.114,3.114,0,0,1-4.252.1A2.9,2.9,0,0,1,1462.826,1629.148Zm.9.012a2.131,2.131,0,0,0,.656,1.607,2.175,2.175,0,0,0,3.073-.012,2.287,2.287,0,0,0,.007-3.16,2.078,2.078,0,0,0-1.55-.641,2.1,2.1,0,0,0-1.554.641A2.127,2.127,0,0,0,1463.723,1629.16Z" transform="translate(-1430.905 -1626.113)" fill="#80712d"/>
        <path id="Path_1672" data-name="Path 1672" d="M1588.709,1628.016v3.551a1.95,1.95,0,0,0,.248,1.11,1.327,1.327,0,0,0,2.088,0,1.918,1.918,0,0,0,.248-1.11v-3.551h.889v3.795a2.123,2.123,0,0,1-.58,1.534,2.244,2.244,0,0,1-3.2,0,2.122,2.122,0,0,1-.58-1.534v-3.795Z" transform="translate(-1548.62 -1627.901)" fill="#80712d"/>
        <path id="Path_1673" data-name="Path 1673" d="M1685.571,1627.038l-.721.428a1.241,1.241,0,0,0-.385-.458,1.028,1.028,0,0,0-1.107.088.652.652,0,0,0-.244.52q0,.431.641.695l.588.24a2.514,2.514,0,0,1,1.05.708,1.6,1.6,0,0,1,.332,1.025,1.8,1.8,0,0,1-.542,1.343,1.858,1.858,0,0,1-1.355.535,1.815,1.815,0,0,1-1.267-.454,2.094,2.094,0,0,1-.615-1.279l.9-.2a1.53,1.53,0,0,0,.214.718,1.017,1.017,0,0,0,1.493.1.966.966,0,0,0,.275-.706.993.993,0,0,0-.048-.315.811.811,0,0,0-.149-.264,1.212,1.212,0,0,0-.262-.225,2.618,2.618,0,0,0-.382-.2l-.569-.236a1.637,1.637,0,0,1-1.21-1.5,1.42,1.42,0,0,1,.508-1.111,1.833,1.833,0,0,1,1.264-.451A1.764,1.764,0,0,1,1685.571,1627.038Z" transform="translate(-1637.262 -1626.045)" fill="#80712d"/>
        <path id="Path_1674" data-name="Path 1674" d="M1768.5,1628.852h-2.363v1.416h2.294v.836h-2.294v1.969h2.363v.836h-3.252v-5.894h3.252Z" transform="translate(-1715.714 -1627.901)" fill="#80712d"/>
      </g>
    </g>
  </g>
</svg>
