<svg xmlns="http://www.w3.org/2000/svg" width="54.176" height="58.416" viewBox="0 0 54.176 58.416">
  <g id="Group_576" data-name="Group 576" transform="translate(-210.221 -148.404)">
    <g id="Group_392" data-name="Group 392" transform="translate(216.831 148.404)">
      <path id="Path_907" data-name="Path 907" d="M701.554,168.907l-.027-.3a3.487,3.487,0,0,0-.447.091,1.209,1.209,0,0,1-.922-.029c-.1-.043-.232,0-.349-.007a1.217,1.217,0,0,1-.393-.06c-.15-.066-.362-.083-.377-.326,0-.035-.1-.1-.133-.092-.159.059-.271-.054-.362-.122a5.245,5.245,0,0,1-.526-.5l.024-.073c.277-.039.555-.073.832-.117.355-.056.709-.119,1.063-.18.122-.021.243-.048.365-.066.031,0,.09.007.1.024.053.174.167.1.256.057a6.24,6.24,0,0,1,.6-.258l-.174.258c.051.019.079.042.1.037.185-.035.372-.067.554-.116.118-.032.082-.119.024-.179a2.312,2.312,0,0,0-.242-.187c.175-.055.328-.106.483-.15.11-.031.221-.015.224.122,0,.068-.064.141-.107.207a1.166,1.166,0,0,1-.114.129.465.465,0,0,0,.165.057c.183-.012.366-.033.547-.062.2-.033.2-.039.107-.261.13.021.241.043.353.056.206.023.412.045.619.056a.211.211,0,0,0,.125-.068c.048-.044.076-.113.129-.147a1.226,1.226,0,0,1,.225-.092l.071.238a.221.221,0,0,0,.1,0c.122-.044.241-.1.358-.151.144-.067.279-.175.424.013.032.041.136.039.206.036a5.417,5.417,0,0,0,1.207-.172c.442-.119.83-.366,1.273-.46.108-.023.284-.121.313.124,0,.041.079.1.128.106a.618.618,0,0,0,.516-.076,1.821,1.821,0,0,0,.671-.923c.065-.226.12-.455.182-.7a.926.926,0,0,1,.032.75c-.109.226-.218.453-.327.682a.647.647,0,0,0,.549-.285c.022-.041.048-.107.078-.111.251-.03.251-.254.294-.412a3.364,3.364,0,0,0,.08-.67,1.067,1.067,0,0,0-.124-.6,1.469,1.469,0,0,1-.124-.547.937.937,0,0,0-.207-.53.352.352,0,0,0-.11-.06c-.016.04-.053.087-.044.12.034.112.1.216.125.33.053.254.085.513.13.769.013.077.04.151.061.227l-.063.023a2.765,2.765,0,0,1-.106-.291c-.045-.182-.072-.369-.117-.551a1.023,1.023,0,0,0-.478-.758c.1-.013.155-.016.21-.03a1.218,1.218,0,0,0,.148-.058.577.577,0,0,0-.111-.118,1.388,1.388,0,0,0-.711-.114c-.106,0-.229.045-.3-.1-.012-.026-.112-.025-.168-.015-.243.043-.487.082-.725.144a.753.753,0,0,1-.672-.114c-.106-.077-.208-.032-.234.1a.625.625,0,0,1-.037.172c-.055.1-.114.263-.19.274-.164.025-.405.032-.5-.065-.149-.159-.265-.1-.427-.1a1.424,1.424,0,0,1-.474-.165l.013-.066a1.016,1.016,0,0,1,.124-.017c.24,0,.48,0,.719-.012.037,0,.071-.057.107-.088-.035-.023-.07-.065-.105-.065-.084,0-.13-.016-.149-.111-.008-.037-.093-.083-.143-.082a.292.292,0,0,1-.3-.184.658.658,0,0,0-.094-.159c.045-.1.465.093.264-.34.2-.039.383-.082.571-.112.286-.046.573-.084.859-.121.218-.028.436-.052.655-.073.26-.025.522-.034.78-.071a4.053,4.053,0,0,0,.563-.137,3.1,3.1,0,0,0,.345-.139c.156-.067.282-.118.274-.358a2.038,2.038,0,0,1,.2-.712l.024.322h.215a2.392,2.392,0,0,0-.095-1.056c-.218.062-.186-.118-.251-.237a1.38,1.38,0,0,0-.981-.737c-.215-.042-.429-.1-.623-.14l.1-.177c-.034-.017-.089-.055-.1-.046a1.314,1.314,0,0,0-.126.173c-.207,0-.451,0-.694,0-.081,0-.161-.035-.242-.039-.717-.029-1.435-.046-2.152-.085a9.116,9.116,0,0,1-.915-.122.366.366,0,0,1-.172-.092c-.295-.263-.583-.533-.878-.8-.1-.085-.084-.153.014-.212a1.764,1.764,0,0,1,1-.327,1.942,1.942,0,0,0,.4-.071c.284-.051.6-.2.845-.124a2.258,2.258,0,0,0,.756-.005,5.2,5.2,0,0,0,1.289-.131,2.45,2.45,0,0,1,.658-.059,1.671,1.671,0,0,0,.391-.089c.216-.048.434-.087.648-.141a.851.851,0,0,0,.732-.607,1.425,1.425,0,0,0,.011-.57q-.286-1.473-.6-2.94c-.132-.61-.291-1.214-.435-1.821-.152-.64-.084-.745.52-.982a2.635,2.635,0,0,1,1.9-.021c.62.22,1.236.457,1.833.733a1.9,1.9,0,0,1,1.25,2.2c-.1.874-.272,1.74-.423,2.608-.013.075-.106.134-.155.2a.352.352,0,0,0-.079.165c0,.027.085.056.147.094l-.05.3.519-.107a.668.668,0,0,0,.017.173c.015.039.061.067.093.1.027-.032.065-.061.077-.1.025-.079.017-.221.058-.235a1.138,1.138,0,0,1,.465-.073c.176.018.343.12.52.145a1.059,1.059,0,0,0,.34-.075,1.28,1.28,0,0,1,.26-.049c.456-.005.912,0,1.368-.006.428-.01.859-.08,1.284-.048a14.284,14.284,0,0,1,1.519.246.322.322,0,0,1,.259.328.454.454,0,0,1-.256.418,2.552,2.552,0,0,1-.379.144c-.121.027-.193.073-.188.223h-.224a.715.715,0,0,0-.438.1,1.132,1.132,0,0,1-.446.092,8.677,8.677,0,0,1-1.856.193c-.054,0-.113.054-.168.085-.014.008-.022.035-.035.037a3.218,3.218,0,0,1-.787.111c-.141-.012-.284-.131-.459-.1a2.646,2.646,0,0,0-.846.225c-.182.094-.383.15-.572.231a1.854,1.854,0,0,0-1.037,1.1,1.66,1.66,0,0,0-.029,1.152,2.674,2.674,0,0,0,.362.756,1.27,1.27,0,0,0,.6.388,2.876,2.876,0,0,0,.96.123,1.717,1.717,0,0,0,.825-.168,1.145,1.145,0,0,1,.513-.124,10.3,10.3,0,0,1,1.079,0c.234.013.464.081.7.114a.39.39,0,0,1,.337.242.308.308,0,0,0,.172.141.6.6,0,0,1,.4.354.119.119,0,0,1-.039.11c-.129.063-.267.108-.4.172a.305.305,0,0,1-.324-.033.7.7,0,0,0-.435-.037c-.322.061-.638.154-.957.235-.2.051-.4.115-.6.15a2.234,2.234,0,0,1-.4,0c-.051,0-.112-.022-.151,0a.677.677,0,0,0-.141.136.689.689,0,0,0,.179.068,2.723,2.723,0,0,1,.383.032,2.2,2.2,0,0,1-.75.106,5.673,5.673,0,0,0-1.078.012,1.955,1.955,0,0,0-.705.221,2,2,0,0,0-.847,1.006,1.072,1.072,0,0,0-.066.254c-.02.119.02.228-.092.351-.075.082-.017.295,0,.447a3.4,3.4,0,0,0,.095.536c.053.189.049.411.292.509a.187.187,0,0,1,.106.27c-.039.078.13.279.255.277.327,0,.653-.03.979-.046.1,0,.2,0,.3-.008l1.348-.069c.012-.4.353-.255.543-.293a2.8,2.8,0,0,1,.7.068c.174.013.4.068.516-.017.305-.227.632-.106.946-.146l.509-.063c.006,0,.016,0,.017,0,.114-.27.412-.175.6-.3a.381.381,0,0,1,.347-.035c.148.044.332-.049.5-.057.207-.01.323-.177.492-.251.076-.034.136-.082.184.036.01.026.079.028.122.039a.7.7,0,0,0,.2.043,2.671,2.671,0,0,0,.319-.056c.313-.058.626-.111.937-.177a1.111,1.111,0,0,0,.26-.113c.1-.05.194-.107.306-.169-.009.122-.014.192-.019.261a1.92,1.92,0,0,0,.245.011c.094-.007.186-.031.279-.047.3-.052.591-.111.888-.155.244-.036.479-.177.741-.042.075.039.187.006.3.006-.02.181.082.194.218.194a1.338,1.338,0,0,1,.754.258,4.69,4.69,0,0,0,.713.3,3.773,3.773,0,0,1,.743.357c.152.112.269.268.438.383.141.1.2.321.278.5.018.039-.018.115-.049.16a2.511,2.511,0,0,1-.173.209c-.2-.039-.34-.072-.484-.093-.085-.012-.135.023-.128.124,0,.038-.03.111-.05.112-.2.011-.451.09-.581,0-.341-.243-.647-.037-.967-.022-.232.011-.465.025-.7.019-.056,0-.105-.094-.166-.109a1.943,1.943,0,0,0-.431-.069c-.384-.008-.768,0-1.152,0-.116,0-.23.046-.347.056-.087.008-.177-.013-.265-.011a2.325,2.325,0,0,0-.639.026,1.9,1.9,0,0,1-1.234.026.916.916,0,0,0-.279-.021c-.2,0-.393,0-.589-.005-.162,0-.324,0-.485-.006a2.339,2.339,0,0,0-.946.116.361.361,0,0,1-.115,0l-.041-.194c-.185-.011-.377-.034-.569-.032-.171,0-.344.052-.513.038-.1-.008-.194-.1-.292-.152a.18.18,0,0,0-.065-.029c-.3-.025-.6-.05-.907-.067-.034,0-.071.041-.106.062.031.034.055.086.093.1a1.847,1.847,0,0,1,.348.129.408.408,0,0,1-.107.025c-.487-.018-.974-.038-1.461-.057-.024,0-.06,0-.069-.011-.194-.281-.417-.062-.6-.006a1.077,1.077,0,0,1-.893-.038.679.679,0,0,0-.286-.071c-.191-.008-.206.027-.1.22-.05.008-.095.019-.14.022-.422.026-.845.035-1.265.079-.286.03-.567.113-.852.16-.06.01-.127-.038-.193-.052a.467.467,0,0,0-.168-.015c-.144.024-.286.058-.428.092a.406.406,0,0,0-.178.061,1.065,1.065,0,0,1-.7.252c-.335.019-.672,0-1.007.011a6.2,6.2,0,0,0-.621.089c-.09-.231-.249-.041-.354-.017-.318.075-.627.194-.938.3-.089.03-.175.071-.262.105-.066.026-.135.044-.2.075-.179.088-.391-.071-.57.1a3.525,3.525,0,0,1-.5.334l-.027-.251-.441.075c-.052.009-.122.038-.156.016-.183-.119-.331.01-.495.046a2.313,2.313,0,0,1-.509.073,3.265,3.265,0,0,0-1.373.485c-.133.061-.263.126-.395.19Zm5.946-2.127c.161-.062.3-.112.44-.174A.14.14,0,0,0,708,166.5c0-.021-.057-.061-.087-.06a2.7,2.7,0,0,0-.443.034c-.081.016-.186.07-.135.185C707.354,166.707,707.434,166.733,707.5,166.78Zm2.206-8.618c-.033.2.245.6.4.581C710.119,158.485,709.889,158.155,709.706,158.161Zm.359,2-.052-.052c-.045.029-.109.047-.131.088a1.809,1.809,0,0,0-.118.3.148.148,0,0,0,.084.041c.042,0,.108-.019.119-.047A3.262,3.262,0,0,0,710.065,160.163Zm15.76,6.489.21-.138c-.06-.043-.129-.13-.178-.12a.87.87,0,0,0-.25.146Zm1.4-.315-.145.133a.506.506,0,0,0,.164.08c.043,0,.091-.045.136-.07Z" transform="translate(-687.897 -148.404)" fill="#a24a3f"/>
      <path id="Path_908" data-name="Path 908" d="M853.288,768.626c-.164,0-.328-.007-.491,0-.047,0-.091.057-.136.087a.447.447,0,0,0,.133.076.816.816,0,0,0,.553,0,.666.666,0,0,1,.141-.076.291.291,0,0,1,.135.016c.06.016.131.07.174.052a.372.372,0,0,0,.18-.164.66.66,0,0,0,.006-.248l-.436-.021c0-.027,0-.053,0-.08.132,0,.265-.01.4,0a1.894,1.894,0,0,0,1.028-.374,1.583,1.583,0,0,1,.247-.118,3.23,3.23,0,0,1,.472-.109,1.13,1.13,0,0,1,.281.027c.1.013.186.05.269-.09.053-.089.228-.114.353-.151a.823.823,0,0,1,.221,0l.008.055a.544.544,0,0,0-.116.043c-.051.033-.139.083-.135.113.029.184-.1.218-.234.268-.048-.154-.165-.159-.294-.133a2.9,2.9,0,0,0-.344.078c-.04.014-.094.08-.089.114.007.05.062.093.115.165a1.294,1.294,0,0,0-.209.031.412.412,0,0,0-.11.083c.04.026.078.068.121.074a1.74,1.74,0,0,0,.755-.157,4.349,4.349,0,0,0,.625-.172,2.112,2.112,0,0,1,.648-.147c.14-.019.278-.049.416-.078.237-.049.473-.1.721-.155.011-.23.174-.283.357-.328s.381-.119.573-.175a.482.482,0,0,1,.129,0l.035.061c-.027.01-.064.011-.079.031a.734.734,0,0,0-.066.126c.041.015.085.048.122.041a1.9,1.9,0,0,0,.307-.087.106.106,0,0,0,.045-.086c-.01-.177.055-.173.191-.1a3.682,3.682,0,0,0,.943.209c.31.067.616.152.919.244.326.1.653.2.967.326a1.071,1.071,0,0,1,.6.8.874.874,0,0,1-.064.6.157.157,0,0,0-.008.122c.127.193-.013.381,0,.571a.143.143,0,0,1-.051.108c-.235.157-.108.387-.119.586-.009.15,0,.3,0,.451a3.59,3.59,0,0,1-.2,1.021,6.156,6.156,0,0,0-.076.761c-.053.391-.122.779-.183,1.169a.928.928,0,0,0-.009.143q0,1.143,0,2.286c0,.041,0,.095.019.12a.927.927,0,0,1,.171.58c.045.382.086.765.131,1.148,0,.027.017.069.035.074.177.047.156.19.162.32.021.435.038.869.062,1.3.009.153.045.3.049.457,0,.1-.057.211-.046.312.048.416.112.83.172,1.245.02.14.056.278.07.418.028.278.053.556.064.835,0,.1-.071.218-.045.31.088.316-.053.622-.014.932.017.136-.006.239-.171.23a1.515,1.515,0,0,1-.042.165.407.407,0,0,0,.146.512.2.2,0,0,1,.061.161q-.081.395-.187.784c-.046.169-.161.321-.118.511.01.046.009.1.023.14a.468.468,0,0,1-.473.662h-.306c-.03,0-.072.012-.088,0-.243-.233-.517-.031-.774-.055-.236-.022-.335-.062-.409-.238-.413-.094-.815-.18-1.213-.282-.091-.023-.161-.116-.25-.156-.182-.082-.371-.15-.556-.225a.328.328,0,0,1-.093-.052c-.5-.432-1.006-.853-1.487-1.3-.294-.274-.546-.593-.837-.915.082-.057.134-.123.181-.119a2.012,2.012,0,0,1,.556.083,5.067,5.067,0,0,0,1.035.294c.2.03.4.1.608.114a3.229,3.229,0,0,0,.56-.058c.016,0,.037-.031.044-.026.286.167.464-.136.707-.176.115-.019.234-.214.29-.354a1.988,1.988,0,0,0,.088-.539.347.347,0,0,0-.146-.343.146.146,0,0,1-.037-.1q-.009-.395-.01-.789c0-.1-.068-.215.074-.283.028-.013.04-.082.041-.126a9.919,9.919,0,0,0-.01-1.366c-.092-.688-.022-1.373-.052-2.058a.241.241,0,0,0-.015-.1,1.112,1.112,0,0,1-.055-.849.833.833,0,0,0,.006-.107c.02-.231.053-.461.058-.693,0-.177-.044-.354-.042-.531,0-.231.039-.462.046-.693a.2.2,0,0,0-.1-.143c-.143-.071-.077-.191-.07-.283a6.519,6.519,0,0,0,.1-1.255,3.007,3.007,0,0,1,.25-1.253c.033-.117.105-.224.131-.341a.289.289,0,0,0-.091-.34.18.18,0,0,1-.066-.06.5.5,0,0,1-.072-.208c0-.032.1-.06.2-.082-.024-.3-.043-.6-.072-.9-.016-.164-.056-.326-.074-.491a1.889,1.889,0,0,0-.679-1.317.233.233,0,0,0-.126-.057c-.584-.023-1.168-.061-1.751-.051a5.544,5.544,0,0,0-.847.155c-.21.037-.423.054-.632.1-.345.071-.686.159-1.03.232a1.008,1.008,0,0,1-.284.012,3.435,3.435,0,0,0-1.13.12c-.228.058-.464.089-.694.139-.12.026-.235.077-.356.093a2.272,2.272,0,0,1-.345,0,1.665,1.665,0,0,0-.33,0c-.248.046-.493.108-.738.171s-.481.119-.713.2a.814.814,0,0,0-.477.636,1.992,1.992,0,0,0-.062.475,2.434,2.434,0,0,0,.053.329,3.55,3.55,0,0,0,.073.638,2.833,2.833,0,0,0,.37.833.944.944,0,0,0,.74.367,1.739,1.739,0,0,0,.894-.111.084.084,0,0,1,.053-.008,8.962,8.962,0,0,0,1.366-.071c.46.029.923,0,1.385,0,.275,0,.552-.012.826.007a.774.774,0,0,1,.758.452.554.554,0,0,0,.106.142c.067.076.15.148-.014.211a.094.094,0,0,0-.032.088.128.128,0,0,0,.089.059c.09.008.181,0,.311,0-.251.223-.453.2-.526-.054l-.874.056a.438.438,0,0,1-.16.008,2.314,2.314,0,0,0-.97.028c-.447.027-.89.117-1.335.175-.2.026-.4.043-.6.059-.32.026-.642.039-.961.077a2.183,2.183,0,0,0-1.018.265,1.055,1.055,0,0,0-.531.769c-.042.613-.053,1.228-.069,1.843a1.339,1.339,0,0,0,.059.3c0,.006,0,.016.005.016.247.038.178.4.431.427.249.341.532.076.8.041a1.358,1.358,0,0,0,.276-.1l.018.2a2.579,2.579,0,0,0,.312-.056,1.917,1.917,0,0,1,1.045-.133c.415.112.8-.071,1.2-.022.045.006.1-.09.145-.146a5.3,5.3,0,0,1,1.977-.138.643.643,0,0,1,.706.518c.009.047.062.086.108.145-.2.225-.492.221-.744.31-.04.215-.038.211-.244.116a.652.652,0,0,0-.254-.067c-.432-.006-.865-.018-1.3.007a4.5,4.5,0,0,0-.724.15c-.2.046-.4.108-.6.142-.074.013-.16-.051-.238-.046-.141.009-.279.046-.419.068-.385.059-.77.119-1.155.172-.124.017-.255,0-.376.022a4.315,4.315,0,0,0-.781.2.8.8,0,0,0-.449.625c-.052.241-.126.477-.175.719a5.545,5.545,0,0,0-.085.614c0,.048.049.1.093.183a6.562,6.562,0,0,0-.2.7,1.909,1.909,0,0,0,.03.471c.008.105.011.211.021.316a2.4,2.4,0,0,1,.048.45c-.048.506-.118,1.011-.178,1.516-.025.206-.046.413-.07.619-.041.359-.069.72-.13,1.076a4.6,4.6,0,0,1-.193.678.291.291,0,0,1-.3.2,2.39,2.39,0,0,1-1.465-.393,1.539,1.539,0,0,1-.621-.848c-.044-.151-.029-.319-.071-.471a3.768,3.768,0,0,0-.18-.427c-.028-.067-.077-.144-.065-.207.045-.236.114-.467.168-.7.019-.081.017-.166.031-.248.047-.272.093-.545.146-.816.024-.126.068-.249.094-.374s-.033-.141-.134-.1l-.32.121c.09-.259.166-.487.25-.712.208-.561.457-1.11.62-1.684.222-.776.4-1.567.559-2.359.142-.7.244-1.417.347-2.129a18.8,18.8,0,0,0,.151-5.074c-.039-.3-.092-.6-.141-.921l.2.018-.027-.3-.23.024-.054-.229.045-.017a.23.23,0,0,0,.044.062.983.983,0,0,0,.113.062.329.329,0,0,0,.047-.106c.006-.11,0-.221,0-.332a.522.522,0,0,1,.058,0l.178.032a1.288,1.288,0,0,0-.027-.178c-.052-.178-.2-.088-.3-.088-.043,0-.1.114-.123.185a.976.976,0,0,0-.015.241l-.05.007c-.034-.144-.062-.291-.1-.433-.077-.271-.166-.538-.24-.81-.091-.335-.007-.451.34-.447.432,0,.863.025,1.295.045.641.031,1.281.066,1.921.1a.284.284,0,0,1,.146.039.42.42,0,0,0,.424.015,1.276,1.276,0,0,1,.351-.093c.02,0,.073.043.07.06-.042.25.155.3.325.376Zm-1.794-.195v0l-.268.012c-.161.008-.1.132-.108.215s.01.17.12.143c.2-.049.389-.112.579-.18a.131.131,0,0,0,.049-.117c-.007-.029-.066-.061-.1-.065A2.489,2.489,0,0,0,851.494,768.432Zm-1.717.3-.043-.014-.145.137a.7.7,0,0,0,.2.134.824.824,0,0,0,.3,0c.045-.007.083-.057.123-.088a.514.514,0,0,0-.127-.064,2.558,2.558,0,0,0-.255-.025l.006-.074c.151,0,.3.006.452,0,.036,0,.069-.055.1-.084-.032-.026-.064-.073-.1-.074-.165-.008-.331,0-.5,0Zm-.524,8.351h-.008a.376.376,0,0,0,.005-.125,1.061,1.061,0,0,0-.08-.164.637.637,0,0,0-.08.151,2.255,2.255,0,0,1-.093.465.268.268,0,0,0,.03.278.129.129,0,0,0,.094.054c.018,0,.051-.047.055-.076C849.205,777.469,849.228,777.275,849.253,777.08Zm-.123-.744.016,0a.721.721,0,0,0,0,.161.828.828,0,0,0,.07.153.506.506,0,0,0,.089-.154c.022-.134.016-.272.037-.406s.091-.256-.08-.364c-.06-.038-.1-.114-.154-.043-.03.04.006.135.023.2.009.038.061.073.058.1C849.179,776.107,849.151,776.221,849.13,776.336Zm.884-3.884a2.418,2.418,0,0,0-.315.082c-.021.008-.032.121-.015.131a.369.369,0,0,1,.162.33c0,.028.057.066.092.072s.072-.046.073-.072C850.017,772.824,850.013,772.653,850.013,772.452Zm-2.046,10.032c-.049,0-.078,0-.108,0-.135-.011-.119.094-.12.17,0,.04.042.081.065.121.055-.043.111-.085.163-.13a.51.51,0,0,0,.113-.118.661.661,0,0,0,.077-.208c0-.023-.055-.056-.085-.085-.026.052-.054.1-.078.156A.769.769,0,0,0,847.968,782.484Zm1.5-14.13a.968.968,0,0,0,.194,0c.036-.008.066-.049.1-.075-.029-.03-.054-.078-.089-.086a.443.443,0,0,0-.2,0c-.092.023-.264-.075-.265.077C849.215,768.446,849.4,768.316,849.472,768.354Zm-.07,2.382.063-.06c-.049-.11-.093-.222-.153-.326-.01-.017-.126,0-.128.009a.483.483,0,0,0-.009.27C849.207,770.688,849.323,770.7,849.4,770.736ZM849.82,774a3,3,0,0,0-.005-.376.14.14,0,0,0-.109-.085c-.1.013-.16.214-.1.356C849.624,773.944,849.722,773.958,849.82,774Zm-.185-4.073-.046-.047c-.043.029-.122.058-.123.088a1.594,1.594,0,0,0,.045.287c.041-.026.11-.046.118-.079A1.193,1.193,0,0,0,849.636,769.93Zm5.388-1.387.005-.054c-.033-.023-.072-.069-.1-.063a.625.625,0,0,0-.155.081c.029.029.057.081.086.081A.552.552,0,0,0,855.023,768.543Z" transform="translate(-831.894 -745.852)" fill="#a24a3f"/>
      <path id="Path_909" data-name="Path 909" d="M487.69,854.433c-.046.286-.262.529-.16.823l-.3.514c-.006.01-.011.024-.02.029-.187.111-.172.29-.166.471a.3.3,0,0,1-.052.127c-.041.078-.117.153-.121.233a.544.544,0,0,1-.359.468.117.117,0,0,0-.043.087.081.081,0,0,0,.046.064.141.141,0,0,0,.1-.021c.021-.014.021-.069.04-.075a.52.52,0,0,1,.167-.025c.012,0,.038.067.035.068a.986.986,0,0,1-.125.066.216.216,0,0,1-.041.012c-.094.113.081.307-.137.393-.014-.049-.014-.089-.034-.111a.757.757,0,0,0-.117-.091c-.016.044-.057.1-.043.13.1.215-.029.413-.043.617-.008.11-.036.2.038.3a.2.2,0,0,1,.015.168c-.083.2-.18.4-.255.556-.065.11-.1.19-.156.26a.317.317,0,0,1-.116.082.4.4,0,0,0-.263.332.734.734,0,0,0,.073.026c.06.014.12.026.18.039-.033.058-.052.14-.1.168-.161.093-.19.206-.069.372a.593.593,0,0,0-.17.032.239.239,0,0,0-.1.114c-.009.022.037.063.05.1a.543.543,0,0,1,.053.188c0,.123-.029.245-.051.409-.088.061-.092.189.023.305a.168.168,0,0,1,0,.156c-.079.124-.188.231-.257.36a.5.5,0,0,0-.006.247c.009.12.106.238,0,.363-.007.008.069.086.086.106-.111.107-.22.229-.346.331-.191.154-.108.305.007.473l-.144.034c-.066.158-.124.288-.174.422a.156.156,0,0,0,0,.122.468.468,0,0,1-.074.573,2.349,2.349,0,0,0-.317.847c-.026.093-.125.165-.19.247l-.072-.037-.228.962c-.069.064-.145.133-.22.2-.1.1-.034.195,0,.292s.081.2.128.324c-.148.007-.215-.051-.223-.19a.348.348,0,0,0-.053-.175.135.135,0,0,0-.131,0,.18.18,0,0,0-.037.143c.009.048.059.087.079.136a.3.3,0,0,1,.029.157c0,.025-.071.047-.112.053a1.293,1.293,0,0,1-.18,0c-.2,0-.277.126-.225.317a.766.766,0,0,1-.012.239l-.213-.031c-.034,0-.069-.007-.13-.012l.057.573-.348-.092a.636.636,0,0,0,.086-.11c.023-.05.063-.126.043-.157a.433.433,0,0,0-.178-.142.668.668,0,0,0-.235-.054.23.23,0,0,0-.156.045c-.1.094-.192.08-.252-.027a1.185,1.185,0,0,1-.272-.7c0-.034-.013-.069-.013-.1,0-.122.006-.243,0-.365a.732.732,0,0,0-.037-.151c-.036.031-.094.058-.1.1-.023.109-.1.118-.152.062a.422.422,0,0,1-.112-.25,3.577,3.577,0,0,1,.043-.568c.025-.179.071-.356.1-.535a.285.285,0,0,0,.009-.157.87.87,0,0,1,.057-.8.391.391,0,0,0,.015-.139c0-.034-.015-.089,0-.1.214-.157.08-.432.2-.609.15-.214.091-.478.2-.7s.184-.455.288-.678c.227-.488.448-.979.7-1.454.314-.593.653-1.173.986-1.755.1-.166.2-.333.442-.236.029.012.09.009.1-.009.125-.2.378-.24.5-.475a5.656,5.656,0,0,1,.669-.825,1.165,1.165,0,0,0,.2-.322,1.14,1.14,0,0,1,.507-.583c-.018-.136,0-.241.2-.225.055,0,.135-.116.177-.194.089-.163.144-.346.245-.5a1.572,1.572,0,0,0,.273-.6.389.389,0,0,1,.191-.272c.123-.04.126-.1.128-.193s.01-.155.128-.148a.135.135,0,0,0,.1-.08C487.279,854.541,487.484,854.511,487.69,854.433Z" transform="translate(-478.112 -830.217)" fill="#a24a3f"/>
      <path id="Path_910" data-name="Path 910" d="M521.323,326.4l.024.223.361.091c.022.006.056.011.061.025.073.194.278.194.417.292a.68.68,0,0,1,.118.124c.03.035.052.1.082.107.157.011.207.146.3.23.03.027.1.057.121.042.223-.164.272.04.314.167s.2.246.137.42c0,.009,0,.031.01.032.258.055.139.31.238.448.007.009.013.027.008.034-.128.211-.018.388.062.581.06.146-.051.237-.249.272-.092.23-.173.435-.257.64a.077.077,0,0,1-.05.043c-.135.008-.279-.008-.337.163a.159.159,0,0,1-.092-.01.743.743,0,0,0-.736.007c-.041.023-.12,0-.173-.027s-.1-.1-.159-.106c-.148-.011-.28-.012-.307-.208,0-.028-.12-.055-.185-.058-.1,0-.143-.027-.16-.14a.875.875,0,0,0-.144-.342c-.022-.032-.132-.005-.227-.005a.472.472,0,0,0,.042-.137.235.235,0,0,0-.042-.159.186.186,0,0,0-.156-.027c-.124.038-.329-.022-.357-.146-.051-.226-.114-.147-.2-.026a.484.484,0,0,1-.092.075c-.057-.1.022-.246-.177-.278a.3.3,0,0,0-.319.094,1.185,1.185,0,0,1-.253-.7c0-.041-.046-.087-.071-.131-.031.04-.059.082-.094.119s-.1.089-.143.133a.62.62,0,0,1-.114-.155.741.741,0,0,0-.354-.5.475.475,0,0,1-.247-.28,2.317,2.317,0,0,0-.326-.517c-.133-.193-.273-.382-.408-.575a1.081,1.081,0,0,1-.1-.176,1.669,1.669,0,0,1-.122-.313.177.177,0,0,1,.163-.234c.31-.016.62-.019.93-.011.049,0,.123.08.139.136a.4.4,0,0,0,.4.314,2.417,2.417,0,0,1,.469.135c.055.017.131.074.159.055a.374.374,0,0,1,.463.076c.254.193.545.1.813.154.114.023.252-.042.376.028.015.008.045,0,.05.013C521.047,326.659,521.177,326.5,521.323,326.4Z" transform="translate(-513.049 -319.429)" fill="#a24a3f"/>
      <path id="Path_911" data-name="Path 911" d="M407.4,607.562c.111.068.174.113.243.147.119.058.253.061.346.2.071.108.234.156.356.231.034.021.094.046.093.067-.008.166.111.138.22.144.06.124.093.288.3.26.016,0,.048.078.066.123.034.083.063.168.095.252.008.021.036.05.03.06-.147.246.132.409.119.628-.006.109.074.235-.083.316-.029.015-.013.141,0,.211s.08.139.083.21a.308.308,0,0,1-.073.211c-.03.03-.123-.01-.187,0a.393.393,0,0,0-.116.051l.08.121c-.111.15-.226.306-.341.461-.016.022-.04.06-.055.058a.277.277,0,0,0-.343.2.609.609,0,0,0-.648-.183c-.129.05-.192,0-.258-.093-.03-.042-.064-.1-.108-.112a.313.313,0,0,1-.234-.25.158.158,0,0,0-.19-.14.18.18,0,0,1-.232-.183c0-.04-.06-.076-.089-.11l.012-.19H406.2c0-.015.013-.055.025-.094.018-.058.038-.116.058-.174-.069-.023-.142-.073-.206-.063-.217.033-.267.009-.352-.2-.013-.031-.092-.056-.133-.047s-.083.062-.125.1c-.092-.213-.215-.257-.452-.193a.174.174,0,0,1-.149-.081c-.064-.169-.106-.347-.16-.52a1.636,1.636,0,0,0-.067-.158c-.034.044-.066.09-.1.132s-.078.081-.117.122a1.026,1.026,0,0,1-.094-.129c-.077-.147-.137-.3-.228-.442-.042-.063-.162-.074-.206-.136-.1-.14-.172-.3-.262-.449-.058-.1-.134-.18-.19-.276-.133-.227-.26-.458-.389-.687-.014-.026-.031-.05-.045-.075-.086-.149-.037-.279.132-.308a2.5,2.5,0,0,1,.394-.015c.246,0,.492,0,.738,0a.188.188,0,0,1,.214.146c.066.239.189.294.449.275a1.1,1.1,0,0,1,.364.111c.061.019.129.059.185.048a.577.577,0,0,1,.549.222.181.181,0,0,0,.115.028c.237,0,.476-.016.711.007a.386.386,0,0,1,.333.15C407.22,607.587,407.364,607.56,407.4,607.562Z" transform="translate(-402.964 -590.84)" fill="#a24a3f"/>
      <path id="Path_912" data-name="Path 912" d="M1265.719,759l-.142.328c-.061-.162-.112-.3-.163-.429-.02-.053-.026-.125-.065-.155a1.732,1.732,0,0,0-.7-.35c-.528-.11-1.05-.245-1.573-.378-.041-.01-.064-.088-.1-.135.051-.027.11-.087.151-.077.233.059.461.141.694.2.259.068.525.114.783.185a1.927,1.927,0,0,1,.951.581A2.238,2.238,0,0,1,1265.719,759Z" transform="translate(-1233.481 -736.903)" fill="#a24a3f"/>
      <path id="Path_913" data-name="Path 913" d="M1139.914,760.936a.709.709,0,0,1,.139-.078q.3-.089.6-.166c.07-.018.137-.049.195.057a.084.084,0,0,0,.162-.039c.01-.114.072-.138.157-.159l.454-.111.15.182c-.477.157-.936.279-1.37.462-.221.094-.3-.143-.478-.09Z" transform="translate(-1114.638 -739.448)" fill="#a24a3f"/>
      <path id="Path_914" data-name="Path 914" d="M1343.06,1192.953a2.523,2.523,0,0,1,.185,1.132C1343,1193.747,1342.887,1193.122,1343.06,1192.953Z" transform="translate(-1310.736 -1157.127)" fill="#a24a3f"/>
      <path id="Path_915" data-name="Path 915" d="M763.152,744.723c-.385.076-.769.153-1.154.227a.234.234,0,0,1-.124-.006.14.14,0,0,1-.071-.08c0-.014.038-.056.065-.064a.816.816,0,0,1,.124-.006c.3-.041.593-.09.89-.12a.941.941,0,0,1,.268.051Z" transform="translate(-749.495 -724.221)" fill="#a24a3f"/>
      <path id="Path_916" data-name="Path 916" d="M1329.185,1058.852a.743.743,0,0,1,.216.693c-.015.027-.082.06-.095.05-.059-.046-.14-.1-.153-.163a1.1,1.1,0,0,1,.03-.278C1329.19,1059.066,1329.185,1058.978,1329.185,1058.852Z" transform="translate(-1297.382 -1027.625)" fill="#a24a3f"/>
      <path id="Path_917" data-name="Path 917" d="M1118.222,613.1c-.054-.041-.14-.071-.156-.124a4.88,4.88,0,0,1-.131-.565c-.006-.031.038-.072.06-.108.029.029.076.053.085.087.062.22.117.443.174.665Z" transform="translate(-1093.413 -596.394)" fill="#a24a3f"/>
      <path id="Path_918" data-name="Path 918" d="M1343.974,814.526c-.047-.2-.1-.409-.137-.615a.139.139,0,0,1,.041-.093c.047.009.129.031.13.052.01.219.006.438.006.657Z" transform="translate(-1311.566 -790.995)" fill="#a24a3f"/>
      <path id="Path_919" data-name="Path 919" d="M1331.331,1039.254l.056-.536C1331.521,1038.967,1331.484,1039.221,1331.331,1039.254Z" transform="translate(-1299.49 -1008.182)" fill="#a24a3f"/>
      <path id="Path_920" data-name="Path 920" d="M601.455,1128.372c.028.091.06.182.08.274,0,.02-.034.066-.058.07s-.074-.028-.076-.048c-.008-.1,0-.193,0-.29Z" transform="translate(-594.591 -1094.761)" fill="#a24a3f"/>
      <path id="Path_921" data-name="Path 921" d="M554.84,1248.311l-.151-.421C554.875,1247.969,554.926,1248.1,554.84,1248.311Z" transform="translate(-549.485 -1210.18)" fill="#a24a3f"/>
      <path id="Path_922" data-name="Path 922" d="M546.132,1255.529v.316l-.047,0v-.311Z" transform="translate(-541.176 -1217.557)" fill="#a24a3f"/>
      <path id="Path_923" data-name="Path 923" d="M685.731,833.145v-.267C685.893,832.95,685.893,832.973,685.731,833.145Z" transform="translate(-676.033 -809.402)" fill="#a24a3f"/>
      <path id="Path_924" data-name="Path 924" d="M969.372,674.525c-.066-.046-.146-.073-.169-.124-.051-.115.054-.169.135-.185a2.7,2.7,0,0,1,.443-.034c.031,0,.088.04.087.06a.14.14,0,0,1-.057.109C969.675,674.413,969.533,674.462,969.372,674.525Z" transform="translate(-949.77 -656.148)" fill="#a24a3f"/>
      <path id="Path_925" data-name="Path 925" d="M1038.748,432.9c.183-.007.413.323.4.581C1038.993,433.5,1038.715,433.106,1038.748,432.9Z" transform="translate(-1016.939 -423.146)" fill="#a24a3f"/>
      <path id="Path_926" data-name="Path 926" d="M1040.8,489.8a3.243,3.243,0,0,1-.1.33c-.011.028-.077.044-.119.047a.148.148,0,0,1-.084-.041,1.831,1.831,0,0,1,.118-.3c.023-.041.086-.06.131-.088Z" transform="translate(-1018.633 -478.037)" fill="#a24a3f"/>
      <path id="Path_927" data-name="Path 927" d="M1502.648,673.19l-.218-.111a.874.874,0,0,1,.25-.146c.049-.01.118.077.178.12Z" transform="translate(-1464.72 -654.942)" fill="#a24a3f"/>
      <path id="Path_928" data-name="Path 928" d="M1545.519,671.265l.155.143c-.046.025-.093.074-.136.07a.506.506,0,0,1-.164-.08Z" transform="translate(-1506.191 -653.332)" fill="#a24a3f"/>
      <path id="Path_929" data-name="Path 929" d="M963.749,806.608a2.488,2.488,0,0,1,.268,0c.039,0,.1.036.1.065a.131.131,0,0,1-.05.117c-.19.068-.383.13-.579.18-.109.028-.131-.056-.12-.143s-.053-.207.108-.215l.268-.012Z" transform="translate(-944.148 -784.028)" fill="#a24a3f"/>
      <path id="Path_930" data-name="Path 930" d="M919.06,810.739l.022-.165c.172,0,.338,0,.5,0,.033,0,.065.048.1.074-.035.029-.068.082-.1.084-.15.01-.3,0-.452,0l-.006.074a2.519,2.519,0,0,1,.255.025.507.507,0,0,1,.127.064c-.041.031-.079.081-.123.088a.825.825,0,0,1-.3,0,.706.706,0,0,1-.2-.134l.146-.137Z" transform="translate(-901.177 -787.861)" fill="#a24a3f"/>
      <path id="Path_931" data-name="Path 931" d="M901.108,1050.759c-.025.194-.048.389-.077.583,0,.029-.038.077-.055.076a.129.129,0,0,1-.094-.053.268.268,0,0,1-.03-.278,2.257,2.257,0,0,0,.093-.465.627.627,0,0,1,.08-.151,1.07,1.07,0,0,1,.08.163.38.38,0,0,1,0,.125Z" transform="translate(-883.749 -1019.531)" fill="#a24a3f"/>
      <path id="Path_932" data-name="Path 932" d="M904.623,1018.051c.022-.115.049-.229.061-.344,0-.032-.049-.067-.058-.1-.017-.067-.053-.162-.023-.2.053-.071.094,0,.154.043.171.108.1.23.08.364s-.016.272-.037.406a.508.508,0,0,1-.089.154.808.808,0,0,1-.07-.153.714.714,0,0,1,0-.161Z" transform="translate(-887.387 -987.566)" fill="#a24a3f"/>
      <path id="Path_933" data-name="Path 933" d="M921.728,923.96c0,.2,0,.372,0,.543,0,.027-.052.076-.073.072s-.089-.044-.092-.072a.369.369,0,0,0-.162-.33c-.017-.01-.006-.123.015-.131A2.431,2.431,0,0,1,921.728,923.96Z" transform="translate(-903.609 -897.36)" fill="#a24a3f"/>
      <path id="Path_934" data-name="Path 934" d="M865.19,1209.407a.759.759,0,0,1,.028-.094c.024-.053.052-.1.078-.156.03.029.089.062.085.085a.66.66,0,0,1-.077.208.509.509,0,0,1-.113.118c-.052.046-.108.087-.163.13-.023-.04-.066-.081-.065-.121,0-.076-.015-.181.12-.17C865.111,1209.409,865.141,1209.407,865.19,1209.407Z" transform="translate(-849.116 -1172.774)" fill="#a24a3f"/>
      <path id="Path_935" data-name="Path 935" d="M908.234,799.527c-.076-.037-.257.092-.257-.088,0-.152.172-.055.265-.077a.443.443,0,0,1,.2,0c.034.008.059.056.089.086-.032.026-.061.067-.1.075A.964.964,0,0,1,908.234,799.527Z" transform="translate(-890.656 -777.025)" fill="#a24a3f"/>
      <path id="Path_936" data-name="Path 936" d="M906.57,862.842c-.079-.034-.195-.048-.226-.107a.483.483,0,0,1,.009-.27c0-.011.118-.026.127-.009.06.1.1.216.153.326Z" transform="translate(-889.062 -837.958)" fill="#a24a3f"/>
      <path id="Path_937" data-name="Path 937" d="M918.93,956.209c-.1-.045-.2-.059-.215-.1-.059-.142.006-.343.1-.356a.14.14,0,0,1,.109.085A3,3,0,0,1,918.93,956.209Z" transform="translate(-901.004 -928.057)" fill="#a24a3f"/>
      <path id="Path_938" data-name="Path 938" d="M915.5,849.135a1.2,1.2,0,0,1-.006.25c-.007.033-.077.053-.118.079a1.6,1.6,0,0,1-.045-.287c0-.03.08-.059.123-.088Z" transform="translate(-897.757 -825.056)" fill="#a24a3f"/>
      <path id="Path_939" data-name="Path 939" d="M1070.349,806.69a.554.554,0,0,1-.162.045c-.029,0-.057-.052-.086-.081a.625.625,0,0,1,.155-.081c.027-.006.065.041.1.063Z" transform="translate(-1047.219 -783.999)" fill="#a24a3f"/>
    </g>
    <g id="Group_393" data-name="Group 393" transform="translate(210.221 198.546)">
      <path id="Path_940" data-name="Path 940" d="M211.023,1619.67h.011l3.747-3.539h1.147l-3.972,3.573,4.193,4.3h-1.179l-3.938-4.192h-.011v4.192h-.8v-7.877h.8Z" transform="translate(-210.221 -1615.933)" fill="#a24a3f"/>
      <rect id="Rectangle_94" data-name="Rectangle 94" width="0.803" height="7.877" transform="translate(9.21 0.2)" fill="#a24a3f"/>
      <path id="Path_941" data-name="Path 941" d="M601.24,1624.044h-.8v-3.394l-2.947-4.482h1l2.368,3.815,2.391-3.815h.935l-2.946,4.482Z" transform="translate(-584.207 -1615.969)" fill="#a24a3f"/>
      <path id="Path_942" data-name="Path 942" d="M876.177,1614.487a4.307,4.307,0,0,1-.312,1.657,3.923,3.923,0,0,1-.86,1.307,4,4,0,0,1-1.3.863,4.439,4.439,0,0,1-3.259,0,3.987,3.987,0,0,1-1.3-.863,3.908,3.908,0,0,1-.862-1.307,4.561,4.561,0,0,1,0-3.314,3.919,3.919,0,0,1,.862-1.307,3.964,3.964,0,0,1,1.3-.863,4.429,4.429,0,0,1,3.259,0,3.978,3.978,0,0,1,1.3.863,3.935,3.935,0,0,1,.86,1.307,4.312,4.312,0,0,1,.312,1.657m-.846.005a3.845,3.845,0,0,0-.222-1.311,3.236,3.236,0,0,0-.645-1.093,3.052,3.052,0,0,0-1.029-.751,3.491,3.491,0,0,0-2.725,0,3.082,3.082,0,0,0-1.03.751,3.252,3.252,0,0,0-.645,1.093,4,4,0,0,0,0,2.621,3.191,3.191,0,0,0,.645,1.089,3.1,3.1,0,0,0,1.03.743,3.461,3.461,0,0,0,2.725,0,3.065,3.065,0,0,0,1.029-.743,3.176,3.176,0,0,0,.645-1.089,3.836,3.836,0,0,0,.222-1.31" transform="translate(-845.409 -1610.349)" fill="#a24a3f"/>
      <path id="Path_943" data-name="Path 943" d="M1210.89,1611.817a1.942,1.942,0,0,0-.655-.574,2.172,2.172,0,0,0-1.559-.128,1.661,1.661,0,0,0-.544.272,1.4,1.4,0,0,0-.4.461,1.38,1.38,0,0,0-.148.656,1.208,1.208,0,0,0,.143.624,1.358,1.358,0,0,0,.382.417,2.2,2.2,0,0,0,.546.284c.2.074.413.148.636.221.275.089.55.185.828.289a3.025,3.025,0,0,1,.748.407,1.949,1.949,0,0,1,.542.633,2,2,0,0,1,.211.973,2.089,2.089,0,0,1-.809,1.725,2.483,2.483,0,0,1-.821.411,3.382,3.382,0,0,1-.928.132,3.439,3.439,0,0,1-.712-.073,3.1,3.1,0,0,1-.678-.216,2.658,2.658,0,0,1-.6-.366,2.544,2.544,0,0,1-.489-.513l.69-.511a2.1,2.1,0,0,0,.717.707,2.133,2.133,0,0,0,1.7.188,1.666,1.666,0,0,0,.561-.288,1.6,1.6,0,0,0,.412-.479,1.3,1.3,0,0,0,.161-.661,1.327,1.327,0,0,0-.161-.685,1.456,1.456,0,0,0-.427-.456,2.691,2.691,0,0,0-.614-.3c-.228-.082-.472-.165-.723-.244s-.515-.176-.766-.278a2.612,2.612,0,0,1-.68-.407,1.9,1.9,0,0,1-.483-.618,2,2,0,0,1-.183-.9,1.977,1.977,0,0,1,.227-.979,2.073,2.073,0,0,1,.594-.68,2.531,2.531,0,0,1,.813-.387,3.238,3.238,0,0,1,.879-.123,3.047,3.047,0,0,1,1.368.282,2.362,2.362,0,0,1,.857.674Z" transform="translate(-1172.413 -1610.349)" fill="#a24a3f"/>
      <path id="Path_944" data-name="Path 944" d="M1468.668,1616.168h.8v3.415h4.293v-3.415h.8v7.877h-.8v-3.728h-4.293v3.728h-.8Z" transform="translate(-1425.506 -1615.969)" fill="#a24a3f"/>
      <rect id="Rectangle_95" data-name="Rectangle 95" width="0.803" height="7.877" transform="translate(53.373 0.2)" fill="#a24a3f"/>
    </g>
  </g>
</svg>
