<svg width="28" height="28" viewBox="0 0 28 28" fill="none" xmlns="http://www.w3.org/2000/svg">
<path d="M10.3677 24.8889C11.3342 24.8889 12.1177 24.1054 12.1177 23.1389C12.1177 22.1724 11.3342 21.3889 10.3677 21.3889C9.40121 21.3889 8.61768 22.1724 8.61768 23.1389C8.61768 24.1054 9.40121 24.8889 10.3677 24.8889Z" fill="white"/>
<path d="M21 24.8889C21.9665 24.8889 22.75 24.1054 22.75 23.1389C22.75 22.1724 21.9665 21.3889 21 21.3889C20.0335 21.3889 19.25 22.1724 19.25 23.1389C19.25 24.1054 20.0335 24.8889 21 24.8889Z" fill="white"/>
<path d="M25.7289 4.17676C25.6565 4.08754 25.5653 4.01546 25.4618 3.96571C25.3583 3.91595 25.2449 3.88975 25.1301 3.88899H8.93672L9.44228 5.44454H24.1112L22.0345 14.7779H10.3678L6.81338 3.52343C6.77493 3.40401 6.70817 3.29567 6.61878 3.20763C6.5294 3.1196 6.42004 3.05449 6.30005 3.01787L3.11116 2.03787C3.0131 2.00774 2.91007 1.99722 2.80796 2.00691C2.70583 2.01659 2.60662 2.0463 2.51598 2.09433C2.33292 2.19132 2.1959 2.35707 2.13505 2.5551C2.07419 2.75313 2.0945 2.96722 2.1915 3.15028C2.28849 3.33333 2.45424 3.47035 2.65227 3.53121L5.44449 4.38676L9.0145 15.6645L7.73893 16.7068L7.63782 16.8079C7.3223 17.1715 7.14347 17.6337 7.13211 18.115C7.12075 18.5963 7.27759 19.0665 7.5756 19.4445C7.78755 19.7024 8.05698 19.9069 8.36218 20.042C8.66745 20.1771 9.00003 20.2388 9.33339 20.2223H22.3145C22.5208 20.2223 22.7186 20.1403 22.8645 19.9945C23.0103 19.8487 23.0923 19.6508 23.0923 19.4445C23.0923 19.2383 23.0103 19.0404 22.8645 18.8946C22.7186 18.7487 22.5208 18.6668 22.3145 18.6668H9.20894C9.11934 18.6637 9.03208 18.6376 8.95554 18.591C8.87909 18.5443 8.81585 18.4788 8.77206 18.4006C8.72828 18.3224 8.70541 18.2342 8.70564 18.1446C8.70588 18.055 8.72921 17.9669 8.77339 17.889L10.6478 16.3334H22.6567C22.8365 16.3379 23.0122 16.2798 23.1541 16.1692C23.2959 16.0586 23.395 15.9022 23.4345 15.7268L25.9001 4.83787C25.9237 4.72192 25.9206 4.6021 25.891 4.48754C25.8612 4.37297 25.8059 4.26668 25.7289 4.17676Z" fill="white"/>
</svg>
