<svg xmlns="http://www.w3.org/2000/svg" width="102.981" height="52.483" viewBox="0 0 102.981 52.483">
  <g id="Group_580" data-name="Group 580" transform="translate(-98 -540.308)">
    <path id="Path_1699" data-name="Path 1699" d="M833.565,554.747h-3.759v10.161h-.9V554.747h-3.76v-.765h8.42Z" transform="translate(-685.636 -12.893)" fill="#c6234b"/>
    <path id="Path_1700" data-name="Path 1700" d="M1000.368,545.284a2.9,2.9,0,0,1,2.656-1.539,2.462,2.462,0,0,1,1.97.8,3.714,3.714,0,0,1,.687,2.469v5.006h-.9v-5.031a2.8,2.8,0,0,0-.521-1.9,1.842,1.842,0,0,0-1.437-.575,2.426,2.426,0,0,0-1.542.485,2.824,2.824,0,0,0-.911,1.29v5.73h-.9V540.308h.9Z" transform="translate(-850.008)" fill="#c6234b"/>
    <path id="Path_1701" data-name="Path 1701" d="M1144.209,608.949a3.255,3.255,0,0,1-2.533-1.126,4.108,4.108,0,0,1-1.01-2.851v-.413a4.237,4.237,0,0,1,1-2.89,3.109,3.109,0,0,1,2.428-1.148,3.008,3.008,0,0,1,2.349.946,3.615,3.615,0,0,1,.856,2.521v.766h-5.733v.217a3.581,3.581,0,0,0,.727,2.291,2.323,2.323,0,0,0,1.914.921,3.93,3.93,0,0,0,1.433-.233,2.819,2.819,0,0,0,1.013-.668l.383.616a3.263,3.263,0,0,1-1.16.766,4.439,4.439,0,0,1-1.67.284m-.113-7.662a2.15,2.15,0,0,0-1.673.76,3.26,3.26,0,0,0-.788,1.9l.015.037h4.758v-.225a2.585,2.585,0,0,0-.623-1.766,2.132,2.132,0,0,0-1.689-.711" transform="translate(-983.147 -56.776)" fill="#c6234b"/>
    <path id="Path_1702" data-name="Path 1702" d="M860.579,849.414v7.973h-1.442V839.756h5.974a6.7,6.7,0,0,1,4.35,1.242,4.42,4.42,0,0,1,1.515,3.629,4.152,4.152,0,0,1-.812,2.515,4.6,4.6,0,0,1-2.29,1.618,3.839,3.839,0,0,1,2.357,1.472,4.628,4.628,0,0,1,.721,2.66v1.66a5.207,5.207,0,0,0,.194,1.478,2.3,2.3,0,0,0,.643,1.066v.29H870.31a2.415,2.415,0,0,1-.63-1.224,7.271,7.271,0,0,1-.182-1.635v-1.611a3.269,3.269,0,0,0-1.048-2.563,4.235,4.235,0,0,0-2.926-.939Zm0-1.236h4.35a5.231,5.231,0,0,0,3.49-.963,3.276,3.276,0,0,0,1.1-2.6,3.342,3.342,0,0,0-1.1-2.685,4.993,4.993,0,0,0-3.315-.939h-4.532Z" transform="translate(-717.688 -282.354)" fill="#c6234b"/>
    <path id="Path_1703" data-name="Path 1703" d="M1130.622,928.305a5.26,5.26,0,0,1-4.09-1.818,6.637,6.637,0,0,1-1.63-4.6v-.666a6.841,6.841,0,0,1,1.618-4.666,5.02,5.02,0,0,1,3.92-1.854,4.856,4.856,0,0,1,3.793,1.526,5.84,5.84,0,0,1,1.382,4.072v1.236h-9.258v.351a5.778,5.778,0,0,0,1.176,3.7,3.748,3.748,0,0,0,3.09,1.487,6.342,6.342,0,0,0,2.314-.376,4.551,4.551,0,0,0,1.635-1.078l.619.993a5.257,5.257,0,0,1-1.873,1.238,7.159,7.159,0,0,1-2.7.459m-.182-12.372a3.472,3.472,0,0,0-2.7,1.227,5.268,5.268,0,0,0-1.272,3.075l.024.061h7.683v-.363a4.17,4.17,0,0,0-1.006-2.852,3.44,3.44,0,0,0-2.726-1.148" transform="translate(-968.282 -353.017)" fill="#c6234b"/>
    <path id="Path_1704" data-name="Path 1704" d="M1352.889,829.934a8.562,8.562,0,0,1,1.327-5.023,4.274,4.274,0,0,1,3.7-1.884,4.664,4.664,0,0,1,2.375.582,4.8,4.8,0,0,1,1.672,1.648v-7.779h1.442v18.9h-1.285l-.121-1.9a4.5,4.5,0,0,1-1.685,1.6,5.017,5.017,0,0,1-2.423.558,4.355,4.355,0,0,1-3.678-1.751,7.588,7.588,0,0,1-1.327-4.7Zm1.454.256a6.7,6.7,0,0,0,.952,3.8,3.223,3.223,0,0,0,2.866,1.412,4.107,4.107,0,0,0,2.345-.632,4.2,4.2,0,0,0,1.46-1.753v-6.182a4.673,4.673,0,0,0-1.406-1.856,3.739,3.739,0,0,0-2.375-.712,3.157,3.157,0,0,0-2.878,1.576,7.77,7.77,0,0,0-.963,4.1Z" transform="translate(-1183.255 -261.347)" fill="#c6234b"/>
    <path id="Path_1705" data-name="Path 1705" d="M844.545,1263.09l.015.045a3.8,3.8,0,0,1-1.171,2.585,3.918,3.918,0,0,1-2.754.942,3.669,3.669,0,0,1-2.942-1.317,5.088,5.088,0,0,1-1.119-3.411v-1.778a5.106,5.106,0,0,1,1.119-3.411,3.662,3.662,0,0,1,2.942-1.325,3.963,3.963,0,0,1,2.762.923,3.779,3.779,0,0,1,1.164,2.6l-.015.045H843.7a3.385,3.385,0,0,0-.934-2.078,2.967,2.967,0,0,0-2.135-.721,2.773,2.773,0,0,0-2.3,1.11,4.481,4.481,0,0,0-.867,2.842v1.792a4.5,4.5,0,0,0,.867,2.861,2.777,2.777,0,0,0,2.3,1.106,3.026,3.026,0,0,0,2.139-.7,3.316,3.316,0,0,0,.931-2.1Z" transform="translate(-696.413 -674.29)" fill="#c6234b"/>
    <path id="Path_1706" data-name="Path 1706" d="M1013.519,1249.484a2.9,2.9,0,0,1,2.657-1.539,2.462,2.462,0,0,1,1.97.8,3.716,3.716,0,0,1,.687,2.469v5.006h-.9v-5.031a2.8,2.8,0,0,0-.521-1.9,1.844,1.844,0,0,0-1.437-.575,2.424,2.424,0,0,0-1.542.485,2.822,2.822,0,0,0-.912,1.29v5.73h-.9v-11.708h.9Z" transform="translate(-862.408 -664.001)" fill="#c6234b"/>
    <path id="Path_1707" data-name="Path 1707" d="M1160.809,1312.99q-.09-.413-.127-.713a4.776,4.776,0,0,1-.038-.608,3.58,3.58,0,0,1-1.2,1.058,3.4,3.4,0,0,1-1.688.421,2.552,2.552,0,0,1-1.842-.631,2.232,2.232,0,0,1-.657-1.689,2.091,2.091,0,0,1,.972-1.8,4.52,4.52,0,0,1,2.623-.676h1.794v-1.005a1.732,1.732,0,0,0-.559-1.366,2.281,2.281,0,0,0-1.565-.5,2.492,2.492,0,0,0-1.557.473,1.413,1.413,0,0,0-.619,1.156l-.826-.008-.015-.045a1.944,1.944,0,0,1,.829-1.625,3.4,3.4,0,0,1,2.225-.717,3.264,3.264,0,0,1,2.161.683,2.409,2.409,0,0,1,.818,1.959v3.993a6.978,6.978,0,0,0,.048.833,5.192,5.192,0,0,0,.162.8Zm-2.949-.638a3.221,3.221,0,0,0,1.711-.454,2.7,2.7,0,0,0,1.073-1.16v-1.7h-1.809a3.3,3.3,0,0,0-1.955.522,1.546,1.546,0,0,0-.732,1.294,1.4,1.4,0,0,0,.454,1.078,1.791,1.791,0,0,0,1.257.416" transform="translate(-996.903 -720.775)" fill="#c6234b"/>
    <path id="Path_1708" data-name="Path 1708" d="M1307.255,1304.871l.083,1.343a2.858,2.858,0,0,1,1.039-1.1,2.954,2.954,0,0,1,1.55-.39,2.6,2.6,0,0,1,1.557.451,2.474,2.474,0,0,1,.9,1.373,3.1,3.1,0,0,1,1.047-1.34,2.775,2.775,0,0,1,1.655-.484,2.442,2.442,0,0,1,2,.863,4.185,4.185,0,0,1,.706,2.672v4.735h-.9v-4.76a3.3,3.3,0,0,0-.529-2.124,1.833,1.833,0,0,0-1.475-.62,2.026,2.026,0,0,0-1.613.655,3.1,3.1,0,0,0-.706,1.677c0,.035,0,.086,0,.151s0,.113,0,.143v4.88h-.908v-4.76a3.277,3.277,0,0,0-.536-2.109,1.829,1.829,0,0,0-1.476-.636,2.228,2.228,0,0,0-1.512.485,2.581,2.581,0,0,0-.784,1.3v5.715h-.908v-8.12Z" transform="translate(-1139.469 -720.777)" fill="#c6234b"/>
    <path id="Path_1709" data-name="Path 1709" d="M1552.268,1252.384a4.684,4.684,0,0,1-.825,2.908,2.7,2.7,0,0,1-2.274,1.085,3.134,3.134,0,0,1-1.538-.357,2.75,2.75,0,0,1-1.043-1.024l-.1,1.223h-.773v-11.707h.9v4.863a2.778,2.778,0,0,1,2.536-1.427,2.649,2.649,0,0,1,2.289,1.167,5.285,5.285,0,0,1,.825,3.111Zm-.908-.157a4.785,4.785,0,0,0-.6-2.536,1.957,1.957,0,0,0-1.779-.976,2.324,2.324,0,0,0-1.512.467,2.79,2.79,0,0,0-.852,1.2v3.686a2.555,2.555,0,0,0,.9,1.127,2.517,2.517,0,0,0,1.482.419,2,2,0,0,0,1.772-.875,4.134,4.134,0,0,0,.593-2.352Z" transform="translate(-1365.074 -664.004)" fill="#c6234b"/>
    <path id="Path_1710" data-name="Path 1710" d="M1690.594,1313.149a3.256,3.256,0,0,1-2.533-1.126,4.109,4.109,0,0,1-1.009-2.852v-.413a4.237,4.237,0,0,1,1-2.889,3.109,3.109,0,0,1,2.428-1.148,3.007,3.007,0,0,1,2.349.946,3.614,3.614,0,0,1,.856,2.521v.765h-5.734v.217a3.581,3.581,0,0,0,.728,2.291,2.323,2.323,0,0,0,1.914.922,3.933,3.933,0,0,0,1.433-.233,2.824,2.824,0,0,0,1.013-.668l.383.616a3.269,3.269,0,0,1-1.16.767,4.449,4.449,0,0,1-1.67.284m-.113-7.663a2.152,2.152,0,0,0-1.674.76,3.264,3.264,0,0,0-.788,1.9l.015.037h4.759v-.225a2.585,2.585,0,0,0-.623-1.766,2.131,2.131,0,0,0-1.689-.711" transform="translate(-1498.341 -720.777)" fill="#c6234b"/>
    <path id="Path_1711" data-name="Path 1711" d="M1838.158,1305.638l-.668-.045a2.04,2.04,0,0,0-1.392.476,2.63,2.63,0,0,0-.776,1.31v5.606h-.9v-8.12h.789l.112,1.351v.09a2.911,2.911,0,0,1,.946-1.171,2.375,2.375,0,0,1,1.41-.421,2.081,2.081,0,0,1,.334.027,2.443,2.443,0,0,1,.267.057Z" transform="translate(-1637.298 -720.77)" fill="#c6234b"/>
    <rect id="Rectangle_133" data-name="Rectangle 133" width="31.581" height="49.911" transform="translate(99.037 541.905)" fill="#c6234b"/>
    <path id="Path_1712" data-name="Path 1712" d="M685.161,1438.318c-.013.24.141.154.168.19-.034-.4-.209-.18-.168-.19" transform="translate(-553.638 -846.698)" fill="#c6234b"/>
    <path id="Path_1713" data-name="Path 1713" d="M677.593,1361.086l.063.07-.154-.585Z" transform="translate(-546.421 -773.439)" fill="#c6234b"/>
    <path id="Path_1714" data-name="Path 1714" d="M677.307,1304.53c-.263.351.043,1.346-.05,2.008l-.06.109.212.3a20.058,20.058,0,0,1-.1-2.416" transform="translate(-546.134 -720.597)" fill="#c6234b"/>
    <path id="Path_1715" data-name="Path 1715" d="M687.824,1268.873c-.1.122-.088-.429-.032.462.011-.045.017-.058.025-.083,0-.08,0-.191.006-.378" transform="translate(-556.083 -686.92)" fill="#c6234b"/>
    <path id="Path_1716" data-name="Path 1716" d="M688.964,1275.438c.008.391.086-.256,0,0" transform="translate(-557.229 -693.107)" fill="#c6234b"/>
    <path id="Path_1717" data-name="Path 1717" d="M687.931,1240.658l.092.516c.06-.108.074-.566.117-.4-.05-.528-.11-.42-.209-.119" transform="translate(-556.255 -660.134)" fill="#c6234b"/>
    <path id="Path_1718" data-name="Path 1718" d="M684.565,1236.253l.039.267c.025-.047.034-.118-.039-.267" transform="translate(-553.082 -656.217)" fill="#c6234b"/>
    <path id="Path_1719" data-name="Path 1719" d="M684.314,1241.5l-.081-.566c-.043.075-.127.082.03.26-.078-.046,0,.066.052.307" transform="translate(-552.71 -660.628)" fill="#c6234b"/>
    <path id="Path_1720" data-name="Path 1720" d="M682.934,1256.467c-.057.289-.093.662-.185.145.037.986.222.841.185-.145" transform="translate(-551.369 -675.278)" fill="#c6234b"/>
    <path id="Path_1721" data-name="Path 1721" d="M673.1,1301.2l-.077.387.088.334c-.043-.167.071-.745-.011-.721" transform="translate(-542.197 -717.452)" fill="#c6234b"/>
    <path id="Path_1722" data-name="Path 1722" d="M686.652,1188.524c-.056-.032-.149.173-.22.212l.064.38c.038-.2.073-.566.156-.592" transform="translate(-554.842 -611.21)" fill="#c6234b"/>
    <path id="Path_1723" data-name="Path 1723" d="M684.812,1182.885l-.1-.569c-.011.508.035.6.1.569" transform="translate(-553.222 -605.359)" fill="#c6234b"/>
    <path id="Path_1724" data-name="Path 1724" d="M679.411,1231.665l.2.935-.2-1.116Z" transform="translate(-548.219 -651.721)" fill="#c6234b"/>
    <path id="Path_1725" data-name="Path 1725" d="M689.306,1146.313l.13.323-.2-.575Z" transform="translate(-557.49 -571.174)" fill="#c6234b"/>
    <path id="Path_1726" data-name="Path 1726" d="M690,1107c.107.239.181-.327.247-.075a4.619,4.619,0,0,0-.194-1.027A3.184,3.184,0,0,1,690,1107" transform="translate(-558.203 -533.303)" fill="#c6234b"/>
    <path id="Path_1727" data-name="Path 1727" d="M688.805,1097.033a5.147,5.147,0,0,0,.121.506,2.57,2.57,0,0,0-.121-.506" transform="translate(-557.08 -524.945)" fill="#c6234b"/>
    <path id="Path_1728" data-name="Path 1728" d="M685.223,1157.919a.731.731,0,0,0,.16-.448l-.157.224c0,.068,0,.145,0,.224" transform="translate(-553.702 -581.933)" fill="#c6234b"/>
    <path id="Path_1729" data-name="Path 1729" d="M685.172,1153.41l.006-.008c0-.243.007-.412.008-.484,0,.062-.006.21-.014.492" transform="translate(-553.654 -577.639)" fill="#c6234b"/>
    <path id="Path_1730" data-name="Path 1730" d="M685,1165.381c0-.021,0-.036,0-.057-.015.022-.021.035,0,.057" transform="translate(-553.476 -589.337)" fill="#c6234b"/>
    <path id="Path_1731" data-name="Path 1731" d="M676.714,1197.91c-.088-.335-.182-1.032-.316-.357.108.24.184-.146.316.357" transform="translate(-545.381 -619.459)" fill="#c6234b"/>
    <path id="Path_1732" data-name="Path 1732" d="M681.178,1171.182l-.036.605c.042-.012.1-.122.146.044Z" transform="translate(-549.854 -594.861)" fill="#c6234b"/>
    <path id="Path_1733" data-name="Path 1733" d="M680.89,1166l.05.3.013-.224Z" transform="translate(-549.616 -589.972)" fill="#c6234b"/>
    <path id="Path_1734" data-name="Path 1734" d="M684.051,1100.81a4.034,4.034,0,0,1-.085-.87c-.031.346-.047.7-.047,1.044.049.048.138.2.132-.174" transform="translate(-552.472 -527.686)" fill="#c6234b"/>
    <path id="Path_1735" data-name="Path 1735" d="M685.156,1136.745l-.009-.058c-.013.036-.017.065.009.058" transform="translate(-553.62 -562.335)" fill="#c6234b"/>
    <path id="Path_1736" data-name="Path 1736" d="M684.265,1044.269l-.029.051.027.012Z" transform="translate(-552.771 -475.193)" fill="#c6234b"/>
    <path id="Path_1737" data-name="Path 1737" d="M683.229,1118.065a1.192,1.192,0,0,0,.057.564c-.016-.195-.027-.4-.028-.622-.022-.021-.037-.025-.029.058" transform="translate(-551.811 -544.709)" fill="#c6234b"/>
    <path id="Path_1738" data-name="Path 1738" d="M686.09,1081.5c-.033.135-.061.289-.086.45.05-.132.128-.4.086-.45" transform="translate(-554.438 -510.297)" fill="#c6234b"/>
    <path id="Path_1739" data-name="Path 1739" d="M686.082,1134.717l.007.039c.034-.085.017-.075-.007-.039" transform="translate(-554.512 -560.453)" fill="#c6234b"/>
    <path id="Path_1740" data-name="Path 1740" d="M684.492,1129.461a2.274,2.274,0,0,0-.1-.344c.013.158.03.3.053.432a.431.431,0,0,1,.044-.088" transform="translate(-552.922 -555.197)" fill="#c6234b"/>
    <path id="Path_1741" data-name="Path 1741" d="M667.045,1016.44c.146.046.281.73.125,1.32.11.581.589.2.857-.307-.063-.018-.122-.018-.209-.616-.079.209-.185,1.326-.318.822a1.7,1.7,0,0,1,.128-1.034c-.182.327-.265-1.007-.531-.835l.094.694c-.041.013-.108-.239-.146-.046" transform="translate(-536.562 -448.326)" fill="#c6234b"/>
    <path id="Path_1742" data-name="Path 1742" d="M683.98,1046.493l.018.246a3.85,3.85,0,0,1,.2-.851c-.071-.409-.125-.494-.174-.522l-.02,1.211Z" transform="translate(-552.53 -476.227)" fill="#c6234b"/>
    <path id="Path_1743" data-name="Path 1743" d="M677.751,1070.521c-.159-.192-.226-.783-.4-.421.011.722.132.506.2.937-.04-1.165.088.335.178-.508.027.229.035.435.042.63.019-.21.043-.412.072-.6,0,.01-.007.018-.01.026v.006h0c-.02.05-.032.067-.02.01a.1.1,0,0,1,0-.024.156.156,0,0,1-.06-.053c.033-.337.041-.053.06.053.008,0,.015.013.023.014l0,0-.087-1.167a9.691,9.691,0,0,0,0,1.1" transform="translate(-546.281 -498.905)" fill="#c6234b"/>
    <path id="Path_1744" data-name="Path 1744" d="M670.417,1189.687c.014-.036.026-.035.037-.037-.019-.076-.032-.1-.037.037" transform="translate(-539.741 -612.215)" fill="#c6234b"/>
    <path id="Path_1745" data-name="Path 1745" d="M671.117,1173.38a.851.851,0,0,1,.069.431c-.047.239-.076,0-.128.012.042.166.114.582.191.06l-.021-.082a2.61,2.61,0,0,1,.274-.991,1.553,1.553,0,0,0-.384.571" transform="translate(-540.346 -596.389)" fill="#c6234b"/>
    <path id="Path_1746" data-name="Path 1746" d="M673.939,1119.213l-.078-.971-.137.495.083-.025c-.032.552.069.433.133.5" transform="translate(-542.86 -544.943)" fill="#c6234b"/>
    <path id="Path_1747" data-name="Path 1747" d="M684.975,1035.179l.167.129-.236-.561Z" transform="translate(-553.403 -466.214)" fill="#c6234b"/>
    <path id="Path_1748" data-name="Path 1748" d="M685.757,1015.463l.146.046-.088-.333Z" transform="translate(-554.206 -447.761)" fill="#c6234b"/>
    <path id="Path_1749" data-name="Path 1749" d="M131.414,811.322l.042.286a2.223,2.223,0,0,0-.042-.286" transform="translate(-31.507 -255.543)" fill="#c6234b"/>
    <path id="Path_1750" data-name="Path 1750" d="M130.395,774.281l-.072-.051c.04.1.068.135.072.051" transform="translate(-30.478 -220.569)" fill="#c6234b"/>
    <path id="Path_1751" data-name="Path 1751" d="M564.242,548.161c-.415-.135-.88-.347-.83-.183l.128.16a2.473,2.473,0,0,1,.7.023" transform="translate(-438.84 -7.176)" fill="#c6234b"/>
    <path id="Path_1752" data-name="Path 1752" d="M205.989,567.279l.122.048.281-.153-.4.1" transform="translate(-101.825 -25.332)" fill="#c6234b"/>
    <path id="Path_1753" data-name="Path 1753" d="M191.8,578.89l-.548-.1a3.831,3.831,0,0,0,.548.1" transform="translate(-87.925 -36.282)" fill="#c6234b"/>
    <path id="Path_1754" data-name="Path 1754" d="M134.455,1008.818l.163.333c0-.521-.083-.292-.163-.333" transform="translate(-34.374 -441.751)" fill="#c6234b"/>
    <path id="Path_1755" data-name="Path 1755" d="M683.734,778.873a6.352,6.352,0,0,0,.1-.9c-.092.432-.229.781-.1.9" transform="translate(-552.246 -224.103)" fill="#c6234b"/>
    <path id="Path_1756" data-name="Path 1756" d="M101.724,796.961c.029.175.062.25.1.244-.027-.18-.058-.281-.1-.244" transform="translate(-3.512 -241.995)" fill="#c6234b"/>
    <path id="Path_1757" data-name="Path 1757" d="M685.692,759.821c-.016.063-.024.125-.037.19a6.088,6.088,0,0,1,.038.847,2.03,2.03,0,0,0,0-1.036" transform="translate(-554.109 -206.982)" fill="#c6234b"/>
    <path id="Path_1758" data-name="Path 1758" d="M399.872,1426.635c.03.007.065.011.093.019.008-.021-.032-.023-.093-.019" transform="translate(-284.64 -835.73)" fill="#c6234b"/>
    <path id="Path_1759" data-name="Path 1759" d="M600.732,1454.814c-.117.01-.309.01-.49.012a2.579,2.579,0,0,0,.49-.012" transform="translate(-473.572 -862.302)" fill="#c6234b"/>
    <path id="Path_1760" data-name="Path 1760" d="M686.941,931.2c.011.268.018.043,0,0" transform="translate(-555.322 -368.579)" fill="#c6234b"/>
    <path id="Path_1761" data-name="Path 1761" d="M674.6,952.251c-.018-.057-.041-.1-.078-.107a.177.177,0,0,1,.078.107" transform="translate(-543.614 -388.327)" fill="#c6234b"/>
    <path id="Path_1762" data-name="Path 1762" d="M668.538,712.712c0-.008,0-.014,0-.024-.031.08-.026.066,0,.024" transform="translate(-537.95 -162.54)" fill="#c6234b"/>
    <path id="Path_1763" data-name="Path 1763" d="M685.677,932.6a3.33,3.33,0,0,0,.047-.343c-.012.055-.027.16-.047.343" transform="translate(-554.13 -369.576)" fill="#c6234b"/>
    <path id="Path_1764" data-name="Path 1764" d="M686.741,937.31c-.006.093-.011.165-.016.234.027.034.044,0,.016-.234" transform="translate(-555.118 -374.339)" fill="#c6234b"/>
    <path id="Path_1765" data-name="Path 1765" d="M686.518,924.665a4.168,4.168,0,0,1-.017.433c.011-.053.02-.074.025-.06,0-.078,0-.189-.009-.373" transform="translate(-554.907 -362.416)" fill="#c6234b"/>
    <path id="Path_1766" data-name="Path 1766" d="M124.526,1341.99c-.005.018-.008.038-.015.058.066.27.056.151.015-.058" transform="translate(-24.998 -755.918)" fill="#c6234b"/>
    <path id="Path_1767" data-name="Path 1767" d="M455.791,581.041c.013,0,.019-.006.03-.008l-.039-.005Z" transform="translate(-337.359 -38.395)" fill="#c6234b"/>
    <path id="Path_1768" data-name="Path 1768" d="M439.088,573.56a1.4,1.4,0,0,1,.953-.133l-.318-.46Z" transform="translate(-321.617 -30.795)" fill="#c6234b"/>
    <path id="Path_1769" data-name="Path 1769" d="M99.955,569.867l.144-.675c.236.815.155,1.405.356.771-.5-.1-.052-2.625-.551-2.719l.105-.446c-.005.128.024.148.02.274.239-.865-.362-.643-.291-1.759.038-.389.111-.66.17-.4l-.124-.866c.009-.253.1-.19.087.061l-.041-1.322.015.01a7.9,7.9,0,0,1-.252-.825c.072-.336.053.168.116.083l-.121-.732c.129-.3.255.308.237.814.5-.683-.126-.607.165-2.082l.063.691c.284-.445.181-.984.357-1.766-.092.185-.445,1.564-.57.77a2.292,2.292,0,0,0-.045-.947c.178,0,.134-.422.124-.946l.236.036c-.068-.566-.188-.521-.294-.854a1.037,1.037,0,0,1,.359-.911c.037-1.01-.292.7-.337-.5a8.99,8.99,0,0,0-.148-2.435c.081-.589.144.1.212-.109l-.188-.521c0-.128.062-.086.091-.066-.073-.247-.235-.015-.3-.472-.114-.1-.055-.293.022-.439.195.05.383.106.533.13a.731.731,0,0,0,.211.006,2.5,2.5,0,0,0,.257-.074c.211.067-.1.144-.037.235a12.449,12.449,0,0,0,1.967-.4l.82.155c-.6-.177.168-.386.842-.558-.214-.085-.4-.16-.519-.2l1.077-.127c.13.039.022.12-.155.218.073-.019.143-.038.2-.056.385.087.185.223-.09.354l-.388-.145c-.266.143-.514.3-.459.44a1.514,1.514,0,0,1,.353-.064c-.07.039-.114.074-.082.1s.149-.027.325-.087l.245.262.059-.1,1.408.163a15.048,15.048,0,0,1,3.482-.762c-.4.193-.085.315-.106.543-.437-.242-1.239.1-2.067.055.433.025.337.133.227.172l1.478-.22c-.033.187.314.14.7.217-.292-.369,1.1-.246,1.7-.359.037.123-.107.25-.841.22.809.277,1.046-.433,1.841-.2-.179,0-.276-.016-.347.047.419-.11,1.442-.023,1.2.084l-.179,0c1.19.043,3.62,0,3.8-.312a1.27,1.27,0,0,1-.228.441l2.122-1.054c-.187.269.531.909-.455,1.061a3.76,3.76,0,0,0,1.231-.012c-.193-.038-.482-.388-.218-.413a7.784,7.784,0,0,0,1.4.415c-.29-.057.032-.479.489-.466-.071.063.038.416-.129.46l1.139-.415c-.284.075-.05.351.205.468a10.189,10.189,0,0,1,1.288-.034l-.483-.1c1.286.062,1.27-.583,2.545-.562-.154.086-.381.527.268.578a5.9,5.9,0,0,1,2.445-1.184l.217.122.136-.022c.087-.013.17-.03.331-.048l.6-.07c-.214.08-.505.182-.764.294-.23.112-.5.234-.77.355-.549.24-1.133.474-1.547.6.481.1.134.143.855.132.255.114-.393.173-.6.179l1.678.072c-.019-.062.052-.108.168-.146a2.043,2.043,0,0,1,.2-.052.188.188,0,0,0,.074-.023l.049-.022c.133-.057.318-.109.364-.212l-.171.04-.158.041a1.086,1.086,0,0,1-.221.047l-.911.129c-.037-.123.226-.3.647-.439.106-.035.221-.068.344-.1a3.156,3.156,0,0,1,.316-.075,3.45,3.45,0,0,1,.729-.05c.083.049-.077.159-.228.268a1.677,1.677,0,0,0-.315.255.865.865,0,0,1,.268-.082.8.8,0,0,1,.02.427,1.063,1.063,0,0,0-.066-.1.626.626,0,0,0-.066-.072c-.046.174.035.234.1.378a.493.493,0,0,1,.042.122,1.942,1.942,0,0,1,.022.233,1.66,1.66,0,0,1-.072.535c-.016.275-.318.82-.172.867.282-.448,1.155-.536,1.368-.237a15.783,15.783,0,0,1-.409,1.755c-.221.452-.528-.678-.718-.294.068.017.151.266.178.37-.058.289-.209-.119-.179.507.251.1-.021,1.274.212.3a10.916,10.916,0,0,1-.04,1.37c.162-.229.552.646.624,1.26-.064-.036-.147.1-.185.169-.022,1.255-.136,1.93-.137,3.1-.06.108-.134.673-.242.433a2.1,2.1,0,0,1,.136.684c-.217.7-.034-.806-.295-.273.146.046.2.934.293,1.449.225-.158.043-1.189-.049-1.7.31,0,.636.894.781,2.118.077.973-.2.422-.157.591-.054,1.827.543,1.556.319,3.074-.2.6-.393.027-.536.161a12.188,12.188,0,0,1,.117-1.754l-.093.661a3.079,3.079,0,0,1-.059-1.069c-.178.5-.033,3.087-.2,4.5.066.251.135.683.215.478l-.028-.446c.159-.409.221.84.3.275a6.7,6.7,0,0,1,.2,2.112l-.226.158a1.342,1.342,0,0,0,.065-.788c.1.351-.3,1.292-.009,1.676l.156-.59a7.348,7.348,0,0,1,.282,2.09c.222-.34-.025-.172.235-.7-.324.46.013-1.91-.328-1.171.3-.545.128-.942.386-1.654-.074.022-.142.252-.106-.374a.767.767,0,0,1-.065-.138c0-.019,0-.025.006-.042l-.009.035c-.011-.027-.013-.029,0,.013a.893.893,0,0,1-.113.32,10.848,10.848,0,0,1-.255-1.645c.035-.372.086.156.165-.047l-.132-.5c.165-.05.274-.988.371-.112l.007-.789a4.719,4.719,0,0,0,.06-1.5c.035-.372-.184-.939-.054-.616l-.1-1.237.041-.011a18.444,18.444,0,0,1,.024-3.907,7.806,7.806,0,0,1-.046-1.522l.143-.134a10.843,10.843,0,0,0-.006-1.811c.385-.569.083-2.56.151-3.487l-.187-.035a18.342,18.342,0,0,0-.118-2.043l-.165.048a2.463,2.463,0,0,1-.04-.444c0-.081,0-.165,0-.251.005-.123.01-.25.015-.381.027-.544.073-1.18.1-1.856-.338-.015-.7-.024-1.066-.02a2.379,2.379,0,0,1,.857-.009c-2.34-.372-3.375.272-4.624,0a1.643,1.643,0,0,1-.708,0,.35.35,0,0,0,.072-.008l-.119,0c-.129-.029-.262-.062-.406-.088a2.206,2.206,0,0,0,.342.089,8.9,8.9,0,0,0-.9.065l-.143-.177-.077.005c-.329-.065-.264.084-.089.217a2.8,2.8,0,0,0-.443.107c-.267-.286-.878.1-1.242-.208-.225.149-1.682.113-1.86.426-.011-.041-.11-.06.07-.062a3.15,3.15,0,0,0-1.08.017l-.158-.226-.814.3c-.495-.137-.7-.216-.209-.39-1.186.267-.963.1-1.971.366l.049-.146c-.361.006-.937.2-1.155.081-.807-.277-3.992-.037-6.063-.293.4.429-.963-.192-1.044.141-.121-.1-.41-.158-.074-.247-1.057.1-1.588-.16-2.317.12-.121-.1.226-.149.119-.209a.8.8,0,0,1-.446.028c-.108-.06.155-.085.322-.129-1.079.017-1.189.33-1.267.623a1.509,1.509,0,0,0-1.215.074c-.191-.1-.508-.2.163-.231-.378-.014-2.305-.14-2.344.1a1.518,1.518,0,0,0-.627.01l-1.024-.02c-.309,0-.619,0-1.17.008l.339.038a.429.429,0,0,1-.35.146c.014.307-.07.625-.048,1.184l-.029-.033c-.025.233-.043.442-.055.6-.012.126-.018.225-.019.3a1.772,1.772,0,0,0,.018.322,3.482,3.482,0,0,1-.079,1.082l.177-.082c.38.141-.223,1.344-.078,2.224l.1-.318c.13.48-.516,1.343-.563,1.826-.033.1-.053-.166-.078-.313-.223,1.264.231.163.286,1.105-.125.174-.317-.224-.341.41-.1.316.406,1.839.167,2.7.1-.19.192-.38.264.057.035.671-.363,1.813-.059,2.419-.026.085-.052.117-.076.121a11.535,11.535,0,0,0,.3,1.974c-.61.474.3,3.186-.264,3.175l.03,1.577-.057-.041a3.653,3.653,0,0,0,.233,1.718c-.038.233-.091.063-.12.044a6.723,6.723,0,0,0,.192,2.853l-.183.128a31.109,31.109,0,0,0-.072,3.573c-.021-.014-.056-.043-.082-.159.215,1.625-.5,3.89.16,4.485l.164,1.072c.051-1.387.288.206.4-.364.039.545-.2,1.41-.234.74l.033-.1c-.346-.246-.122,1.724-.358,1.687.018,2.729-.173,5.39-.187,7.946l.269-.295-.015.892c-.063.234-.211.314-.2-.322a1.542,1.542,0,0,0,.187,1.085c-.108,1.245-.314-.486-.32-.1l.021.519.031-.117a2.773,2.773,0,0,1,.214,1.223c-.054.484-.166.248-.176.438-.019,0-.028.063-.008.292l-.023,1.124.213-.449a5,5,0,0,1,.064.667c.007.094.019.143.043.123a1.289,1.289,0,0,0,.122-.252,8.033,8.033,0,0,0-.2,2.056c.433.011.909.014,1.379.014l1.138-.005a8.557,8.557,0,0,1,1.226.033,9.209,9.209,0,0,1,2.239-.134c-.212-.044-.339-.283.4-.254-.269.493,1.348.214,1.942.568-.532-.235,2.091-.059,1.257-.393.614.04.038.184.5.3,1.461-.191,3.219.123,5.025.058.028-.065-.274-.164.113-.26l.953.323c.357-.032.328-.374.98-.149-.092-.055-.23-.137.009-.158,3.538.315,7.229-.261,10.822.331-.487-.125-.163-.138.209-.143-.241-.03.005-.16-.042-.248l1.5.243c.274-.244,1.612-.017,1.769-.25l-.476.042c.633-.275-.887-.611-.794-.963-.71.312-1.871-.462-3.034-.015-.257-.071.219-.114.081-.2a2.274,2.274,0,0,1-1.311.115l.075-.038c-1.855.038-2.65-.111-4.733-.209l.154.174a3.153,3.153,0,0,1-.751-.121c-.514.265,1.257.014.789.306-.594-.354-3.157,0-3.559-.407-.689,0,.2.2-.486.2l-.183-.108-.174.141c-.452-.023-.679-.16-.7-.252a3.461,3.461,0,0,0,.429-.034,12.821,12.821,0,0,0-1.852,0l.662.067c-1.88.1-4.175-.04-5.99.183l.138.082c-1.387.152-1.111-.09-2.633-.019l.055-.02a4.2,4.2,0,0,1-1.128.114c.385-.1-.723-.187-.219-.294a3.975,3.975,0,0,0-1.737.435l-.229-.136a2.475,2.475,0,0,1-1.127.224c.624-.117-.485-.208.213-.363a4.977,4.977,0,0,0-.738-.083l-.165,0-.084,0c-.051,0-.1.008-.151.015-.2.029-.411.087-.588.1a.714.714,0,0,1,.163-.51c-.128-.062-.194-.022-.227.122a2.472,2.472,0,0,0-.036.488c.134,0,.217,0,.109.027.06.059-.072.126-.312.176a1.883,1.883,0,0,1-.069-.678.83.83,0,0,1,.079-.317c.023-.057.05-.088.078-.162l.087-.219a3.569,3.569,0,0,0,.232-1.364c0,.127.027.136.025.263.1-.48-.13-.94.026-1.529-.228-.33.013-.765-.278-.859l.068,1.176a6.7,6.7,0,0,1-.253-2.391,2.7,2.7,0,0,1,.18.637c.086-.321-.057-.618.031-.951.292.095.064,1.429.287,2.144.123-.345-.212-1.351.1-.992-.4-.515.05-1.264-.256-2.132l.175.057a3.075,3.075,0,0,1-.106-.675l.227.458c-.194-.7.168-1.355.063-2.03.006,1.412-.211.317-.337.914-.235-1.741.456-1,.371-2.951.025.264-.1.99-.185.578a5.067,5.067,0,0,1,.194-1.089c-.037-1.292-.18.2-.287-.352.212-.44-.087-.634-.155-1.2l.178,0c.114-1.472-.37-.39-.233-1.715l.247.56-.064-.691.2.143a4.846,4.846,0,0,1-.055-1.722c-.124.171-.322-.1-.328-.748.106-.445.169.249.144-.675a.849.849,0,0,1,.087.839c.058.041.112.205.168.248a6.514,6.514,0,0,0,.026-1.537,1.82,1.82,0,0,1-.041.361l-.247-1.339c.067-.211.12-.043.173.122-.019-.271-.1-.459-.117-.858.144.1.293.078.361.643l-.16-1.276c.063-.085.172-.655.225-.489.085-.708-.28-1.736-.169-2.674a.965.965,0,0,1-.076-.346,10.578,10.578,0,0,0,.011-2.708l.259-.593c-.059-.819-.325.8-.423-.56-.083-.965.22-.361.292-.7a4.344,4.344,0,0,1-.186-2.2,7.362,7.362,0,0,1,.03.8m-.118-10.094c.037.2.152.586.048.729-.2-.223-.106-.4-.048-.729m5.814-8.347a1.1,1.1,0,0,1-.624-.037,2.274,2.274,0,0,1,.624.037m25.823,17.4a.131.131,0,0,0-.008-.021c.069-.436.042-.282.008.021m-.077.906c.025.091.05.085.074.046a1.148,1.148,0,0,1-.035-.5c-.046.064-.079.181-.039.452m-33.063,28.34.046-.176c.051.4.005.287-.046.176" transform="translate(0 -9.139)" fill="#c6234b"/>
    <path id="Path_1770" data-name="Path 1770" d="M199.332,577.645a.162.162,0,0,1-.084-.1c-.077.03-.079.065.084.1" transform="translate(-95.422 -35.114)" fill="#c6234b"/>
    <path id="Path_1771" data-name="Path 1771" d="M133.892,1007.993l0,.031a.079.079,0,0,0,.032.031Z" transform="translate(-33.842 -440.988)" fill="#c6234b"/>
    <path id="Path_1772" data-name="Path 1772" d="M656.587,643.854a1.22,1.22,0,0,1,.092-.36c-.043-.01-.08.075-.092.36" transform="translate(-526.701 -97.295)" fill="#c6234b"/>
    <path id="Path_1773" data-name="Path 1773" d="M686.642,970.174l-.046-.58a1.736,1.736,0,0,1-.058.523c.042-.013.1-.124.1.058" transform="translate(-554.942 -404.78)" fill="#c6234b"/>
    <path id="Path_1774" data-name="Path 1774" d="M669.153,1064.962c.022.085,0,.18.024.263l.082-.023c-.005-.361-.072-.614-.107-.24" transform="translate(-538.549 -494.531)" fill="#c6234b"/>
    <path id="Path_1775" data-name="Path 1775" d="M676.352,989.172c-.149.046-.1.41-.071.817,0-.025,0-.048,0-.072.209.119.14-.314.071-.745" transform="translate(-545.241 -423.241)" fill="#c6234b"/>
    <path id="Path_1776" data-name="Path 1776" d="M676.888,1005.132a3.392,3.392,0,0,1,0,.376c.084.048.017-.152,0-.376" transform="translate(-545.843 -438.29)" fill="#c6234b"/>
    <path id="Path_1777" data-name="Path 1777" d="M684.531,909.51c-.038.193.191.121.13.23.19.215-.23-1.285-.13-.23" transform="translate(-553.035 -347.768)" fill="#c6234b"/>
    <path id="Path_1778" data-name="Path 1778" d="M669.414,988.771l.185-.146-.149-.228Z" transform="translate(-538.795 -422.511)" fill="#c6234b"/>
    <path id="Path_1779" data-name="Path 1779" d="M670.932,938.706l-.051.65c.031-.01.049.073.063.174a2.922,2.922,0,0,0-.012-.824" transform="translate(-540.179 -375.655)" fill="#c6234b"/>
    <path id="Path_1780" data-name="Path 1780" d="M671.962,953.141a2.324,2.324,0,0,0,.031.523c0-.113-.008-.355-.031-.523" transform="translate(-541.197 -389.267)" fill="#c6234b"/>
    <path id="Path_1781" data-name="Path 1781" d="M668.439,968.641l.039-.192.013-.458Z" transform="translate(-537.876 -403.268)" fill="#c6234b"/>
    <path id="Path_1782" data-name="Path 1782" d="M670.072,804.425l-.053-.709c-.063-.072-.1.121-.077.385.044.17.069.433.13.324" transform="translate(-539.286 -248.357)" fill="#c6234b"/>
    <path id="Path_1783" data-name="Path 1783" d="M662.049,848.431a.708.708,0,0,1,.14-.313l-.229-.021Z" transform="translate(-531.767 -290.219)" fill="#c6234b"/>
    <path id="Path_1784" data-name="Path 1784" d="M659.777,809.27c-.063-.07-.183-1.029-.168-.13.062.072.116.782.168.13" transform="translate(-529.549 -253.125)" fill="#c6234b"/>
    <path id="Path_1785" data-name="Path 1785" d="M667.565,630.612l0,.18.375-.026Z" transform="translate(-537.052 -85.149)" fill="#c6234b"/>
    <path id="Path_1786" data-name="Path 1786" d="M565.331,580.9c.84.089.2-.231.959-.12.2-.089-.621-.091-.418-.168-.507.094-.773.041-.54.288" transform="translate(-440.573 -38.002)" fill="#c6234b"/>
    <path id="Path_1787" data-name="Path 1787" d="M576.206,579.664c.081-.015.167-.033.258-.057a1.47,1.47,0,0,0-.258.057" transform="translate(-450.908 -37.056)" fill="#c6234b"/>
    <path id="Path_1788" data-name="Path 1788" d="M643.493,1457.536l.54.078-.349-.126Z" transform="translate(-514.355 -864.823)" fill="#c6234b"/>
    <path id="Path_1789" data-name="Path 1789" d="M661.657,1453.448l.128.239.324-.216a1.048,1.048,0,0,1-.452-.022" transform="translate(-531.481 -861.014)" fill="#c6234b"/>
    <path id="Path_1790" data-name="Path 1790" d="M136.4,694.218l-.057-.041c-.062.084-.067.21-.076.464Z" transform="translate(-36.079 -145.085)" fill="#c6234b"/>
    <path id="Path_1791" data-name="Path 1791" d="M132.029,821.16l.005-.126-.216.236Z" transform="translate(-31.888 -264.701)" fill="#c6234b"/>
    <path id="Path_1792" data-name="Path 1792" d="M138.42,917.775c.009-.251-.04-.546-.03-.8.039.547-.239.866.03.8" transform="translate(-38.001 -355.167)" fill="#c6234b"/>
    <path id="Path_1793" data-name="Path 1793" d="M352.746,793.966c.062.035.1.056.145.081.165.1.336.2.491.311a.857.857,0,0,1,.358.788c-.07,1.438-.122,2.877-.181,4.315q-.027.649-.054,1.3c0,.058,0,.117,0,.19.355-.057.7-.118,1.041-.164.7-.095,1.41-.214,2.118-.262a3.9,3.9,0,0,1,2.225.566.729.729,0,0,1,.216.2c.1.132.065.235-.1.286a2.1,2.1,0,0,1-.509.106c-.556.031-1.115.063-1.672.063a28.562,28.562,0,0,0-5.02.469c-1.029.183-2.059.357-3.089.531a2.335,2.335,0,0,1-1.079-.178,2.8,2.8,0,0,1-.495-.205c-.07-.037-.112-.128-.167-.2.067-.052.127-.134.2-.152.28-.066.564-.117.849-.163.86-.139,1.721-.269,2.58-.409.6-.1,1.2-.208,1.8-.306.1-.016.132-.054.13-.152-.032-1.315-.054-2.63-.093-3.944-.018-.617-.063-1.234-.1-1.85a3.3,3.3,0,0,0-.072-.547,1.09,1.09,0,0,0-.154-.274c-.046-.079-.094-.158-.151-.254-.212.033-.442.073-.672.1-.2.026-.4.046-.594.061a1.316,1.316,0,0,1-1.08-.48c-.138-.144-.116-.212.078-.266.718-.2,1.435-.409,2.158-.59q1.339-.334,2.688-.623a5.561,5.561,0,0,1,1.945-.108,1.109,1.109,0,0,1,.385.106.778.778,0,0,1,.272.276c.1.171.048.288-.141.346-.366.112-.734.22-1.107.306-1,.232-2.009.452-3.014.676-.037.008-.072.021-.134.038" transform="translate(-234.767 -237.488)" fill="#fff"/>
    <path id="Path_1794" data-name="Path 1794" d="M253.848,727.334a5.472,5.472,0,0,0,.572-.062c.841-.183,1.678-.379,2.518-.563.267-.059.537-.1.807-.143a.318.318,0,0,1,.191.011.359.359,0,0,1,.162.168c.014.037-.048.135-.1.158-.351.163-.7.337-1.064.467-1.158.41-2.324.794-3.481,1.206-.339.122-.657.3-.984.46-.058.028-.115.06-.176.082a.321.321,0,0,1-.464-.161,2.036,2.036,0,0,1-.254-.957.491.491,0,0,1,.225-.446c.169-.114.329-.245.507-.343A6.4,6.4,0,0,0,254.1,725.6c.21-.252.41-.512.615-.77.03-.038.057-.079.084-.117-.279,0-.551-.022-.819.005q-.8.079-1.6.206a3.208,3.208,0,0,0-.549.186,3.059,3.059,0,0,1-.306.114.492.492,0,0,1-.611-.25,3.376,3.376,0,0,1-.265-.738c-.063-.252.128-.385.317-.483a2.175,2.175,0,0,0,.727-.631c.334-.434.666-.869.976-1.321a16.868,16.868,0,0,0,1.511-2.536,5.589,5.589,0,0,0,.268-.819.49.49,0,0,0-.112-.475.209.209,0,0,1-.057-.086c-.016-.089-.059-.2-.022-.262a.281.281,0,0,1,.243-.082,2.084,2.084,0,0,1,1.372.822.6.6,0,0,1,0,.739c-.3.423-.6.845-.92,1.249-.717.9-1.45,1.786-2.171,2.682a2.96,2.96,0,0,0-.28.439c-.084.155-.059.235.112.284a4.366,4.366,0,0,0,.77.166c.6.059,1.2.092,1.8.13a.194.194,0,0,0,.151-.059c.348-.509.694-1.019,1.03-1.537a1.8,1.8,0,0,0,.167-.4.479.479,0,0,0-.047-.428c-.135-.22-.043-.393.215-.382a1.142,1.142,0,0,1,.466.126,2.161,2.161,0,0,1,.733.647.425.425,0,0,1,0,.632c-.5.583-1.007,1.156-1.52,1.726-.757.839-1.522,1.671-2.281,2.508a2.677,2.677,0,0,0-.215.3.774.774,0,0,0-.044.138" transform="translate(-143.928 -167.115)" fill="#fff"/>
    <path id="Path_1795" data-name="Path 1795" d="M255.66,922.383a2.649,2.649,0,0,1-.3.279c-.635.437-1.266.879-1.916,1.295-1.106.707-2.225,1.4-3.338,2.092-.055.034-.113.063-.17.094a.809.809,0,0,1-1-.081,8.375,8.375,0,0,1-.677-.689.484.484,0,0,1-.091-.287c0-.157.079-.231.236-.251a.611.611,0,0,1,.163-.014,2.99,2.99,0,0,0,1.547-.308c1.03-.424,2.048-.873,3.077-1.3.716-.3,1.441-.568,2.164-.846a1.345,1.345,0,0,1,.267-.046l.033.062" transform="translate(-141.6 -360.206)" fill="#fff"/>
    <path id="Path_1796" data-name="Path 1796" d="M285.351,1112.561c-.327.051-.64.1-.954.148a2.122,2.122,0,0,1-1.531-.365.707.707,0,0,1-.135-.166.6.6,0,0,1,.183-.112,6.8,6.8,0,0,1,.9-.136,22.813,22.813,0,0,0,2.812-.357c.493-.087.977-.236,1.472-.316a2.594,2.594,0,0,1,1.507.266.034.034,0,0,1,.013.008l.188.217c-.072.054-.137.14-.217.157-.447.093-.9.179-1.349.247-.423.064-.85.1-1.275.155a.286.286,0,0,0-.166.081q-1.2,1.339-2.4,2.687c-.064.073-.113.159-.2.276a2.914,2.914,0,0,0,.3.012q.835-.061,1.668-.128,1.087-.086,2.174-.176l.111-.009c-.033-.053-.057-.094-.082-.133-.2-.314-.407-.626-.6-.943a.6.6,0,0,1-.035-.207.851.851,0,0,1,.213-.028,2.233,2.233,0,0,1,.968.367,3.327,3.327,0,0,1,1.144,1.177,1.285,1.285,0,0,1,.09.944.448.448,0,0,1-.4.343.248.248,0,0,1-.172-.09c-.223-.267-.442-.538-.653-.815a.228.228,0,0,0-.236-.105c-.88.1-1.76.194-2.64.29l-.006.041c.03.021.058.042.089.061.238.143.478.285.714.431a.218.218,0,0,1,.1.279,4.227,4.227,0,0,0-.2,1.218c0,.069,0,.137,0,.225.275-.044.542-.092.811-.128.375-.051.75-.107,1.126-.134a1.215,1.215,0,0,1,1.013.485c.138.157.112.267-.092.311-.407.087-.82.159-1.233.211-.513.064-1.031.1-1.545.153-.041,0-.111.063-.111.1-.006.662,0,1.324,0,2.01l.675-.081c1.359-.168,2.717-.349,4.087-.385a4.316,4.316,0,0,1,1.389.153,1.933,1.933,0,0,1,.938.66.73.73,0,0,1,.092.154c.138.3,0,.526-.321.5-.5-.046-.988-.122-1.481-.188a19.27,19.27,0,0,0-4.187-.168c-1.359.115-2.717.241-4.072.4-.873.1-1.738.283-2.606.425-.349.057-.7.12-1.049.151a.8.8,0,0,1-.444-.086,8.191,8.191,0,0,1-.743-.52.774.774,0,0,1-.116-.161c.18-.03.329-.062.48-.077,1.3-.124,2.608-.238,3.911-.368.8-.079,1.593-.178,2.388-.274.043,0,.113-.063.113-.1-.01-.647-.028-1.294-.044-1.942a.225.225,0,0,0-.021-.031c-.174.024-.359.052-.544.076-.336.045-.67.1-1.007.129a2.177,2.177,0,0,1-1.165-.315c-.13-.063-.25-.147-.374-.223l.011-.064c.131-.033.26-.075.393-.1.812-.123,1.625-.24,2.436-.36.073-.011.147-.025.248-.043-.045-.768-.089-1.537-.136-2.329-.26.047-.5.086-.744.134a10.465,10.465,0,0,0-1.964.555,3.144,3.144,0,0,1-.5.138.341.341,0,0,1-.4-.177,1.752,1.752,0,0,1-.238-.838.26.26,0,0,1,.181-.278,1.664,1.664,0,0,1,.327-.1,2.047,2.047,0,0,0,.974-.459,9.276,9.276,0,0,0,2.122-2.29.736.736,0,0,0,.038-.076" transform="translate(-170.547 -538.332)" fill="#fff"/>
    <path id="Path_1797" data-name="Path 1797" d="M287.953,1056.556c.213.2.258.3.479,1.03.238-.018.48-.033.721-.055,1.006-.1,2.012-.185,3.017-.3.925-.1,1.847-.223,2.769-.348.832-.113,1.665-.234,2.494-.371.357-.059.707-.16,1.057-.252a.94.94,0,0,1,.724.053,14.787,14.787,0,0,1,2.075,1.35,1.872,1.872,0,0,1,.312.319.2.2,0,0,1-.122.342.786.786,0,0,1-.266.032,2.548,2.548,0,0,0-1.309.3c-.446.208-.884.432-1.327.647a1,1,0,0,1-.2.069c-.134.034-.177,0-.129-.131a3.635,3.635,0,0,1,.209-.444c.131-.241.277-.472.406-.713a1.868,1.868,0,0,0,.144-.374.323.323,0,0,0-.229-.458,1.569,1.569,0,0,0-.583-.1c-.56.04-1.117.108-1.675.176-.751.091-1.5.193-2.251.288-.987.125-1.974.261-2.963.369-.89.1-1.784.162-2.677.239-.252.021-.2-.027-.242.219a4.051,4.051,0,0,1-.887,1.93,1.683,1.683,0,0,1-.223.219.459.459,0,0,1-.536.1.549.549,0,0,1-.333-.581,1.462,1.462,0,0,1,.217-.563,9.631,9.631,0,0,0,1.283-2.875c.012-.037.025-.073.041-.121" transform="translate(-177.648 -486.458)" fill="#fff"/>
    <path id="Path_1798" data-name="Path 1798" d="M389.814,1013.676c.333.041.668.074,1,.122a1.942,1.942,0,0,1,.968.466,1.237,1.237,0,0,1,.479.911,4.1,4.1,0,0,1-.035.712c-.028.213-.109.251-.312.173a2.646,2.646,0,0,1-.856-.562,5.685,5.685,0,0,1-1.12-1.35,3.1,3.1,0,0,1-.163-.42l.04-.052" transform="translate(-275.119 -446.346)" fill="#fff"/>
  </g>
</svg>
