<svg xmlns="http://www.w3.org/2000/svg" width="260.635" height="50.642" viewBox="0 0 260.635 50.642">
  <g id="Group_378" data-name="Group 378" transform="translate(-7395.709 -70)">
    <g id="Group_10" data-name="Group 10" transform="translate(7395.709 70)">
      <path id="Path_19" data-name="Path 19" d="M7418.875,88.422h1.007l-.607,8.187h-23.566v-.893h.588a4.688,4.688,0,0,0,2.738-.524,2.313,2.313,0,0,0,.788-1.327,28.95,28.95,0,0,0,.167-4.1v-12.9a27.155,27.155,0,0,0-.178-3.959,1.837,1.837,0,0,0-.819-1.329,6.177,6.177,0,0,0-2.7-.378v-.893h20.333l.672,6.558h-.987a9.794,9.794,0,0,0-1.647-3.909,4.192,4.192,0,0,0-2.317-1.454,21.839,21.839,0,0,0-4.324-.3h-3.944V82.235h3.021a8.748,8.748,0,0,0,2.906-.332,1.788,1.788,0,0,0,1.09-1,8.366,8.366,0,0,0,.263-2.609h.987v9h-.987a7.189,7.189,0,0,0-.4-2.939,1.889,1.889,0,0,0-1.166-.97,10.468,10.468,0,0,0-2.591-.223h-3.126v6.227q0,4.676.65,5.5t3.505.825h2.118a10.811,10.811,0,0,0,3.693-.534,6.5,6.5,0,0,0,2.76-2.192,12.307,12.307,0,0,0,2.066-4.568" transform="translate(-7395.708 -69.936)" fill="#383838"/>
      <path id="Path_20" data-name="Path 20" d="M7443.648,92.07l10.365-21.764h8.73V71.2h-1.049a7.417,7.417,0,0,0-2.749.321,1.688,1.688,0,0,0-.871,1.192,22.85,22.85,0,0,0-.221,4.153v12.9a30.22,30.22,0,0,0,.167,4.064,2.066,2.066,0,0,0,.851,1.425,5.043,5.043,0,0,0,2.611.466h1.261v.893h-13.6v-.893h1.007a5.19,5.19,0,0,0,2.508-.428,1.967,1.967,0,0,0,.9-1.327,25.992,25.992,0,0,0,.2-4.2V73.021l-11.269,23.587h-.987l-11.35-23.587v15.4a28.67,28.67,0,0,0,.208,4.306,3.316,3.316,0,0,0,1.3,2.008,5.372,5.372,0,0,0,3.064.98v.893h-10.178v-.893a5.465,5.465,0,0,0,2.971-.922,3.314,3.314,0,0,0,1.4-2.027,25.77,25.77,0,0,0,.252-4.461V76.863a24.711,24.711,0,0,0-.2-4.055,1.772,1.772,0,0,0-.84-1.262,7.016,7.016,0,0,0-2.8-.349h-.776v-.891h8.666Z" transform="translate(-7389.622 -69.935)" fill="#383838"/>
      <path id="Path_21" data-name="Path 21" d="M7488.154,88.422h1.006l-.608,8.187h-23.565v-.893h.588a4.688,4.688,0,0,0,2.738-.524,2.3,2.3,0,0,0,.787-1.327,28.761,28.761,0,0,0,.167-4.1v-12.9a27.155,27.155,0,0,0-.178-3.959,1.836,1.836,0,0,0-.817-1.329,6.186,6.186,0,0,0-2.7-.378v-.893h20.334l.67,6.558h-.986a9.785,9.785,0,0,0-1.648-3.909,4.185,4.185,0,0,0-2.318-1.454,21.817,21.817,0,0,0-4.322-.3h-3.945V82.235h3.021a8.743,8.743,0,0,0,2.907-.332,1.794,1.794,0,0,0,1.09-1,8.407,8.407,0,0,0,.264-2.609h.985v9h-.985a7.156,7.156,0,0,0-.4-2.939,1.885,1.885,0,0,0-1.165-.97,10.478,10.478,0,0,0-2.591-.223h-3.126v6.227q0,4.676.649,5.5t3.506.825h2.118a10.823,10.823,0,0,0,3.694-.534,6.514,6.514,0,0,0,2.76-2.192,12.346,12.346,0,0,0,2.066-4.568" transform="translate(-7381.088 -69.936)" fill="#383838"/>
      <path id="Path_22" data-name="Path 22" d="M7524.192,96.673h-7.659q-2.036-1.319-6.232-6.907-1.343-1.784-2.791-3.424a13.839,13.839,0,0,0-2-2,3.144,3.144,0,0,0-1.7-.36h-1.132v5.838a32.445,32.445,0,0,0,.156,4.064,2.024,2.024,0,0,0,.841,1.425,5.045,5.045,0,0,0,2.612.466h1.363v.893h-13.619v-.893h.924a5.269,5.269,0,0,0,2.53-.428,1.936,1.936,0,0,0,.891-1.329,27.518,27.518,0,0,0,.188-4.2v-12.9a26.14,26.14,0,0,0-.187-4.053,1.734,1.734,0,0,0-.839-1.262,7.11,7.11,0,0,0-2.812-.349h-.483v-.893l4.072-.194q4.069-.174,6.461-.176a25.674,25.674,0,0,1,6.622.7,9.008,9.008,0,0,1,4.124,2.288,5.225,5.225,0,0,1,1.572,3.8,5.674,5.674,0,0,1-2.057,4.4A10.727,10.727,0,0,1,7509,83.463q1.784.8,5.751,5.742a27.531,27.531,0,0,0,5.078,5.257,8.107,8.107,0,0,0,4.364,1.319Zm-21.509-13.578q1.572-.04,3.252-.117a12.911,12.911,0,0,0,2.915-.426,5.094,5.094,0,0,0,2-1.018,4.549,4.549,0,0,0,1.207-1.755,7.141,7.141,0,0,0,.441-2.678,6.393,6.393,0,0,0-1.5-4.442q-1.5-1.669-6.536-1.669-.776,0-1.783.077Z" transform="translate(-7374.956 -70)" fill="#383838"/>
      <path id="Path_23" data-name="Path 23" d="M7544.648,86.974h-10.806l-.733,1.668a15.974,15.974,0,0,0-1.636,4.734,2.046,2.046,0,0,0,.871,1.794,3.8,3.8,0,0,0,2.235.612v.893h-8.457v-.893a4.719,4.719,0,0,0,2.812-1.232,14.777,14.777,0,0,0,2.224-4.044q.105-.292,1.007-2.253L7540.431,70h.818l9.506,20.893,1.3,2.754a3.7,3.7,0,0,0,1.185,1.465,4.59,4.59,0,0,0,2.234.668v.893h-11.184v-.893a8.976,8.976,0,0,0,2.781-.282,1.086,1.086,0,0,0,.723-1.114,10.733,10.733,0,0,0-.965-2.542Zm-.355-.872-5.037-11.213L7534.242,86.1Z" transform="translate(-7368.187 -70)" fill="#383838"/>
      <path id="Path_24" data-name="Path 24" d="M7582.623,88.869l-.211,7.74H7558.24v-.893h.84a5.26,5.26,0,0,0,2.528-.428,1.969,1.969,0,0,0,.9-1.329,26.36,26.36,0,0,0,.2-4.2v-12.9a25.053,25.053,0,0,0-.2-4.055,1.772,1.772,0,0,0-.84-1.262,7.035,7.035,0,0,0-2.8-.349h-.628v-.893h13.66V71.2h-1.26a7.437,7.437,0,0,0-2.749.321,1.691,1.691,0,0,0-.87,1.192,23,23,0,0,0-.219,4.153V90.634a21.549,21.549,0,0,0,.167,3.569,1.678,1.678,0,0,0,.913,1.117,8.138,8.138,0,0,0,3.2.4h2.16a13.088,13.088,0,0,0,3.894-.428,5.358,5.358,0,0,0,2.412-1.863,13.991,13.991,0,0,0,2.086-4.557Z" transform="translate(-7361.408 -69.936)" fill="#383838"/>
      <path id="Path_25" data-name="Path 25" d="M7586.619,70.565l4.679-.212q5.856-.274,7.89-.272,6.338,0,9.885,1.784a12.125,12.125,0,0,1,5.279,4.841,14.06,14.06,0,0,1,1.729,7.051,14.292,14.292,0,0,1-.944,5.286,11.04,11.04,0,0,1-2.591,3.976,11.222,11.222,0,0,1-3.819,2.406,16.525,16.525,0,0,1-4.124,1.028q-1.953.2-5.5.2h-12.61v-.893h1.175a5.269,5.269,0,0,0,2.53-.428,1.974,1.974,0,0,0,.9-1.327,26.539,26.539,0,0,0,.2-4.2V77.122a25.431,25.431,0,0,0-.2-4.064,1.754,1.754,0,0,0-.839-1.261,7.232,7.232,0,0,0-2.8-.338h-.84Zm8.771.543V88.683a47.982,47.982,0,0,0,.157,5.023,2.028,2.028,0,0,0,.944,1.583,7.784,7.784,0,0,0,3.325.455,16.875,16.875,0,0,0,6.108-.941,8.143,8.143,0,0,0,4-3.706,13.887,13.887,0,0,0,1.606-7.051,17.7,17.7,0,0,0-.934-5.955,10.634,10.634,0,0,0-2.676-4.258,9.224,9.224,0,0,0-3.861-2.231,20.737,20.737,0,0,0-5.436-.592q-1.6,0-3.231.1" transform="translate(-7355.446 -69.983)" fill="#383838"/>
    </g>
    <rect id="Rectangle_11" data-name="Rectangle 11" width="50.093" height="1.232" transform="translate(7602.411 113.777)" fill="#383838"/>
    <rect id="Rectangle_12" data-name="Rectangle 12" width="50.093" height="1.232" transform="translate(7397.396 113.777)" fill="#383838"/>
    <g id="Group_11" data-name="Group 11" transform="translate(7458.072 108.144)">
      <path id="Path_26" data-name="Path 26" d="M7460.2,113.764h-3.225a6.207,6.207,0,0,1-.439-.569q-.262-.372-.573-.874t-.517-.831l-.815-1.35a11.642,11.642,0,0,0-.831-1.239,1.237,1.237,0,0,0-.639-.426,5.538,5.538,0,0,0-1.223-.093h-.453v3.144a2.456,2.456,0,0,0,.107.8.8.8,0,0,0,.5.463,3.2,3.2,0,0,0,1.15.16v.817H7447.2v-.817a2.117,2.117,0,0,0,1.417-.32,1.548,1.548,0,0,0,.315-1.1v-7.6a1.579,1.579,0,0,0-.306-1.1,2.087,2.087,0,0,0-1.425-.325v-.834l2.789-.09c.213-.011.458-.021.732-.027s.531-.008.769-.008q.274,0,.915.018.9.025,1.679.107a7.85,7.85,0,0,1,1.235.2,4.175,4.175,0,0,1,1.266.558,3.083,3.083,0,0,1,.977,1.032,2.855,2.855,0,0,1,.378,1.482,2.75,2.75,0,0,1-.263,1.172,2.686,2.686,0,0,1-.844,1.012,4.405,4.405,0,0,1-1.532.7,4.023,4.023,0,0,1,1.1.946q.452.565,1.42,2.075a14.524,14.524,0,0,0,.924,1.3,2.268,2.268,0,0,0,.671.6,2.172,2.172,0,0,0,.777.2Zm-4.992-8.838a1.966,1.966,0,0,0-.875-1.91,4.821,4.821,0,0,0-2.287-.471c-.13,0-.233,0-.307,0s-.158,0-.253,0V107.4h.56a5.2,5.2,0,0,0,2.252-.436Q7455.206,106.525,7455.207,104.926Z" transform="translate(-7447.204 -101.488)" fill="#383838"/>
      <path id="Path_27" data-name="Path 27" d="M7469.121,109.77l-.1,3.963h-10.731v-.817a2.162,2.162,0,0,0,1.431-.32,1.534,1.534,0,0,0,.319-1.1v-7.568a2.515,2.515,0,0,0-.1-.8.815.815,0,0,0-.48-.453,3.121,3.121,0,0,0-1.168-.163v-.817h9.994l.16,3.126h-.818a4.2,4.2,0,0,0-.634-1.487,1.461,1.461,0,0,0-.809-.55,6.46,6.46,0,0,0-1.345-.1h-2.257v4.254h1.226a2.986,2.986,0,0,0,.94-.11.707.707,0,0,0,.436-.423,3.433,3.433,0,0,0,.168-.977h.853v4.006h-.817a2.949,2.949,0,0,0-.178-.981.743.743,0,0,0-.449-.421,3.032,3.032,0,0,0-.936-.107h-1.244v2.833c0,.475.012.82.036,1.039a1.146,1.146,0,0,0,.191.547.9.9,0,0,0,.506.315,3.909,3.909,0,0,0,1,.1h.967a4.29,4.29,0,0,0,1.169-.156,2.274,2.274,0,0,0,1.089-.8,4.2,4.2,0,0,0,.746-2.021Z" transform="translate(-7444.863 -101.457)" fill="#383838"/>
      <path id="Path_28" data-name="Path 28" d="M7477.238,110.315A3.305,3.305,0,0,1,7477,111.5a4.128,4.128,0,0,1-.724,1.2,3.682,3.682,0,0,1-1.22.932,3.844,3.844,0,0,1-1.706.36,4.7,4.7,0,0,1-1.906-.417,4.2,4.2,0,0,1-1.6-1.245,4.825,4.825,0,0,0-.364,1.218h-.817v-4.122h.817a8.077,8.077,0,0,0,.612,1.67,3.948,3.948,0,0,0,1.106,1.345,2.742,2.742,0,0,0,1.753.564,2.075,2.075,0,0,0,1.453-.5,1.619,1.619,0,0,0,.546-1.252,1.588,1.588,0,0,0-.168-.746,1.821,1.821,0,0,0-.489-.573,5.616,5.616,0,0,0-.875-.543c-.372-.191-.792-.395-1.267-.608a10.547,10.547,0,0,1-1.793-1.039,5.041,5.041,0,0,1-1.062-1.017,3.216,3.216,0,0,1-.5-.937,2.984,2.984,0,0,1-.138-.9,3.263,3.263,0,0,1,.435-1.594,3.44,3.44,0,0,1,1.275-1.289,3.712,3.712,0,0,1,1.941-.5,3.591,3.591,0,0,1,1.607.377,4.116,4.116,0,0,1,1.323,1.035,5.359,5.359,0,0,0,.293-1.048h.834v3.357h-.834q-.888-2.745-3.091-2.745a1.884,1.884,0,0,0-1.283.423,1.374,1.374,0,0,0-.483,1.088,1.435,1.435,0,0,0,.3.911,2.6,2.6,0,0,0,.8.662q.491.276,1.593.79a22.462,22.462,0,0,1,2.083,1.094,4.5,4.5,0,0,1,1.27,1.163A2.778,2.778,0,0,1,7477.238,110.315Z" transform="translate(-7442.676 -101.494)" fill="#383838"/>
      <path id="Path_29" data-name="Path 29" d="M7488.7,105.108h-.844a3.539,3.539,0,0,0-.493-1.653,1.57,1.57,0,0,0-.813-.656,3.634,3.634,0,0,0-1-.125h-1.526v8.82a2.43,2.43,0,0,0,.106.814.811.811,0,0,0,.5.448,3.161,3.161,0,0,0,1.146.16v.817h-6.041v-.817a2.155,2.155,0,0,0,1.43-.32,1.527,1.527,0,0,0,.32-1.1v-8.82H7480.2a5.459,5.459,0,0,0-1.252.12,1.52,1.52,0,0,0-.875.658,3.18,3.18,0,0,0-.431,1.657h-.843v-3.42h11.9Z" transform="translate(-7440.958 -101.457)" fill="#383838"/>
      <path id="Path_30" data-name="Path 30" d="M7498.258,113.773h-5.676v-.817a3.825,3.825,0,0,0,1.049-.1.452.452,0,0,0,.329-.483,1.493,1.493,0,0,0-.106-.543l-.568-1.421h-3.91l-.292.781a3.116,3.116,0,0,0-.249.951.631.631,0,0,0,.413.676,2.964,2.964,0,0,0,.964.142v.817h-4.147v-.817a1.749,1.749,0,0,0,.842-.186,1.88,1.88,0,0,0,.663-.706,9.687,9.687,0,0,0,.68-1.47l3.472-9.1h.843l3.669,9.38q.4,1,.586,1.347a1.33,1.33,0,0,0,.515.541,1.851,1.851,0,0,0,.923.191Zm-5.293-4.237-1.661-4.2-1.582,4.2Z" transform="translate(-7439.002 -101.497)" fill="#383838"/>
      <path id="Path_31" data-name="Path 31" d="M7508.892,102.505a2.626,2.626,0,0,0-1.16.187.789.789,0,0,0-.431.532,5.184,5.184,0,0,0-.08,1.067v4.441a14.919,14.919,0,0,1-.085,1.844,3.412,3.412,0,0,1-.448,1.246,3.559,3.559,0,0,1-1.888,1.675,6.592,6.592,0,0,1-2.332.458,7.027,7.027,0,0,1-1.7-.218,5.247,5.247,0,0,1-1.63-.715,3.219,3.219,0,0,1-1.146-1.305,4.818,4.818,0,0,1-.328-.893,4.336,4.336,0,0,1-.138-.844q-.021-.4-.021-1.035l-.018-5.019a1.577,1.577,0,0,0-.307-1.1,2.135,2.135,0,0,0-1.435-.32v-.817h6.076v.817a3.223,3.223,0,0,0-1.154.155.832.832,0,0,0-.5.444,2.294,2.294,0,0,0-.115.821v5.019a10.5,10.5,0,0,0,.076,1.355,4.778,4.778,0,0,0,.234,1.017,2.411,2.411,0,0,0,1.027,1.15,3.054,3.054,0,0,0,1.593.43,3.467,3.467,0,0,0,1.737-.457,2.506,2.506,0,0,0,1.115-1.187,4.23,4.23,0,0,0,.324-1.176,11.916,11.916,0,0,0,.076-1.452v-4.336a7.463,7.463,0,0,0-.037-.871,1.038,1.038,0,0,0-.195-.5.922.922,0,0,0-.529-.316,4.192,4.192,0,0,0-1.016-.1v-.817h4.433Z" transform="translate(-7436.959 -101.457)" fill="#383838"/>
      <path id="Path_32" data-name="Path 32" d="M7520.226,113.764H7517a6.207,6.207,0,0,1-.439-.569q-.263-.372-.573-.874c-.208-.334-.378-.612-.515-.831l-.818-1.35a11.408,11.408,0,0,0-.829-1.239,1.235,1.235,0,0,0-.641-.426,5.523,5.523,0,0,0-1.221-.093h-.453v3.144a2.446,2.446,0,0,0,.106.8.81.81,0,0,0,.5.463,3.205,3.205,0,0,0,1.15.16v.817h-6.04v-.817a2.122,2.122,0,0,0,1.417-.32,1.549,1.549,0,0,0,.314-1.1v-7.6a1.586,1.586,0,0,0-.306-1.1,2.09,2.09,0,0,0-1.426-.325v-.834l2.789-.09c.213-.011.457-.021.733-.027s.532-.008.768-.008c.184,0,.49.006.915.018q.9.025,1.679.107a7.878,7.878,0,0,1,1.236.2,4.183,4.183,0,0,1,1.265.558,3.082,3.082,0,0,1,.976,1.032,2.855,2.855,0,0,1,.378,1.482,2.764,2.764,0,0,1-.262,1.172,2.69,2.69,0,0,1-.844,1.012,4.4,4.4,0,0,1-1.532.7,4.012,4.012,0,0,1,1.1.946q.454.565,1.421,2.075a14.524,14.524,0,0,0,.924,1.3,2.289,2.289,0,0,0,.669.6,2.186,2.186,0,0,0,.778.2Zm-4.992-8.838a1.968,1.968,0,0,0-.874-1.91,4.826,4.826,0,0,0-2.288-.471c-.13,0-.232,0-.306,0s-.158,0-.253,0V107.4h.56a5.2,5.2,0,0,0,2.251-.436Q7515.234,106.525,7515.234,104.926Z" transform="translate(-7434.535 -101.488)" fill="#383838"/>
      <path id="Path_33" data-name="Path 33" d="M7530.29,113.773h-5.676v-.817a3.807,3.807,0,0,0,1.047-.1.452.452,0,0,0,.33-.483,1.535,1.535,0,0,0-.106-.543l-.57-1.421h-3.907l-.293.781a3.13,3.13,0,0,0-.25.951.631.631,0,0,0,.415.676,2.956,2.956,0,0,0,.962.142v.817h-4.146v-.817a1.751,1.751,0,0,0,.843-.186,1.866,1.866,0,0,0,.661-.706,9.353,9.353,0,0,0,.681-1.47l3.473-9.1h.844l3.669,9.38q.4,1,.587,1.347a1.333,1.333,0,0,0,.514.541,1.86,1.86,0,0,0,.925.191ZM7525,109.536l-1.66-4.2-1.581,4.2Z" transform="translate(-7432.244 -101.497)" fill="#383838"/>
      <path id="Path_34" data-name="Path 34" d="M7541.768,102.505a3.183,3.183,0,0,0-1.235.172.78.78,0,0,0-.462.512,4.844,4.844,0,0,0-.088,1.1v9.549h-.817l-7.88-9.363v6.635a4.622,4.622,0,0,0,.094,1.1.815.815,0,0,0,.475.523,3.055,3.055,0,0,0,1.235.183v.817h-4.478v-.817a2.708,2.708,0,0,0,1.159-.183.787.787,0,0,0,.444-.523,5.028,5.028,0,0,0,.085-1.1v-6.147c0-.5-.013-.87-.04-1.119a1.737,1.737,0,0,0-.192-.653,1.1,1.1,0,0,0-.491-.453,2.741,2.741,0,0,0-.946-.235v-.817h3.508l6.857,8.1v-5.5a4.312,4.312,0,0,0-.093-1.035.862.862,0,0,0-.462-.555,2.629,2.629,0,0,0-1.167-.195v-.817h4.494Z" transform="translate(-7430.023 -101.457)" fill="#383838"/>
      <path id="Path_35" data-name="Path 35" d="M7552.015,105.108h-.843a3.557,3.557,0,0,0-.493-1.653,1.574,1.574,0,0,0-.812-.656,3.645,3.645,0,0,0-1-.125h-1.527v8.82a2.458,2.458,0,0,0,.106.814.814.814,0,0,0,.5.448,3.159,3.159,0,0,0,1.146.16v.817h-6.039v-.817a2.151,2.151,0,0,0,1.428-.32,1.529,1.529,0,0,0,.32-1.1v-8.82h-1.279a5.468,5.468,0,0,0-1.252.12,1.518,1.518,0,0,0-.875.658,3.185,3.185,0,0,0-.43,1.657h-.845v-3.42h11.9Z" transform="translate(-7427.596 -101.457)" fill="#383838"/>
      <path id="Path_36" data-name="Path 36" d="M7559.8,110.315a3.314,3.314,0,0,1-.24,1.184,4.13,4.13,0,0,1-.725,1.2,3.679,3.679,0,0,1-1.221.932,3.841,3.841,0,0,1-1.705.36,4.7,4.7,0,0,1-1.906-.417,4.19,4.19,0,0,1-1.6-1.245,4.763,4.763,0,0,0-.364,1.218h-.818v-4.122h.818a8.049,8.049,0,0,0,.612,1.67,3.935,3.935,0,0,0,1.106,1.345,2.742,2.742,0,0,0,1.755.564,2.074,2.074,0,0,0,1.452-.5,1.626,1.626,0,0,0,.546-1.252,1.594,1.594,0,0,0-.168-.746,1.821,1.821,0,0,0-.489-.573,5.6,5.6,0,0,0-.875-.543q-.556-.287-1.266-.608a10.521,10.521,0,0,1-1.794-1.039,5.077,5.077,0,0,1-1.062-1.017,3.216,3.216,0,0,1-.5-.937,2.954,2.954,0,0,1-.139-.9,3.25,3.25,0,0,1,.437-1.594,3.428,3.428,0,0,1,1.274-1.289,3.711,3.711,0,0,1,1.941-.5,3.6,3.6,0,0,1,1.607.377,4.14,4.14,0,0,1,1.323,1.035,5.393,5.393,0,0,0,.293-1.048h.836v3.357h-.836q-.889-2.745-3.091-2.745a1.88,1.88,0,0,0-1.283.423,1.373,1.373,0,0,0-.485,1.088,1.433,1.433,0,0,0,.3.911,2.6,2.6,0,0,0,.8.662q.491.276,1.593.79a22.4,22.4,0,0,1,2.083,1.094,4.5,4.5,0,0,1,1.271,1.163A2.781,2.781,0,0,1,7559.8,110.315Z" transform="translate(-7425.252 -101.494)" fill="#383838"/>
    </g>
  </g>
</svg>
