<svg id="Group_467" data-name="Group 467" xmlns="http://www.w3.org/2000/svg" width="51.773" height="51.773" viewBox="0 0 51.773 51.773">
  <path id="Path_1799" data-name="Path 1799" d="M-272.475,228.566l-1.8,6.728-6.587.14a25.774,25.774,0,0,1-3.085-12.268,25.758,25.758,0,0,1,2.894-11.9h0l5.864,1.075,2.569,5.829a15.388,15.388,0,0,0-.831,5A15.311,15.311,0,0,0-272.475,228.566Z" transform="translate(283.949 -197.28)" fill="#fbbb00"/>
  <path id="Path_1800" data-name="Path 1800" d="M-213.064,223.558a25.92,25.92,0,0,1,.452,4.836,25.926,25.926,0,0,1-.566,5.4,25.88,25.88,0,0,1-9.115,14.782h0l-7.386-.377-1.046-6.526a15.426,15.426,0,0,0,6.638-7.878h-13.842V223.558h24.865Z" transform="translate(264.384 -202.507)" fill="#518ef8"/>
  <path id="Path_1801" data-name="Path 1801" d="M-239.576,256.15h0a25.776,25.776,0,0,1-16.206,5.7,25.883,25.883,0,0,1-22.8-13.619l8.389-6.867a15.391,15.391,0,0,0,14.412,9.988,15.3,15.3,0,0,0,7.773-2.105Z" transform="translate(281.667 -210.077)" fill="#28b446"/>
  <path id="Path_1802" data-name="Path 1802" d="M-239.4,192.9l-8.386,6.865a15.3,15.3,0,0,0-8.137-2.326,15.4,15.4,0,0,0-14.557,10.387l-8.433-6.9h0a25.882,25.882,0,0,1,22.992-13.981A25.778,25.778,0,0,1-239.4,192.9Z" transform="translate(281.808 -186.94)" fill="#f14336"/>
</svg>
