<svg id="Group_468" data-name="Group 468" xmlns="http://www.w3.org/2000/svg" width="51.773" height="51.773" viewBox="0 0 51.773 51.773">
  <path id="Path_1803" data-name="Path 1803" d="M-5.2,186.94h-46.06A2.857,2.857,0,0,0-54.11,189.8v46.06a2.857,2.857,0,0,0,2.858,2.855H-5.2a2.857,2.857,0,0,0,2.858-2.857h0V189.8A2.857,2.857,0,0,0-5.2,186.94Z" transform="translate(54.11 -186.94)" fill="#4267b2"/>
  <path id="Path_1804" data-name="Path 1804" d="M-2.885,244.495V224.473h6.75l1.011-7.837H-2.885v-4.991c0-2.264.628-3.806,3.874-3.806H5.1v-6.99a55.241,55.241,0,0,0-6.029-.308c-5.966,0-10.049,3.64-10.049,10.328v5.768H-17.7v7.837h6.725v20.022Z" transform="translate(38.631 -192.722)" fill="#fff"/>
</svg>
